%TF.GenerationSoftware,KiCad,Pcbnew,5.1.10-88a1d61d58~88~ubuntu18.04.1*%
%TF.CreationDate,2021-08-27T16:22:50+08:00*%
%TF.ProjectId,grip_strength,67726970-5f73-4747-9265-6e6774682e6b,rev?*%
%TF.SameCoordinates,Original*%
%TF.FileFunction,Copper,L2,Bot*%
%TF.FilePolarity,Positive*%
%FSLAX46Y46*%
G04 Gerber Fmt 4.6, Leading zero omitted, Abs format (unit mm)*
G04 Created by KiCad (PCBNEW 5.1.10-88a1d61d58~88~ubuntu18.04.1) date 2021-08-27 16:22:50*
%MOMM*%
%LPD*%
G01*
G04 APERTURE LIST*
%TA.AperFunction,ComponentPad*%
%ADD10R,1.500000X1.500000*%
%TD*%
%TA.AperFunction,ComponentPad*%
%ADD11C,1.500000*%
%TD*%
%TA.AperFunction,ComponentPad*%
%ADD12O,1.700000X1.700000*%
%TD*%
%TA.AperFunction,ComponentPad*%
%ADD13R,1.700000X1.700000*%
%TD*%
%TA.AperFunction,ComponentPad*%
%ADD14O,1.400000X1.400000*%
%TD*%
%TA.AperFunction,ComponentPad*%
%ADD15C,1.400000*%
%TD*%
%TA.AperFunction,ComponentPad*%
%ADD16C,1.524000*%
%TD*%
%TA.AperFunction,ComponentPad*%
%ADD17O,1.600000X1.600000*%
%TD*%
%TA.AperFunction,ComponentPad*%
%ADD18R,1.600000X1.600000*%
%TD*%
%TA.AperFunction,ComponentPad*%
%ADD19C,2.000000*%
%TD*%
%TA.AperFunction,ComponentPad*%
%ADD20C,5.000000*%
%TD*%
%TA.AperFunction,ViaPad*%
%ADD21C,0.800000*%
%TD*%
%TA.AperFunction,Conductor*%
%ADD22C,0.250000*%
%TD*%
%TA.AperFunction,NonConductor*%
%ADD23C,0.254000*%
%TD*%
%TA.AperFunction,NonConductor*%
%ADD24C,0.100000*%
%TD*%
G04 APERTURE END LIST*
D10*
%TO.P,J1,1*%
%TO.N,VCC*%
X119380000Y-66675000D03*
D11*
%TO.P,J1,2*%
%TO.N,Net-(J1-Pad2)*%
X118110000Y-69215000D03*
%TO.P,J1,3*%
%TO.N,Net-(J1-Pad3)*%
X116840000Y-66675000D03*
%TO.P,J1,4*%
%TO.N,Net-(J1-Pad4)*%
X115570000Y-69215000D03*
%TO.P,J1,5*%
%TO.N,Net-(J1-Pad5)*%
X114300000Y-66675000D03*
%TO.P,J1,6*%
%TO.N,Net-(J1-Pad6)*%
X113030000Y-69215000D03*
%TO.P,J1,7*%
%TO.N,Net-(J1-Pad7)*%
X111760000Y-66675000D03*
%TO.P,J1,8*%
%TO.N,GNDREF*%
X110490000Y-69215000D03*
%TD*%
D12*
%TO.P,U4,4*%
%TO.N,Net-(U1-Pad6)*%
X96520000Y-113030000D03*
%TO.P,U4,3*%
%TO.N,Net-(U1-Pad7)*%
X99060000Y-113030000D03*
%TO.P,U4,2*%
%TO.N,GNDREF*%
X101600000Y-113030000D03*
D13*
%TO.P,U4,1*%
%TO.N,VCC*%
X104140000Y-113030000D03*
%TD*%
D14*
%TO.P,R6,2*%
%TO.N,Net-(J1-Pad7)*%
X108585000Y-108585000D03*
D15*
%TO.P,R6,1*%
%TO.N,VCC*%
X108585000Y-113665000D03*
%TD*%
D16*
%TO.P,U2,6*%
%TO.N,Net-(U2-Pad6)*%
X108585000Y-75565000D03*
%TO.P,U2,5*%
%TO.N,VCC*%
X111125000Y-75565000D03*
%TO.P,U2,4*%
%TO.N,GNDREF*%
X113665000Y-75565000D03*
%TO.P,U2,3*%
%TO.N,Net-(U1-Pad2)*%
X116205000Y-75565000D03*
%TO.P,U2,2*%
%TO.N,Net-(U1-Pad1)*%
X118745000Y-75565000D03*
%TO.P,U2,1*%
%TO.N,Net-(U2-Pad1)*%
X121285000Y-75565000D03*
%TD*%
D17*
%TO.P,U3,16*%
%TO.N,VCC*%
X118745000Y-83185000D03*
%TO.P,U3,8*%
%TO.N,GNDREF*%
X111125000Y-100965000D03*
%TO.P,U3,15*%
%TO.N,Net-(J1-Pad4)*%
X118745000Y-85725000D03*
%TO.P,U3,7*%
%TO.N,GNDREF*%
X111125000Y-98425000D03*
%TO.P,U3,14*%
%TO.N,Net-(J1-Pad3)*%
X118745000Y-88265000D03*
%TO.P,U3,6*%
%TO.N,GNDREF*%
X111125000Y-95885000D03*
%TO.P,U3,13*%
%TO.N,Net-(U1-Pad32)*%
X118745000Y-90805000D03*
%TO.P,U3,5*%
%TO.N,Net-(J1-Pad6)*%
X111125000Y-93345000D03*
%TO.P,U3,12*%
%TO.N,Net-(J1-Pad2)*%
X118745000Y-93345000D03*
%TO.P,U3,4*%
%TO.N,Net-(U3-Pad4)*%
X111125000Y-90805000D03*
%TO.P,U3,11*%
%TO.N,Net-(U3-Pad11)*%
X118745000Y-95885000D03*
%TO.P,U3,3*%
%TO.N,Net-(U1-Pad31)*%
X111125000Y-88265000D03*
%TO.P,U3,10*%
%TO.N,Net-(U1-Pad4)*%
X118745000Y-98425000D03*
%TO.P,U3,2*%
%TO.N,Net-(J1-Pad7)*%
X111125000Y-85725000D03*
%TO.P,U3,9*%
%TO.N,Net-(U1-Pad5)*%
X118745000Y-100965000D03*
D18*
%TO.P,U3,1*%
%TO.N,Net-(J1-Pad5)*%
X111125000Y-83185000D03*
%TD*%
D19*
%TO.P,SW1,2*%
%TO.N,GNDREF*%
X91440000Y-108530000D03*
%TO.P,SW1,1*%
%TO.N,Net-(SW1-Pad1)*%
X91440000Y-113030000D03*
%TO.P,SW1,2*%
%TO.N,GNDREF*%
X84940000Y-108530000D03*
%TO.P,SW1,1*%
%TO.N,Net-(SW1-Pad1)*%
X84940000Y-113030000D03*
%TD*%
D20*
%TO.P,H1,1*%
%TO.N,N/C*%
X78740000Y-55880000D03*
%TD*%
%TO.P,H2,1*%
%TO.N,N/C*%
X127000000Y-55880000D03*
%TD*%
%TO.P,H3,1*%
%TO.N,N/C*%
X78740000Y-114300000D03*
%TD*%
%TO.P,H4,1*%
%TO.N,N/C*%
X127000000Y-114300000D03*
%TD*%
D15*
%TO.P,R1,1*%
%TO.N,VCC*%
X121285000Y-113665000D03*
D14*
%TO.P,R1,2*%
%TO.N,Net-(J1-Pad2)*%
X121285000Y-108585000D03*
%TD*%
%TO.P,R2,2*%
%TO.N,Net-(J1-Pad3)*%
X118745000Y-108585000D03*
D15*
%TO.P,R2,1*%
%TO.N,VCC*%
X118745000Y-113665000D03*
%TD*%
%TO.P,R3,1*%
%TO.N,VCC*%
X116205000Y-113665000D03*
D14*
%TO.P,R3,2*%
%TO.N,Net-(J1-Pad4)*%
X116205000Y-108585000D03*
%TD*%
D15*
%TO.P,R4,1*%
%TO.N,VCC*%
X113665000Y-113665000D03*
D14*
%TO.P,R4,2*%
%TO.N,Net-(J1-Pad5)*%
X113665000Y-108585000D03*
%TD*%
%TO.P,R5,2*%
%TO.N,Net-(J1-Pad6)*%
X111125000Y-108585000D03*
D15*
%TO.P,R5,1*%
%TO.N,VCC*%
X111125000Y-113665000D03*
%TD*%
D21*
%TO.N,Net-(U1-Pad1)*%
X85090000Y-53975000D03*
X126365000Y-67945000D03*
%TO.N,Net-(U1-Pad2)*%
X85090000Y-56515000D03*
X123825000Y-67945000D03*
%TO.N,Net-(U1-Pad4)*%
X100330000Y-61595000D03*
%TO.N,Net-(U1-Pad5)*%
X101600705Y-64135705D03*
%TO.N,Net-(U1-Pad6)*%
X96520000Y-66675000D03*
%TO.N,Net-(U1-Pad7)*%
X99060000Y-69215000D03*
%TD*%
D22*
%TO.N,Net-(J1-Pad2)*%
X118745000Y-93345000D02*
X124142500Y-87947500D01*
X124142500Y-87947500D02*
X123825000Y-88265000D01*
X121285000Y-108585000D02*
X116840000Y-104140000D01*
X116840000Y-95250000D02*
X118745000Y-93345000D01*
X116840000Y-104140000D02*
X116840000Y-95250000D01*
X126365000Y-85725000D02*
X124142500Y-87947500D01*
X128905000Y-83185000D02*
X126365000Y-85725000D01*
X125095000Y-69215000D02*
X128905000Y-73025000D01*
X128905000Y-73025000D02*
X128905000Y-83185000D01*
X118110000Y-69215000D02*
X125095000Y-69215000D01*
%TO.N,Net-(J1-Pad3)*%
X116840000Y-66675000D02*
X116840000Y-66040000D01*
X118745000Y-108585000D02*
X116205000Y-106045000D01*
X116205000Y-106045000D02*
X116205000Y-90805000D01*
X116205000Y-90805000D02*
X118745000Y-88265000D01*
X123825000Y-83185000D02*
X118745000Y-88265000D01*
X116840000Y-66675000D02*
X116840000Y-69848590D01*
X116840000Y-69848590D02*
X117475705Y-70484295D01*
X117475705Y-70484295D02*
X123824295Y-70484295D01*
X123824295Y-70484295D02*
X127000000Y-73660000D01*
X127000000Y-80010000D02*
X123825000Y-83185000D01*
X127000000Y-73660000D02*
X127000000Y-80010000D01*
%TO.N,Net-(U1-Pad1)*%
X126365000Y-62554588D02*
X126365000Y-67945000D01*
X126365000Y-60325000D02*
X126365000Y-62554588D01*
X85090000Y-53975000D02*
X120015000Y-53975000D01*
X120015000Y-53975000D02*
X126365000Y-60325000D01*
%TO.N,Net-(U1-Pad2)*%
X118110000Y-56515000D02*
X85090000Y-56515000D01*
X121285000Y-56515000D02*
X118110000Y-56515000D01*
X123825000Y-59055000D02*
X121285000Y-56515000D01*
X123825000Y-67945000D02*
X123825000Y-59055000D01*
%TO.N,Net-(U1-Pad4)*%
X100330000Y-61595000D02*
X100330000Y-61595000D01*
X121920000Y-111760000D02*
X107315000Y-111760000D01*
X100330000Y-104775000D02*
X100330000Y-61595000D01*
X107315000Y-111760000D02*
X100330000Y-104775000D01*
X123190000Y-110490000D02*
X121920000Y-111760000D01*
X123190000Y-102870000D02*
X123190000Y-110490000D01*
X118745000Y-98425000D02*
X123190000Y-102870000D01*
%TO.N,Net-(U1-Pad5)*%
X101600705Y-64135705D02*
X101600705Y-64135705D01*
X101600705Y-105409295D02*
X101600705Y-64135705D01*
X121918590Y-111125000D02*
X107316410Y-111125000D01*
X122555000Y-110488590D02*
X121918590Y-111125000D01*
X122555000Y-104775000D02*
X122555000Y-110488590D01*
X107316410Y-111125000D02*
X101600705Y-105409295D01*
X118745000Y-100965000D02*
X122555000Y-104775000D01*
%TO.N,Net-(U1-Pad6)*%
X96520000Y-113030000D02*
X96520000Y-66675000D01*
X96520000Y-66675000D02*
X96520000Y-66675000D01*
%TO.N,Net-(U1-Pad7)*%
X99060000Y-113030000D02*
X99060000Y-69215000D01*
X99060000Y-69215000D02*
X99060000Y-69215000D01*
%TO.N,Net-(J1-Pad4)*%
X115570000Y-69215000D02*
X115117999Y-69667001D01*
X116205000Y-108585000D02*
X115570000Y-107950000D01*
X115570000Y-107950000D02*
X115570000Y-88900000D01*
X115570000Y-88900000D02*
X118745000Y-85725000D01*
X125095000Y-73660000D02*
X125095000Y-79375000D01*
X123190000Y-71755000D02*
X125095000Y-73660000D01*
X116840000Y-71755000D02*
X123190000Y-71755000D01*
X115570000Y-70485000D02*
X116840000Y-71755000D01*
X125095000Y-79375000D02*
X118745000Y-85725000D01*
X115570000Y-69215000D02*
X115570000Y-70485000D01*
%TO.N,Net-(J1-Pad5)*%
X111125000Y-83185000D02*
X104140000Y-76200000D01*
X104140000Y-107312180D02*
X107317820Y-110490000D01*
X104140000Y-76200000D02*
X104140000Y-107312180D01*
X111760000Y-110490000D02*
X113665000Y-108585000D01*
X107317820Y-110490000D02*
X111760000Y-110490000D01*
X113224999Y-65599999D02*
X107120001Y-65599999D01*
X107120001Y-65599999D02*
X104140000Y-68580000D01*
X114300000Y-66675000D02*
X113224999Y-65599999D01*
X104140000Y-76200000D02*
X104140000Y-68580000D01*
%TO.N,Net-(J1-Pad6)*%
X113351002Y-69215000D02*
X113030000Y-69215000D01*
X111125000Y-108585000D02*
X109220000Y-106680000D01*
X109220000Y-95250000D02*
X111125000Y-93345000D01*
X109220000Y-106680000D02*
X109220000Y-95250000D01*
X113665000Y-90805000D02*
X111125000Y-93345000D01*
X111946400Y-80194990D02*
X113665000Y-81913590D01*
X111944990Y-80194990D02*
X111946400Y-80194990D01*
X113665000Y-81913590D02*
X113665000Y-90805000D01*
X111758590Y-80008590D02*
X111944990Y-80194990D01*
X113030000Y-69215000D02*
X111760000Y-67945000D01*
X105410000Y-76197180D02*
X109221410Y-80008590D01*
X111760000Y-67945000D02*
X107315000Y-67945000D01*
X107315000Y-67945000D02*
X105410000Y-69850000D01*
X109221410Y-80008590D02*
X111758590Y-80008590D01*
X105410000Y-69850000D02*
X105410000Y-76197180D01*
%TO.N,Net-(J1-Pad7)*%
X108585000Y-88265000D02*
X108585000Y-108585000D01*
X111125000Y-85725000D02*
X108585000Y-88265000D01*
X111758590Y-80645000D02*
X111760000Y-80645000D01*
X108585705Y-80009295D02*
X109035010Y-80458600D01*
X113030000Y-83820000D02*
X111125000Y-85725000D01*
X104775705Y-76199295D02*
X108585705Y-80009295D01*
X109220705Y-80644295D02*
X109221410Y-80645000D01*
X108585705Y-80009295D02*
X109220705Y-80644295D01*
X113030000Y-81915000D02*
X113030000Y-83820000D01*
X111760000Y-80645000D02*
X113030000Y-81915000D01*
X110770002Y-80645000D02*
X111760000Y-80645000D01*
X110769297Y-80644295D02*
X110770002Y-80645000D01*
X109220705Y-80644295D02*
X110769297Y-80644295D01*
X107315000Y-66675000D02*
X104775705Y-69214295D01*
X111760000Y-66675000D02*
X107315000Y-66675000D01*
X104775705Y-69214295D02*
X104775705Y-76199295D01*
%TD*%
D23*
X127120703Y-52745000D02*
X126691229Y-52745000D01*
X126085554Y-52865476D01*
X125515021Y-53101799D01*
X125001554Y-53444886D01*
X124564886Y-53881554D01*
X124221799Y-54395021D01*
X123985476Y-54965554D01*
X123865000Y-55571229D01*
X123865000Y-56188771D01*
X123985476Y-56794446D01*
X124039378Y-56924576D01*
X120578804Y-53464003D01*
X120555001Y-53434999D01*
X120439276Y-53340026D01*
X120307247Y-53269454D01*
X120163986Y-53225997D01*
X120052333Y-53215000D01*
X120052322Y-53215000D01*
X120015000Y-53211324D01*
X119977678Y-53215000D01*
X85793711Y-53215000D01*
X85749774Y-53171063D01*
X85580256Y-53057795D01*
X85391898Y-52979774D01*
X85191939Y-52940000D01*
X84988061Y-52940000D01*
X84788102Y-52979774D01*
X84599744Y-53057795D01*
X84430226Y-53171063D01*
X84286063Y-53315226D01*
X84172795Y-53484744D01*
X84094774Y-53673102D01*
X84055000Y-53873061D01*
X84055000Y-54076939D01*
X84094774Y-54276898D01*
X84172795Y-54465256D01*
X84286063Y-54634774D01*
X84430226Y-54778937D01*
X84599744Y-54892205D01*
X84788102Y-54970226D01*
X84988061Y-55010000D01*
X85191939Y-55010000D01*
X85391898Y-54970226D01*
X85580256Y-54892205D01*
X85749774Y-54778937D01*
X85793711Y-54735000D01*
X119700199Y-54735000D01*
X120720199Y-55755000D01*
X85793711Y-55755000D01*
X85749774Y-55711063D01*
X85580256Y-55597795D01*
X85391898Y-55519774D01*
X85191939Y-55480000D01*
X84988061Y-55480000D01*
X84788102Y-55519774D01*
X84599744Y-55597795D01*
X84430226Y-55711063D01*
X84286063Y-55855226D01*
X84172795Y-56024744D01*
X84094774Y-56213102D01*
X84055000Y-56413061D01*
X84055000Y-56616939D01*
X84094774Y-56816898D01*
X84172795Y-57005256D01*
X84286063Y-57174774D01*
X84430226Y-57318937D01*
X84599744Y-57432205D01*
X84788102Y-57510226D01*
X84988061Y-57550000D01*
X85191939Y-57550000D01*
X85391898Y-57510226D01*
X85580256Y-57432205D01*
X85749774Y-57318937D01*
X85793711Y-57275000D01*
X120970199Y-57275000D01*
X123065001Y-59369804D01*
X123065000Y-67241289D01*
X123021063Y-67285226D01*
X122907795Y-67454744D01*
X122829774Y-67643102D01*
X122790000Y-67843061D01*
X122790000Y-68046939D01*
X122829774Y-68246898D01*
X122907795Y-68435256D01*
X122920987Y-68455000D01*
X119267909Y-68455000D01*
X119185799Y-68332114D01*
X118992886Y-68139201D01*
X118878951Y-68063072D01*
X120130000Y-68063072D01*
X120254482Y-68050812D01*
X120374180Y-68014502D01*
X120484494Y-67955537D01*
X120581185Y-67876185D01*
X120660537Y-67779494D01*
X120719502Y-67669180D01*
X120755812Y-67549482D01*
X120768072Y-67425000D01*
X120768072Y-65925000D01*
X120755812Y-65800518D01*
X120719502Y-65680820D01*
X120660537Y-65570506D01*
X120581185Y-65473815D01*
X120484494Y-65394463D01*
X120374180Y-65335498D01*
X120254482Y-65299188D01*
X120130000Y-65286928D01*
X118630000Y-65286928D01*
X118505518Y-65299188D01*
X118385820Y-65335498D01*
X118275506Y-65394463D01*
X118178815Y-65473815D01*
X118099463Y-65570506D01*
X118040498Y-65680820D01*
X118004188Y-65800518D01*
X117993555Y-65908483D01*
X117915799Y-65792114D01*
X117722886Y-65599201D01*
X117496043Y-65447629D01*
X117243989Y-65343225D01*
X117003392Y-65295367D01*
X116988986Y-65290997D01*
X116840000Y-65276323D01*
X116691015Y-65290997D01*
X116676611Y-65295366D01*
X116436011Y-65343225D01*
X116183957Y-65447629D01*
X115957114Y-65599201D01*
X115764201Y-65792114D01*
X115612629Y-66018957D01*
X115570000Y-66121873D01*
X115527371Y-66018957D01*
X115375799Y-65792114D01*
X115182886Y-65599201D01*
X114956043Y-65447629D01*
X114703989Y-65343225D01*
X114436411Y-65290000D01*
X114163589Y-65290000D01*
X114018635Y-65318833D01*
X113788803Y-65089001D01*
X113765000Y-65059998D01*
X113649275Y-64965025D01*
X113517246Y-64894453D01*
X113373985Y-64850996D01*
X113262332Y-64839999D01*
X113262321Y-64839999D01*
X113224999Y-64836323D01*
X113187677Y-64839999D01*
X107157324Y-64839999D01*
X107120001Y-64836323D01*
X107082678Y-64839999D01*
X107082668Y-64839999D01*
X106971015Y-64850996D01*
X106827754Y-64894453D01*
X106695725Y-64965025D01*
X106580000Y-65059998D01*
X106556202Y-65088996D01*
X103628998Y-68016201D01*
X103600000Y-68039999D01*
X103576202Y-68068997D01*
X103576201Y-68068998D01*
X103505026Y-68155724D01*
X103434454Y-68287754D01*
X103420998Y-68332114D01*
X103390998Y-68431014D01*
X103387552Y-68465998D01*
X103376324Y-68580000D01*
X103380001Y-68617332D01*
X103380000Y-76162667D01*
X103380000Y-76162678D01*
X103376324Y-76200000D01*
X103380000Y-76237322D01*
X103380001Y-106113790D01*
X102360705Y-105094494D01*
X102360705Y-64839416D01*
X102404642Y-64795479D01*
X102517910Y-64625961D01*
X102595931Y-64437603D01*
X102635705Y-64237644D01*
X102635705Y-64033766D01*
X102595931Y-63833807D01*
X102517910Y-63645449D01*
X102404642Y-63475931D01*
X102260479Y-63331768D01*
X102090961Y-63218500D01*
X101902603Y-63140479D01*
X101702644Y-63100705D01*
X101498766Y-63100705D01*
X101298807Y-63140479D01*
X101110449Y-63218500D01*
X101090000Y-63232164D01*
X101090000Y-62298711D01*
X101133937Y-62254774D01*
X101247205Y-62085256D01*
X101325226Y-61896898D01*
X101365000Y-61696939D01*
X101365000Y-61493061D01*
X101325226Y-61293102D01*
X101247205Y-61104744D01*
X101133937Y-60935226D01*
X100989774Y-60791063D01*
X100820256Y-60677795D01*
X100631898Y-60599774D01*
X100431939Y-60560000D01*
X100228061Y-60560000D01*
X100028102Y-60599774D01*
X99839744Y-60677795D01*
X99670226Y-60791063D01*
X99526063Y-60935226D01*
X99412795Y-61104744D01*
X99334774Y-61293102D01*
X99295000Y-61493061D01*
X99295000Y-61696939D01*
X99334774Y-61896898D01*
X99412795Y-62085256D01*
X99526063Y-62254774D01*
X99570001Y-62298712D01*
X99570001Y-68310988D01*
X99550256Y-68297795D01*
X99361898Y-68219774D01*
X99161939Y-68180000D01*
X98958061Y-68180000D01*
X98758102Y-68219774D01*
X98569744Y-68297795D01*
X98400226Y-68411063D01*
X98256063Y-68555226D01*
X98142795Y-68724744D01*
X98064774Y-68913102D01*
X98025000Y-69113061D01*
X98025000Y-69316939D01*
X98064774Y-69516898D01*
X98142795Y-69705256D01*
X98256063Y-69874774D01*
X98300001Y-69918712D01*
X98300000Y-111751822D01*
X98113368Y-111876525D01*
X97906525Y-112083368D01*
X97790000Y-112257760D01*
X97673475Y-112083368D01*
X97466632Y-111876525D01*
X97280000Y-111751822D01*
X97280000Y-67378711D01*
X97323937Y-67334774D01*
X97437205Y-67165256D01*
X97515226Y-66976898D01*
X97555000Y-66776939D01*
X97555000Y-66573061D01*
X97515226Y-66373102D01*
X97437205Y-66184744D01*
X97323937Y-66015226D01*
X97179774Y-65871063D01*
X97010256Y-65757795D01*
X96821898Y-65679774D01*
X96621939Y-65640000D01*
X96418061Y-65640000D01*
X96218102Y-65679774D01*
X96029744Y-65757795D01*
X95860226Y-65871063D01*
X95716063Y-66015226D01*
X95602795Y-66184744D01*
X95524774Y-66373102D01*
X95485000Y-66573061D01*
X95485000Y-66776939D01*
X95524774Y-66976898D01*
X95602795Y-67165256D01*
X95716063Y-67334774D01*
X95760001Y-67378712D01*
X95760000Y-111751822D01*
X95573368Y-111876525D01*
X95366525Y-112083368D01*
X95204010Y-112326589D01*
X95092068Y-112596842D01*
X95035000Y-112883740D01*
X95035000Y-113176260D01*
X95092068Y-113463158D01*
X95204010Y-113733411D01*
X95366525Y-113976632D01*
X95573368Y-114183475D01*
X95816589Y-114345990D01*
X96086842Y-114457932D01*
X96373740Y-114515000D01*
X96666260Y-114515000D01*
X96953158Y-114457932D01*
X97223411Y-114345990D01*
X97466632Y-114183475D01*
X97673475Y-113976632D01*
X97790000Y-113802240D01*
X97906525Y-113976632D01*
X98113368Y-114183475D01*
X98356589Y-114345990D01*
X98626842Y-114457932D01*
X98913740Y-114515000D01*
X99206260Y-114515000D01*
X99493158Y-114457932D01*
X99763411Y-114345990D01*
X100006632Y-114183475D01*
X100213475Y-113976632D01*
X100330000Y-113802240D01*
X100446525Y-113976632D01*
X100653368Y-114183475D01*
X100896589Y-114345990D01*
X101166842Y-114457932D01*
X101453740Y-114515000D01*
X101746260Y-114515000D01*
X102033158Y-114457932D01*
X102303411Y-114345990D01*
X102546632Y-114183475D01*
X102678487Y-114051620D01*
X102700498Y-114124180D01*
X102759463Y-114234494D01*
X102838815Y-114331185D01*
X102935506Y-114410537D01*
X103045820Y-114469502D01*
X103165518Y-114505812D01*
X103290000Y-114518072D01*
X104990000Y-114518072D01*
X105114482Y-114505812D01*
X105234180Y-114469502D01*
X105344494Y-114410537D01*
X105441185Y-114331185D01*
X105520537Y-114234494D01*
X105579502Y-114124180D01*
X105615812Y-114004482D01*
X105628072Y-113880000D01*
X105628072Y-112180000D01*
X105615812Y-112055518D01*
X105579502Y-111935820D01*
X105520537Y-111825506D01*
X105441185Y-111728815D01*
X105344494Y-111649463D01*
X105234180Y-111590498D01*
X105114482Y-111554188D01*
X104990000Y-111541928D01*
X103290000Y-111541928D01*
X103165518Y-111554188D01*
X103045820Y-111590498D01*
X102935506Y-111649463D01*
X102838815Y-111728815D01*
X102759463Y-111825506D01*
X102700498Y-111935820D01*
X102678487Y-112008380D01*
X102546632Y-111876525D01*
X102303411Y-111714010D01*
X102033158Y-111602068D01*
X101746260Y-111545000D01*
X101453740Y-111545000D01*
X101166842Y-111602068D01*
X100896589Y-111714010D01*
X100653368Y-111876525D01*
X100446525Y-112083368D01*
X100330000Y-112257760D01*
X100213475Y-112083368D01*
X100006632Y-111876525D01*
X99820000Y-111751822D01*
X99820000Y-105339801D01*
X106751201Y-112271003D01*
X106774999Y-112300001D01*
X106890724Y-112394974D01*
X107022753Y-112465546D01*
X107166014Y-112509003D01*
X107277667Y-112520000D01*
X107277675Y-112520000D01*
X107315000Y-112523676D01*
X107352325Y-112520000D01*
X107895678Y-112520000D01*
X107733987Y-112628038D01*
X107548038Y-112813987D01*
X107401939Y-113032641D01*
X107301304Y-113275595D01*
X107250000Y-113533514D01*
X107250000Y-113796486D01*
X107301304Y-114054405D01*
X107401939Y-114297359D01*
X107548038Y-114516013D01*
X107733987Y-114701962D01*
X107952641Y-114848061D01*
X108195595Y-114948696D01*
X108453514Y-115000000D01*
X108716486Y-115000000D01*
X108974405Y-114948696D01*
X109217359Y-114848061D01*
X109436013Y-114701962D01*
X109621962Y-114516013D01*
X109768061Y-114297359D01*
X109855000Y-114087470D01*
X109941939Y-114297359D01*
X110088038Y-114516013D01*
X110273987Y-114701962D01*
X110492641Y-114848061D01*
X110735595Y-114948696D01*
X110993514Y-115000000D01*
X111256486Y-115000000D01*
X111514405Y-114948696D01*
X111757359Y-114848061D01*
X111976013Y-114701962D01*
X112161962Y-114516013D01*
X112308061Y-114297359D01*
X112395000Y-114087470D01*
X112481939Y-114297359D01*
X112628038Y-114516013D01*
X112813987Y-114701962D01*
X113032641Y-114848061D01*
X113275595Y-114948696D01*
X113533514Y-115000000D01*
X113796486Y-115000000D01*
X114054405Y-114948696D01*
X114297359Y-114848061D01*
X114516013Y-114701962D01*
X114701962Y-114516013D01*
X114848061Y-114297359D01*
X114935000Y-114087470D01*
X115021939Y-114297359D01*
X115168038Y-114516013D01*
X115353987Y-114701962D01*
X115572641Y-114848061D01*
X115815595Y-114948696D01*
X116073514Y-115000000D01*
X116336486Y-115000000D01*
X116594405Y-114948696D01*
X116837359Y-114848061D01*
X117056013Y-114701962D01*
X117241962Y-114516013D01*
X117388061Y-114297359D01*
X117475000Y-114087470D01*
X117561939Y-114297359D01*
X117708038Y-114516013D01*
X117893987Y-114701962D01*
X118112641Y-114848061D01*
X118355595Y-114948696D01*
X118613514Y-115000000D01*
X118876486Y-115000000D01*
X119134405Y-114948696D01*
X119377359Y-114848061D01*
X119596013Y-114701962D01*
X119781962Y-114516013D01*
X119928061Y-114297359D01*
X120015000Y-114087470D01*
X120101939Y-114297359D01*
X120248038Y-114516013D01*
X120433987Y-114701962D01*
X120652641Y-114848061D01*
X120895595Y-114948696D01*
X121153514Y-115000000D01*
X121416486Y-115000000D01*
X121674405Y-114948696D01*
X121917359Y-114848061D01*
X122136013Y-114701962D01*
X122321962Y-114516013D01*
X122468061Y-114297359D01*
X122568696Y-114054405D01*
X122620000Y-113796486D01*
X122620000Y-113533514D01*
X122568696Y-113275595D01*
X122468061Y-113032641D01*
X122321962Y-112813987D01*
X122136013Y-112628038D01*
X121972139Y-112518542D01*
X122068986Y-112509003D01*
X122212247Y-112465546D01*
X122344276Y-112394974D01*
X122460001Y-112300001D01*
X122483804Y-112270997D01*
X123701003Y-111053799D01*
X123730001Y-111030001D01*
X123824974Y-110914276D01*
X123895546Y-110782247D01*
X123939003Y-110638986D01*
X123950000Y-110527333D01*
X123950000Y-110527324D01*
X123953676Y-110490001D01*
X123950000Y-110452678D01*
X123950000Y-102907322D01*
X123953676Y-102869999D01*
X123950000Y-102832676D01*
X123950000Y-102832667D01*
X123939003Y-102721014D01*
X123895546Y-102577753D01*
X123824974Y-102445724D01*
X123730001Y-102329999D01*
X123701004Y-102306202D01*
X120143688Y-98748887D01*
X120180000Y-98566335D01*
X120180000Y-98283665D01*
X120124853Y-98006426D01*
X120016680Y-97745273D01*
X119859637Y-97510241D01*
X119659759Y-97310363D01*
X119427241Y-97155000D01*
X119659759Y-96999637D01*
X119859637Y-96799759D01*
X120016680Y-96564727D01*
X120124853Y-96303574D01*
X120180000Y-96026335D01*
X120180000Y-95743665D01*
X120124853Y-95466426D01*
X120016680Y-95205273D01*
X119859637Y-94970241D01*
X119659759Y-94770363D01*
X119427241Y-94615000D01*
X119659759Y-94459637D01*
X119859637Y-94259759D01*
X120016680Y-94024727D01*
X120124853Y-93763574D01*
X120180000Y-93486335D01*
X120180000Y-93203665D01*
X120143688Y-93021113D01*
X124706299Y-88458503D01*
X124706303Y-88458498D01*
X126928799Y-86236003D01*
X126928803Y-86235998D01*
X129416008Y-83748795D01*
X129445001Y-83725001D01*
X129468795Y-83696008D01*
X129468799Y-83696004D01*
X129539973Y-83609277D01*
X129539974Y-83609276D01*
X129610546Y-83477247D01*
X129654003Y-83333986D01*
X129665000Y-83222333D01*
X129665000Y-83222324D01*
X129668676Y-83185001D01*
X129665000Y-83147678D01*
X129665000Y-73062325D01*
X129668676Y-73025000D01*
X129665000Y-72987675D01*
X129665000Y-72987667D01*
X129654003Y-72876014D01*
X129610546Y-72732753D01*
X129539974Y-72600724D01*
X129445001Y-72484999D01*
X129416004Y-72461202D01*
X125658804Y-68704003D01*
X125651994Y-68695705D01*
X125705226Y-68748937D01*
X125874744Y-68862205D01*
X126063102Y-68940226D01*
X126263061Y-68980000D01*
X126466939Y-68980000D01*
X126666898Y-68940226D01*
X126855256Y-68862205D01*
X127024774Y-68748937D01*
X127168937Y-68604774D01*
X127282205Y-68435256D01*
X127360226Y-68246898D01*
X127400000Y-68046939D01*
X127400000Y-67843061D01*
X127360226Y-67643102D01*
X127282205Y-67454744D01*
X127168937Y-67285226D01*
X127125000Y-67241289D01*
X127125000Y-60362322D01*
X127128676Y-60324999D01*
X127125000Y-60287676D01*
X127125000Y-60287667D01*
X127114003Y-60176014D01*
X127070546Y-60032753D01*
X126999975Y-59900725D01*
X126999974Y-59900723D01*
X126928799Y-59813997D01*
X126905001Y-59784999D01*
X126876004Y-59761202D01*
X125955424Y-58840622D01*
X126085554Y-58894524D01*
X126691229Y-59015000D01*
X127308771Y-59015000D01*
X127914446Y-58894524D01*
X128484979Y-58658201D01*
X128998446Y-58315114D01*
X129435114Y-57878446D01*
X129778201Y-57364979D01*
X130014524Y-56794446D01*
X130135000Y-56188771D01*
X130135000Y-55746161D01*
X130150000Y-55888879D01*
X130150001Y-114267711D01*
X130135000Y-114420703D01*
X130135000Y-113991229D01*
X130014524Y-113385554D01*
X129778201Y-112815021D01*
X129435114Y-112301554D01*
X128998446Y-111864886D01*
X128484979Y-111521799D01*
X127914446Y-111285476D01*
X127308771Y-111165000D01*
X126691229Y-111165000D01*
X126085554Y-111285476D01*
X125515021Y-111521799D01*
X125001554Y-111864886D01*
X124564886Y-112301554D01*
X124221799Y-112815021D01*
X123985476Y-113385554D01*
X123865000Y-113991229D01*
X123865000Y-114608771D01*
X123985476Y-115214446D01*
X124221799Y-115784979D01*
X124564886Y-116298446D01*
X125001554Y-116735114D01*
X125515021Y-117078201D01*
X126085554Y-117314524D01*
X126691229Y-117435000D01*
X127133846Y-117435000D01*
X126991130Y-117450000D01*
X78772279Y-117450000D01*
X78619297Y-117435000D01*
X79048771Y-117435000D01*
X79654446Y-117314524D01*
X80224979Y-117078201D01*
X80738446Y-116735114D01*
X81175114Y-116298446D01*
X81518201Y-115784979D01*
X81754524Y-115214446D01*
X81875000Y-114608771D01*
X81875000Y-113991229D01*
X81754524Y-113385554D01*
X81540547Y-112868967D01*
X83305000Y-112868967D01*
X83305000Y-113191033D01*
X83367832Y-113506912D01*
X83491082Y-113804463D01*
X83670013Y-114072252D01*
X83897748Y-114299987D01*
X84165537Y-114478918D01*
X84463088Y-114602168D01*
X84778967Y-114665000D01*
X85101033Y-114665000D01*
X85416912Y-114602168D01*
X85714463Y-114478918D01*
X85982252Y-114299987D01*
X86209987Y-114072252D01*
X86388918Y-113804463D01*
X86512168Y-113506912D01*
X86575000Y-113191033D01*
X86575000Y-112868967D01*
X89805000Y-112868967D01*
X89805000Y-113191033D01*
X89867832Y-113506912D01*
X89991082Y-113804463D01*
X90170013Y-114072252D01*
X90397748Y-114299987D01*
X90665537Y-114478918D01*
X90963088Y-114602168D01*
X91278967Y-114665000D01*
X91601033Y-114665000D01*
X91916912Y-114602168D01*
X92214463Y-114478918D01*
X92482252Y-114299987D01*
X92709987Y-114072252D01*
X92888918Y-113804463D01*
X93012168Y-113506912D01*
X93075000Y-113191033D01*
X93075000Y-112868967D01*
X93012168Y-112553088D01*
X92888918Y-112255537D01*
X92709987Y-111987748D01*
X92482252Y-111760013D01*
X92214463Y-111581082D01*
X91916912Y-111457832D01*
X91601033Y-111395000D01*
X91278967Y-111395000D01*
X90963088Y-111457832D01*
X90665537Y-111581082D01*
X90397748Y-111760013D01*
X90170013Y-111987748D01*
X89991082Y-112255537D01*
X89867832Y-112553088D01*
X89805000Y-112868967D01*
X86575000Y-112868967D01*
X86512168Y-112553088D01*
X86388918Y-112255537D01*
X86209987Y-111987748D01*
X85982252Y-111760013D01*
X85714463Y-111581082D01*
X85416912Y-111457832D01*
X85101033Y-111395000D01*
X84778967Y-111395000D01*
X84463088Y-111457832D01*
X84165537Y-111581082D01*
X83897748Y-111760013D01*
X83670013Y-111987748D01*
X83491082Y-112255537D01*
X83367832Y-112553088D01*
X83305000Y-112868967D01*
X81540547Y-112868967D01*
X81518201Y-112815021D01*
X81175114Y-112301554D01*
X80738446Y-111864886D01*
X80224979Y-111521799D01*
X79654446Y-111285476D01*
X79048771Y-111165000D01*
X78431229Y-111165000D01*
X77825554Y-111285476D01*
X77255021Y-111521799D01*
X76741554Y-111864886D01*
X76304886Y-112301554D01*
X75961799Y-112815021D01*
X75725476Y-113385554D01*
X75605000Y-113991229D01*
X75605000Y-114433846D01*
X75590000Y-114291130D01*
X75590000Y-108368967D01*
X83305000Y-108368967D01*
X83305000Y-108691033D01*
X83367832Y-109006912D01*
X83491082Y-109304463D01*
X83670013Y-109572252D01*
X83897748Y-109799987D01*
X84165537Y-109978918D01*
X84463088Y-110102168D01*
X84778967Y-110165000D01*
X85101033Y-110165000D01*
X85416912Y-110102168D01*
X85714463Y-109978918D01*
X85982252Y-109799987D01*
X86209987Y-109572252D01*
X86388918Y-109304463D01*
X86512168Y-109006912D01*
X86575000Y-108691033D01*
X86575000Y-108368967D01*
X89805000Y-108368967D01*
X89805000Y-108691033D01*
X89867832Y-109006912D01*
X89991082Y-109304463D01*
X90170013Y-109572252D01*
X90397748Y-109799987D01*
X90665537Y-109978918D01*
X90963088Y-110102168D01*
X91278967Y-110165000D01*
X91601033Y-110165000D01*
X91916912Y-110102168D01*
X92214463Y-109978918D01*
X92482252Y-109799987D01*
X92709987Y-109572252D01*
X92888918Y-109304463D01*
X93012168Y-109006912D01*
X93075000Y-108691033D01*
X93075000Y-108368967D01*
X93012168Y-108053088D01*
X92888918Y-107755537D01*
X92709987Y-107487748D01*
X92482252Y-107260013D01*
X92214463Y-107081082D01*
X91916912Y-106957832D01*
X91601033Y-106895000D01*
X91278967Y-106895000D01*
X90963088Y-106957832D01*
X90665537Y-107081082D01*
X90397748Y-107260013D01*
X90170013Y-107487748D01*
X89991082Y-107755537D01*
X89867832Y-108053088D01*
X89805000Y-108368967D01*
X86575000Y-108368967D01*
X86512168Y-108053088D01*
X86388918Y-107755537D01*
X86209987Y-107487748D01*
X85982252Y-107260013D01*
X85714463Y-107081082D01*
X85416912Y-106957832D01*
X85101033Y-106895000D01*
X84778967Y-106895000D01*
X84463088Y-106957832D01*
X84165537Y-107081082D01*
X83897748Y-107260013D01*
X83670013Y-107487748D01*
X83491082Y-107755537D01*
X83367832Y-108053088D01*
X83305000Y-108368967D01*
X75590000Y-108368967D01*
X75590000Y-60104872D01*
X106985000Y-60104872D01*
X106985000Y-60545128D01*
X107070890Y-60976925D01*
X107239369Y-61383669D01*
X107483962Y-61749729D01*
X107795271Y-62061038D01*
X108161331Y-62305631D01*
X108568075Y-62474110D01*
X108999872Y-62560000D01*
X109440128Y-62560000D01*
X109871925Y-62474110D01*
X110278669Y-62305631D01*
X110644729Y-62061038D01*
X110956038Y-61749729D01*
X111200631Y-61383669D01*
X111369110Y-60976925D01*
X111455000Y-60545128D01*
X111455000Y-60104872D01*
X118415000Y-60104872D01*
X118415000Y-60545128D01*
X118500890Y-60976925D01*
X118669369Y-61383669D01*
X118913962Y-61749729D01*
X119225271Y-62061038D01*
X119591331Y-62305631D01*
X119998075Y-62474110D01*
X120429872Y-62560000D01*
X120870128Y-62560000D01*
X121301925Y-62474110D01*
X121708669Y-62305631D01*
X122074729Y-62061038D01*
X122386038Y-61749729D01*
X122630631Y-61383669D01*
X122799110Y-60976925D01*
X122885000Y-60545128D01*
X122885000Y-60104872D01*
X122799110Y-59673075D01*
X122630631Y-59266331D01*
X122386038Y-58900271D01*
X122074729Y-58588962D01*
X121708669Y-58344369D01*
X121301925Y-58175890D01*
X120870128Y-58090000D01*
X120429872Y-58090000D01*
X119998075Y-58175890D01*
X119591331Y-58344369D01*
X119225271Y-58588962D01*
X118913962Y-58900271D01*
X118669369Y-59266331D01*
X118500890Y-59673075D01*
X118415000Y-60104872D01*
X111455000Y-60104872D01*
X111369110Y-59673075D01*
X111200631Y-59266331D01*
X110956038Y-58900271D01*
X110644729Y-58588962D01*
X110278669Y-58344369D01*
X109871925Y-58175890D01*
X109440128Y-58090000D01*
X108999872Y-58090000D01*
X108568075Y-58175890D01*
X108161331Y-58344369D01*
X107795271Y-58588962D01*
X107483962Y-58900271D01*
X107239369Y-59266331D01*
X107070890Y-59673075D01*
X106985000Y-60104872D01*
X75590000Y-60104872D01*
X75590000Y-55912279D01*
X75605000Y-55759297D01*
X75605000Y-56188771D01*
X75725476Y-56794446D01*
X75961799Y-57364979D01*
X76304886Y-57878446D01*
X76741554Y-58315114D01*
X77255021Y-58658201D01*
X77825554Y-58894524D01*
X78431229Y-59015000D01*
X79048771Y-59015000D01*
X79654446Y-58894524D01*
X80224979Y-58658201D01*
X80738446Y-58315114D01*
X81175114Y-57878446D01*
X81518201Y-57364979D01*
X81754524Y-56794446D01*
X81875000Y-56188771D01*
X81875000Y-55571229D01*
X81754524Y-54965554D01*
X81518201Y-54395021D01*
X81175114Y-53881554D01*
X80738446Y-53444886D01*
X80224979Y-53101799D01*
X79654446Y-52865476D01*
X79048771Y-52745000D01*
X78606161Y-52745000D01*
X78748879Y-52730000D01*
X126967721Y-52730000D01*
X127120703Y-52745000D01*
%TA.AperFunction,NonConductor*%
D24*
G36*
X127120703Y-52745000D02*
G01*
X126691229Y-52745000D01*
X126085554Y-52865476D01*
X125515021Y-53101799D01*
X125001554Y-53444886D01*
X124564886Y-53881554D01*
X124221799Y-54395021D01*
X123985476Y-54965554D01*
X123865000Y-55571229D01*
X123865000Y-56188771D01*
X123985476Y-56794446D01*
X124039378Y-56924576D01*
X120578804Y-53464003D01*
X120555001Y-53434999D01*
X120439276Y-53340026D01*
X120307247Y-53269454D01*
X120163986Y-53225997D01*
X120052333Y-53215000D01*
X120052322Y-53215000D01*
X120015000Y-53211324D01*
X119977678Y-53215000D01*
X85793711Y-53215000D01*
X85749774Y-53171063D01*
X85580256Y-53057795D01*
X85391898Y-52979774D01*
X85191939Y-52940000D01*
X84988061Y-52940000D01*
X84788102Y-52979774D01*
X84599744Y-53057795D01*
X84430226Y-53171063D01*
X84286063Y-53315226D01*
X84172795Y-53484744D01*
X84094774Y-53673102D01*
X84055000Y-53873061D01*
X84055000Y-54076939D01*
X84094774Y-54276898D01*
X84172795Y-54465256D01*
X84286063Y-54634774D01*
X84430226Y-54778937D01*
X84599744Y-54892205D01*
X84788102Y-54970226D01*
X84988061Y-55010000D01*
X85191939Y-55010000D01*
X85391898Y-54970226D01*
X85580256Y-54892205D01*
X85749774Y-54778937D01*
X85793711Y-54735000D01*
X119700199Y-54735000D01*
X120720199Y-55755000D01*
X85793711Y-55755000D01*
X85749774Y-55711063D01*
X85580256Y-55597795D01*
X85391898Y-55519774D01*
X85191939Y-55480000D01*
X84988061Y-55480000D01*
X84788102Y-55519774D01*
X84599744Y-55597795D01*
X84430226Y-55711063D01*
X84286063Y-55855226D01*
X84172795Y-56024744D01*
X84094774Y-56213102D01*
X84055000Y-56413061D01*
X84055000Y-56616939D01*
X84094774Y-56816898D01*
X84172795Y-57005256D01*
X84286063Y-57174774D01*
X84430226Y-57318937D01*
X84599744Y-57432205D01*
X84788102Y-57510226D01*
X84988061Y-57550000D01*
X85191939Y-57550000D01*
X85391898Y-57510226D01*
X85580256Y-57432205D01*
X85749774Y-57318937D01*
X85793711Y-57275000D01*
X120970199Y-57275000D01*
X123065001Y-59369804D01*
X123065000Y-67241289D01*
X123021063Y-67285226D01*
X122907795Y-67454744D01*
X122829774Y-67643102D01*
X122790000Y-67843061D01*
X122790000Y-68046939D01*
X122829774Y-68246898D01*
X122907795Y-68435256D01*
X122920987Y-68455000D01*
X119267909Y-68455000D01*
X119185799Y-68332114D01*
X118992886Y-68139201D01*
X118878951Y-68063072D01*
X120130000Y-68063072D01*
X120254482Y-68050812D01*
X120374180Y-68014502D01*
X120484494Y-67955537D01*
X120581185Y-67876185D01*
X120660537Y-67779494D01*
X120719502Y-67669180D01*
X120755812Y-67549482D01*
X120768072Y-67425000D01*
X120768072Y-65925000D01*
X120755812Y-65800518D01*
X120719502Y-65680820D01*
X120660537Y-65570506D01*
X120581185Y-65473815D01*
X120484494Y-65394463D01*
X120374180Y-65335498D01*
X120254482Y-65299188D01*
X120130000Y-65286928D01*
X118630000Y-65286928D01*
X118505518Y-65299188D01*
X118385820Y-65335498D01*
X118275506Y-65394463D01*
X118178815Y-65473815D01*
X118099463Y-65570506D01*
X118040498Y-65680820D01*
X118004188Y-65800518D01*
X117993555Y-65908483D01*
X117915799Y-65792114D01*
X117722886Y-65599201D01*
X117496043Y-65447629D01*
X117243989Y-65343225D01*
X117003392Y-65295367D01*
X116988986Y-65290997D01*
X116840000Y-65276323D01*
X116691015Y-65290997D01*
X116676611Y-65295366D01*
X116436011Y-65343225D01*
X116183957Y-65447629D01*
X115957114Y-65599201D01*
X115764201Y-65792114D01*
X115612629Y-66018957D01*
X115570000Y-66121873D01*
X115527371Y-66018957D01*
X115375799Y-65792114D01*
X115182886Y-65599201D01*
X114956043Y-65447629D01*
X114703989Y-65343225D01*
X114436411Y-65290000D01*
X114163589Y-65290000D01*
X114018635Y-65318833D01*
X113788803Y-65089001D01*
X113765000Y-65059998D01*
X113649275Y-64965025D01*
X113517246Y-64894453D01*
X113373985Y-64850996D01*
X113262332Y-64839999D01*
X113262321Y-64839999D01*
X113224999Y-64836323D01*
X113187677Y-64839999D01*
X107157324Y-64839999D01*
X107120001Y-64836323D01*
X107082678Y-64839999D01*
X107082668Y-64839999D01*
X106971015Y-64850996D01*
X106827754Y-64894453D01*
X106695725Y-64965025D01*
X106580000Y-65059998D01*
X106556202Y-65088996D01*
X103628998Y-68016201D01*
X103600000Y-68039999D01*
X103576202Y-68068997D01*
X103576201Y-68068998D01*
X103505026Y-68155724D01*
X103434454Y-68287754D01*
X103420998Y-68332114D01*
X103390998Y-68431014D01*
X103387552Y-68465998D01*
X103376324Y-68580000D01*
X103380001Y-68617332D01*
X103380000Y-76162667D01*
X103380000Y-76162678D01*
X103376324Y-76200000D01*
X103380000Y-76237322D01*
X103380001Y-106113790D01*
X102360705Y-105094494D01*
X102360705Y-64839416D01*
X102404642Y-64795479D01*
X102517910Y-64625961D01*
X102595931Y-64437603D01*
X102635705Y-64237644D01*
X102635705Y-64033766D01*
X102595931Y-63833807D01*
X102517910Y-63645449D01*
X102404642Y-63475931D01*
X102260479Y-63331768D01*
X102090961Y-63218500D01*
X101902603Y-63140479D01*
X101702644Y-63100705D01*
X101498766Y-63100705D01*
X101298807Y-63140479D01*
X101110449Y-63218500D01*
X101090000Y-63232164D01*
X101090000Y-62298711D01*
X101133937Y-62254774D01*
X101247205Y-62085256D01*
X101325226Y-61896898D01*
X101365000Y-61696939D01*
X101365000Y-61493061D01*
X101325226Y-61293102D01*
X101247205Y-61104744D01*
X101133937Y-60935226D01*
X100989774Y-60791063D01*
X100820256Y-60677795D01*
X100631898Y-60599774D01*
X100431939Y-60560000D01*
X100228061Y-60560000D01*
X100028102Y-60599774D01*
X99839744Y-60677795D01*
X99670226Y-60791063D01*
X99526063Y-60935226D01*
X99412795Y-61104744D01*
X99334774Y-61293102D01*
X99295000Y-61493061D01*
X99295000Y-61696939D01*
X99334774Y-61896898D01*
X99412795Y-62085256D01*
X99526063Y-62254774D01*
X99570001Y-62298712D01*
X99570001Y-68310988D01*
X99550256Y-68297795D01*
X99361898Y-68219774D01*
X99161939Y-68180000D01*
X98958061Y-68180000D01*
X98758102Y-68219774D01*
X98569744Y-68297795D01*
X98400226Y-68411063D01*
X98256063Y-68555226D01*
X98142795Y-68724744D01*
X98064774Y-68913102D01*
X98025000Y-69113061D01*
X98025000Y-69316939D01*
X98064774Y-69516898D01*
X98142795Y-69705256D01*
X98256063Y-69874774D01*
X98300001Y-69918712D01*
X98300000Y-111751822D01*
X98113368Y-111876525D01*
X97906525Y-112083368D01*
X97790000Y-112257760D01*
X97673475Y-112083368D01*
X97466632Y-111876525D01*
X97280000Y-111751822D01*
X97280000Y-67378711D01*
X97323937Y-67334774D01*
X97437205Y-67165256D01*
X97515226Y-66976898D01*
X97555000Y-66776939D01*
X97555000Y-66573061D01*
X97515226Y-66373102D01*
X97437205Y-66184744D01*
X97323937Y-66015226D01*
X97179774Y-65871063D01*
X97010256Y-65757795D01*
X96821898Y-65679774D01*
X96621939Y-65640000D01*
X96418061Y-65640000D01*
X96218102Y-65679774D01*
X96029744Y-65757795D01*
X95860226Y-65871063D01*
X95716063Y-66015226D01*
X95602795Y-66184744D01*
X95524774Y-66373102D01*
X95485000Y-66573061D01*
X95485000Y-66776939D01*
X95524774Y-66976898D01*
X95602795Y-67165256D01*
X95716063Y-67334774D01*
X95760001Y-67378712D01*
X95760000Y-111751822D01*
X95573368Y-111876525D01*
X95366525Y-112083368D01*
X95204010Y-112326589D01*
X95092068Y-112596842D01*
X95035000Y-112883740D01*
X95035000Y-113176260D01*
X95092068Y-113463158D01*
X95204010Y-113733411D01*
X95366525Y-113976632D01*
X95573368Y-114183475D01*
X95816589Y-114345990D01*
X96086842Y-114457932D01*
X96373740Y-114515000D01*
X96666260Y-114515000D01*
X96953158Y-114457932D01*
X97223411Y-114345990D01*
X97466632Y-114183475D01*
X97673475Y-113976632D01*
X97790000Y-113802240D01*
X97906525Y-113976632D01*
X98113368Y-114183475D01*
X98356589Y-114345990D01*
X98626842Y-114457932D01*
X98913740Y-114515000D01*
X99206260Y-114515000D01*
X99493158Y-114457932D01*
X99763411Y-114345990D01*
X100006632Y-114183475D01*
X100213475Y-113976632D01*
X100330000Y-113802240D01*
X100446525Y-113976632D01*
X100653368Y-114183475D01*
X100896589Y-114345990D01*
X101166842Y-114457932D01*
X101453740Y-114515000D01*
X101746260Y-114515000D01*
X102033158Y-114457932D01*
X102303411Y-114345990D01*
X102546632Y-114183475D01*
X102678487Y-114051620D01*
X102700498Y-114124180D01*
X102759463Y-114234494D01*
X102838815Y-114331185D01*
X102935506Y-114410537D01*
X103045820Y-114469502D01*
X103165518Y-114505812D01*
X103290000Y-114518072D01*
X104990000Y-114518072D01*
X105114482Y-114505812D01*
X105234180Y-114469502D01*
X105344494Y-114410537D01*
X105441185Y-114331185D01*
X105520537Y-114234494D01*
X105579502Y-114124180D01*
X105615812Y-114004482D01*
X105628072Y-113880000D01*
X105628072Y-112180000D01*
X105615812Y-112055518D01*
X105579502Y-111935820D01*
X105520537Y-111825506D01*
X105441185Y-111728815D01*
X105344494Y-111649463D01*
X105234180Y-111590498D01*
X105114482Y-111554188D01*
X104990000Y-111541928D01*
X103290000Y-111541928D01*
X103165518Y-111554188D01*
X103045820Y-111590498D01*
X102935506Y-111649463D01*
X102838815Y-111728815D01*
X102759463Y-111825506D01*
X102700498Y-111935820D01*
X102678487Y-112008380D01*
X102546632Y-111876525D01*
X102303411Y-111714010D01*
X102033158Y-111602068D01*
X101746260Y-111545000D01*
X101453740Y-111545000D01*
X101166842Y-111602068D01*
X100896589Y-111714010D01*
X100653368Y-111876525D01*
X100446525Y-112083368D01*
X100330000Y-112257760D01*
X100213475Y-112083368D01*
X100006632Y-111876525D01*
X99820000Y-111751822D01*
X99820000Y-105339801D01*
X106751201Y-112271003D01*
X106774999Y-112300001D01*
X106890724Y-112394974D01*
X107022753Y-112465546D01*
X107166014Y-112509003D01*
X107277667Y-112520000D01*
X107277675Y-112520000D01*
X107315000Y-112523676D01*
X107352325Y-112520000D01*
X107895678Y-112520000D01*
X107733987Y-112628038D01*
X107548038Y-112813987D01*
X107401939Y-113032641D01*
X107301304Y-113275595D01*
X107250000Y-113533514D01*
X107250000Y-113796486D01*
X107301304Y-114054405D01*
X107401939Y-114297359D01*
X107548038Y-114516013D01*
X107733987Y-114701962D01*
X107952641Y-114848061D01*
X108195595Y-114948696D01*
X108453514Y-115000000D01*
X108716486Y-115000000D01*
X108974405Y-114948696D01*
X109217359Y-114848061D01*
X109436013Y-114701962D01*
X109621962Y-114516013D01*
X109768061Y-114297359D01*
X109855000Y-114087470D01*
X109941939Y-114297359D01*
X110088038Y-114516013D01*
X110273987Y-114701962D01*
X110492641Y-114848061D01*
X110735595Y-114948696D01*
X110993514Y-115000000D01*
X111256486Y-115000000D01*
X111514405Y-114948696D01*
X111757359Y-114848061D01*
X111976013Y-114701962D01*
X112161962Y-114516013D01*
X112308061Y-114297359D01*
X112395000Y-114087470D01*
X112481939Y-114297359D01*
X112628038Y-114516013D01*
X112813987Y-114701962D01*
X113032641Y-114848061D01*
X113275595Y-114948696D01*
X113533514Y-115000000D01*
X113796486Y-115000000D01*
X114054405Y-114948696D01*
X114297359Y-114848061D01*
X114516013Y-114701962D01*
X114701962Y-114516013D01*
X114848061Y-114297359D01*
X114935000Y-114087470D01*
X115021939Y-114297359D01*
X115168038Y-114516013D01*
X115353987Y-114701962D01*
X115572641Y-114848061D01*
X115815595Y-114948696D01*
X116073514Y-115000000D01*
X116336486Y-115000000D01*
X116594405Y-114948696D01*
X116837359Y-114848061D01*
X117056013Y-114701962D01*
X117241962Y-114516013D01*
X117388061Y-114297359D01*
X117475000Y-114087470D01*
X117561939Y-114297359D01*
X117708038Y-114516013D01*
X117893987Y-114701962D01*
X118112641Y-114848061D01*
X118355595Y-114948696D01*
X118613514Y-115000000D01*
X118876486Y-115000000D01*
X119134405Y-114948696D01*
X119377359Y-114848061D01*
X119596013Y-114701962D01*
X119781962Y-114516013D01*
X119928061Y-114297359D01*
X120015000Y-114087470D01*
X120101939Y-114297359D01*
X120248038Y-114516013D01*
X120433987Y-114701962D01*
X120652641Y-114848061D01*
X120895595Y-114948696D01*
X121153514Y-115000000D01*
X121416486Y-115000000D01*
X121674405Y-114948696D01*
X121917359Y-114848061D01*
X122136013Y-114701962D01*
X122321962Y-114516013D01*
X122468061Y-114297359D01*
X122568696Y-114054405D01*
X122620000Y-113796486D01*
X122620000Y-113533514D01*
X122568696Y-113275595D01*
X122468061Y-113032641D01*
X122321962Y-112813987D01*
X122136013Y-112628038D01*
X121972139Y-112518542D01*
X122068986Y-112509003D01*
X122212247Y-112465546D01*
X122344276Y-112394974D01*
X122460001Y-112300001D01*
X122483804Y-112270997D01*
X123701003Y-111053799D01*
X123730001Y-111030001D01*
X123824974Y-110914276D01*
X123895546Y-110782247D01*
X123939003Y-110638986D01*
X123950000Y-110527333D01*
X123950000Y-110527324D01*
X123953676Y-110490001D01*
X123950000Y-110452678D01*
X123950000Y-102907322D01*
X123953676Y-102869999D01*
X123950000Y-102832676D01*
X123950000Y-102832667D01*
X123939003Y-102721014D01*
X123895546Y-102577753D01*
X123824974Y-102445724D01*
X123730001Y-102329999D01*
X123701004Y-102306202D01*
X120143688Y-98748887D01*
X120180000Y-98566335D01*
X120180000Y-98283665D01*
X120124853Y-98006426D01*
X120016680Y-97745273D01*
X119859637Y-97510241D01*
X119659759Y-97310363D01*
X119427241Y-97155000D01*
X119659759Y-96999637D01*
X119859637Y-96799759D01*
X120016680Y-96564727D01*
X120124853Y-96303574D01*
X120180000Y-96026335D01*
X120180000Y-95743665D01*
X120124853Y-95466426D01*
X120016680Y-95205273D01*
X119859637Y-94970241D01*
X119659759Y-94770363D01*
X119427241Y-94615000D01*
X119659759Y-94459637D01*
X119859637Y-94259759D01*
X120016680Y-94024727D01*
X120124853Y-93763574D01*
X120180000Y-93486335D01*
X120180000Y-93203665D01*
X120143688Y-93021113D01*
X124706299Y-88458503D01*
X124706303Y-88458498D01*
X126928799Y-86236003D01*
X126928803Y-86235998D01*
X129416008Y-83748795D01*
X129445001Y-83725001D01*
X129468795Y-83696008D01*
X129468799Y-83696004D01*
X129539973Y-83609277D01*
X129539974Y-83609276D01*
X129610546Y-83477247D01*
X129654003Y-83333986D01*
X129665000Y-83222333D01*
X129665000Y-83222324D01*
X129668676Y-83185001D01*
X129665000Y-83147678D01*
X129665000Y-73062325D01*
X129668676Y-73025000D01*
X129665000Y-72987675D01*
X129665000Y-72987667D01*
X129654003Y-72876014D01*
X129610546Y-72732753D01*
X129539974Y-72600724D01*
X129445001Y-72484999D01*
X129416004Y-72461202D01*
X125658804Y-68704003D01*
X125651994Y-68695705D01*
X125705226Y-68748937D01*
X125874744Y-68862205D01*
X126063102Y-68940226D01*
X126263061Y-68980000D01*
X126466939Y-68980000D01*
X126666898Y-68940226D01*
X126855256Y-68862205D01*
X127024774Y-68748937D01*
X127168937Y-68604774D01*
X127282205Y-68435256D01*
X127360226Y-68246898D01*
X127400000Y-68046939D01*
X127400000Y-67843061D01*
X127360226Y-67643102D01*
X127282205Y-67454744D01*
X127168937Y-67285226D01*
X127125000Y-67241289D01*
X127125000Y-60362322D01*
X127128676Y-60324999D01*
X127125000Y-60287676D01*
X127125000Y-60287667D01*
X127114003Y-60176014D01*
X127070546Y-60032753D01*
X126999975Y-59900725D01*
X126999974Y-59900723D01*
X126928799Y-59813997D01*
X126905001Y-59784999D01*
X126876004Y-59761202D01*
X125955424Y-58840622D01*
X126085554Y-58894524D01*
X126691229Y-59015000D01*
X127308771Y-59015000D01*
X127914446Y-58894524D01*
X128484979Y-58658201D01*
X128998446Y-58315114D01*
X129435114Y-57878446D01*
X129778201Y-57364979D01*
X130014524Y-56794446D01*
X130135000Y-56188771D01*
X130135000Y-55746161D01*
X130150000Y-55888879D01*
X130150001Y-114267711D01*
X130135000Y-114420703D01*
X130135000Y-113991229D01*
X130014524Y-113385554D01*
X129778201Y-112815021D01*
X129435114Y-112301554D01*
X128998446Y-111864886D01*
X128484979Y-111521799D01*
X127914446Y-111285476D01*
X127308771Y-111165000D01*
X126691229Y-111165000D01*
X126085554Y-111285476D01*
X125515021Y-111521799D01*
X125001554Y-111864886D01*
X124564886Y-112301554D01*
X124221799Y-112815021D01*
X123985476Y-113385554D01*
X123865000Y-113991229D01*
X123865000Y-114608771D01*
X123985476Y-115214446D01*
X124221799Y-115784979D01*
X124564886Y-116298446D01*
X125001554Y-116735114D01*
X125515021Y-117078201D01*
X126085554Y-117314524D01*
X126691229Y-117435000D01*
X127133846Y-117435000D01*
X126991130Y-117450000D01*
X78772279Y-117450000D01*
X78619297Y-117435000D01*
X79048771Y-117435000D01*
X79654446Y-117314524D01*
X80224979Y-117078201D01*
X80738446Y-116735114D01*
X81175114Y-116298446D01*
X81518201Y-115784979D01*
X81754524Y-115214446D01*
X81875000Y-114608771D01*
X81875000Y-113991229D01*
X81754524Y-113385554D01*
X81540547Y-112868967D01*
X83305000Y-112868967D01*
X83305000Y-113191033D01*
X83367832Y-113506912D01*
X83491082Y-113804463D01*
X83670013Y-114072252D01*
X83897748Y-114299987D01*
X84165537Y-114478918D01*
X84463088Y-114602168D01*
X84778967Y-114665000D01*
X85101033Y-114665000D01*
X85416912Y-114602168D01*
X85714463Y-114478918D01*
X85982252Y-114299987D01*
X86209987Y-114072252D01*
X86388918Y-113804463D01*
X86512168Y-113506912D01*
X86575000Y-113191033D01*
X86575000Y-112868967D01*
X89805000Y-112868967D01*
X89805000Y-113191033D01*
X89867832Y-113506912D01*
X89991082Y-113804463D01*
X90170013Y-114072252D01*
X90397748Y-114299987D01*
X90665537Y-114478918D01*
X90963088Y-114602168D01*
X91278967Y-114665000D01*
X91601033Y-114665000D01*
X91916912Y-114602168D01*
X92214463Y-114478918D01*
X92482252Y-114299987D01*
X92709987Y-114072252D01*
X92888918Y-113804463D01*
X93012168Y-113506912D01*
X93075000Y-113191033D01*
X93075000Y-112868967D01*
X93012168Y-112553088D01*
X92888918Y-112255537D01*
X92709987Y-111987748D01*
X92482252Y-111760013D01*
X92214463Y-111581082D01*
X91916912Y-111457832D01*
X91601033Y-111395000D01*
X91278967Y-111395000D01*
X90963088Y-111457832D01*
X90665537Y-111581082D01*
X90397748Y-111760013D01*
X90170013Y-111987748D01*
X89991082Y-112255537D01*
X89867832Y-112553088D01*
X89805000Y-112868967D01*
X86575000Y-112868967D01*
X86512168Y-112553088D01*
X86388918Y-112255537D01*
X86209987Y-111987748D01*
X85982252Y-111760013D01*
X85714463Y-111581082D01*
X85416912Y-111457832D01*
X85101033Y-111395000D01*
X84778967Y-111395000D01*
X84463088Y-111457832D01*
X84165537Y-111581082D01*
X83897748Y-111760013D01*
X83670013Y-111987748D01*
X83491082Y-112255537D01*
X83367832Y-112553088D01*
X83305000Y-112868967D01*
X81540547Y-112868967D01*
X81518201Y-112815021D01*
X81175114Y-112301554D01*
X80738446Y-111864886D01*
X80224979Y-111521799D01*
X79654446Y-111285476D01*
X79048771Y-111165000D01*
X78431229Y-111165000D01*
X77825554Y-111285476D01*
X77255021Y-111521799D01*
X76741554Y-111864886D01*
X76304886Y-112301554D01*
X75961799Y-112815021D01*
X75725476Y-113385554D01*
X75605000Y-113991229D01*
X75605000Y-114433846D01*
X75590000Y-114291130D01*
X75590000Y-108368967D01*
X83305000Y-108368967D01*
X83305000Y-108691033D01*
X83367832Y-109006912D01*
X83491082Y-109304463D01*
X83670013Y-109572252D01*
X83897748Y-109799987D01*
X84165537Y-109978918D01*
X84463088Y-110102168D01*
X84778967Y-110165000D01*
X85101033Y-110165000D01*
X85416912Y-110102168D01*
X85714463Y-109978918D01*
X85982252Y-109799987D01*
X86209987Y-109572252D01*
X86388918Y-109304463D01*
X86512168Y-109006912D01*
X86575000Y-108691033D01*
X86575000Y-108368967D01*
X89805000Y-108368967D01*
X89805000Y-108691033D01*
X89867832Y-109006912D01*
X89991082Y-109304463D01*
X90170013Y-109572252D01*
X90397748Y-109799987D01*
X90665537Y-109978918D01*
X90963088Y-110102168D01*
X91278967Y-110165000D01*
X91601033Y-110165000D01*
X91916912Y-110102168D01*
X92214463Y-109978918D01*
X92482252Y-109799987D01*
X92709987Y-109572252D01*
X92888918Y-109304463D01*
X93012168Y-109006912D01*
X93075000Y-108691033D01*
X93075000Y-108368967D01*
X93012168Y-108053088D01*
X92888918Y-107755537D01*
X92709987Y-107487748D01*
X92482252Y-107260013D01*
X92214463Y-107081082D01*
X91916912Y-106957832D01*
X91601033Y-106895000D01*
X91278967Y-106895000D01*
X90963088Y-106957832D01*
X90665537Y-107081082D01*
X90397748Y-107260013D01*
X90170013Y-107487748D01*
X89991082Y-107755537D01*
X89867832Y-108053088D01*
X89805000Y-108368967D01*
X86575000Y-108368967D01*
X86512168Y-108053088D01*
X86388918Y-107755537D01*
X86209987Y-107487748D01*
X85982252Y-107260013D01*
X85714463Y-107081082D01*
X85416912Y-106957832D01*
X85101033Y-106895000D01*
X84778967Y-106895000D01*
X84463088Y-106957832D01*
X84165537Y-107081082D01*
X83897748Y-107260013D01*
X83670013Y-107487748D01*
X83491082Y-107755537D01*
X83367832Y-108053088D01*
X83305000Y-108368967D01*
X75590000Y-108368967D01*
X75590000Y-60104872D01*
X106985000Y-60104872D01*
X106985000Y-60545128D01*
X107070890Y-60976925D01*
X107239369Y-61383669D01*
X107483962Y-61749729D01*
X107795271Y-62061038D01*
X108161331Y-62305631D01*
X108568075Y-62474110D01*
X108999872Y-62560000D01*
X109440128Y-62560000D01*
X109871925Y-62474110D01*
X110278669Y-62305631D01*
X110644729Y-62061038D01*
X110956038Y-61749729D01*
X111200631Y-61383669D01*
X111369110Y-60976925D01*
X111455000Y-60545128D01*
X111455000Y-60104872D01*
X118415000Y-60104872D01*
X118415000Y-60545128D01*
X118500890Y-60976925D01*
X118669369Y-61383669D01*
X118913962Y-61749729D01*
X119225271Y-62061038D01*
X119591331Y-62305631D01*
X119998075Y-62474110D01*
X120429872Y-62560000D01*
X120870128Y-62560000D01*
X121301925Y-62474110D01*
X121708669Y-62305631D01*
X122074729Y-62061038D01*
X122386038Y-61749729D01*
X122630631Y-61383669D01*
X122799110Y-60976925D01*
X122885000Y-60545128D01*
X122885000Y-60104872D01*
X122799110Y-59673075D01*
X122630631Y-59266331D01*
X122386038Y-58900271D01*
X122074729Y-58588962D01*
X121708669Y-58344369D01*
X121301925Y-58175890D01*
X120870128Y-58090000D01*
X120429872Y-58090000D01*
X119998075Y-58175890D01*
X119591331Y-58344369D01*
X119225271Y-58588962D01*
X118913962Y-58900271D01*
X118669369Y-59266331D01*
X118500890Y-59673075D01*
X118415000Y-60104872D01*
X111455000Y-60104872D01*
X111369110Y-59673075D01*
X111200631Y-59266331D01*
X110956038Y-58900271D01*
X110644729Y-58588962D01*
X110278669Y-58344369D01*
X109871925Y-58175890D01*
X109440128Y-58090000D01*
X108999872Y-58090000D01*
X108568075Y-58175890D01*
X108161331Y-58344369D01*
X107795271Y-58588962D01*
X107483962Y-58900271D01*
X107239369Y-59266331D01*
X107070890Y-59673075D01*
X106985000Y-60104872D01*
X75590000Y-60104872D01*
X75590000Y-55912279D01*
X75605000Y-55759297D01*
X75605000Y-56188771D01*
X75725476Y-56794446D01*
X75961799Y-57364979D01*
X76304886Y-57878446D01*
X76741554Y-58315114D01*
X77255021Y-58658201D01*
X77825554Y-58894524D01*
X78431229Y-59015000D01*
X79048771Y-59015000D01*
X79654446Y-58894524D01*
X80224979Y-58658201D01*
X80738446Y-58315114D01*
X81175114Y-57878446D01*
X81518201Y-57364979D01*
X81754524Y-56794446D01*
X81875000Y-56188771D01*
X81875000Y-55571229D01*
X81754524Y-54965554D01*
X81518201Y-54395021D01*
X81175114Y-53881554D01*
X80738446Y-53444886D01*
X80224979Y-53101799D01*
X79654446Y-52865476D01*
X79048771Y-52745000D01*
X78606161Y-52745000D01*
X78748879Y-52730000D01*
X126967721Y-52730000D01*
X127120703Y-52745000D01*
G37*
%TD.AperFunction*%
D23*
X78248400Y-117398633D02*
X78128779Y-117386904D01*
X78011649Y-117351540D01*
X78248400Y-117398633D01*
%TA.AperFunction,NonConductor*%
D24*
G36*
X78248400Y-117398633D02*
G01*
X78128779Y-117386904D01*
X78011649Y-117351540D01*
X78248400Y-117398633D01*
G37*
%TD.AperFunction*%
D23*
X127632756Y-117382563D02*
X127504759Y-117396016D01*
X127741281Y-117348969D01*
X127632756Y-117382563D01*
%TA.AperFunction,NonConductor*%
D24*
G36*
X127632756Y-117382563D02*
G01*
X127504759Y-117396016D01*
X127741281Y-117348969D01*
X127632756Y-117382563D01*
G37*
%TD.AperFunction*%
D23*
X77654856Y-117243818D02*
X77540836Y-117209394D01*
X77431860Y-117151450D01*
X77654856Y-117243818D01*
%TA.AperFunction,NonConductor*%
D24*
G36*
X77654856Y-117243818D02*
G01*
X77540836Y-117209394D01*
X77431860Y-117151450D01*
X77654856Y-117243818D01*
G37*
%TD.AperFunction*%
D23*
X128219449Y-117200950D02*
X128097502Y-117238700D01*
X128320357Y-117146390D01*
X128219449Y-117200950D01*
%TA.AperFunction,NonConductor*%
D24*
G36*
X128219449Y-117200950D02*
G01*
X128097502Y-117238700D01*
X128320357Y-117146390D01*
X128219449Y-117200950D01*
G37*
%TD.AperFunction*%
D23*
X77102770Y-116976471D02*
X76998564Y-116921063D01*
X76902087Y-116842379D01*
X77102770Y-116976471D01*
%TA.AperFunction,NonConductor*%
D24*
G36*
X77102770Y-116976471D02*
G01*
X76998564Y-116921063D01*
X76902087Y-116842379D01*
X77102770Y-116976471D01*
G37*
%TD.AperFunction*%
D23*
X128759686Y-116908845D02*
X128648316Y-116969063D01*
X128848925Y-116835021D01*
X128759686Y-116908845D01*
%TA.AperFunction,NonConductor*%
D24*
G36*
X128759686Y-116908845D02*
G01*
X128648316Y-116969063D01*
X128848925Y-116835021D01*
X128759686Y-116908845D01*
G37*
%TD.AperFunction*%
D23*
X76613243Y-116606803D02*
X76522636Y-116532906D01*
X76442605Y-116436165D01*
X76613243Y-116606803D01*
%TA.AperFunction,NonConductor*%
D24*
G36*
X76613243Y-116606803D02*
G01*
X76522636Y-116532906D01*
X76442605Y-116436165D01*
X76613243Y-116606803D01*
G37*
%TD.AperFunction*%
D23*
X129232906Y-116517364D02*
X129136165Y-116597395D01*
X129306803Y-116426757D01*
X129232906Y-116517364D01*
%TA.AperFunction,NonConductor*%
D24*
G36*
X129232906Y-116517364D02*
G01*
X129136165Y-116597395D01*
X129306803Y-116426757D01*
X129232906Y-116517364D01*
G37*
%TD.AperFunction*%
D23*
X76204979Y-116148925D02*
X76131155Y-116059686D01*
X76070937Y-115948316D01*
X76204979Y-116148925D01*
%TA.AperFunction,NonConductor*%
D24*
G36*
X76204979Y-116148925D02*
G01*
X76131155Y-116059686D01*
X76070937Y-115948316D01*
X76204979Y-116148925D01*
G37*
%TD.AperFunction*%
D23*
X129621063Y-116041436D02*
X129542379Y-116137913D01*
X129676471Y-115937230D01*
X129621063Y-116041436D01*
%TA.AperFunction,NonConductor*%
D24*
G36*
X129621063Y-116041436D02*
G01*
X129542379Y-116137913D01*
X129676471Y-115937230D01*
X129621063Y-116041436D01*
G37*
%TD.AperFunction*%
D23*
X75893610Y-115620357D02*
X75839050Y-115519449D01*
X75801300Y-115397502D01*
X75893610Y-115620357D01*
%TA.AperFunction,NonConductor*%
D24*
G36*
X75893610Y-115620357D02*
G01*
X75839050Y-115519449D01*
X75801300Y-115397502D01*
X75893610Y-115620357D01*
G37*
%TD.AperFunction*%
D23*
X129909394Y-115499164D02*
X129851450Y-115608140D01*
X129943818Y-115385144D01*
X129909394Y-115499164D01*
%TA.AperFunction,NonConductor*%
D24*
G36*
X129909394Y-115499164D02*
G01*
X129851450Y-115608140D01*
X129943818Y-115385144D01*
X129909394Y-115499164D01*
G37*
%TD.AperFunction*%
D23*
X75691031Y-115041281D02*
X75657437Y-114932756D01*
X75643984Y-114804759D01*
X75691031Y-115041281D01*
%TA.AperFunction,NonConductor*%
D24*
G36*
X75691031Y-115041281D02*
G01*
X75657437Y-114932756D01*
X75643984Y-114804759D01*
X75691031Y-115041281D01*
G37*
%TD.AperFunction*%
D23*
X130086904Y-114911221D02*
X130051540Y-115028351D01*
X130098633Y-114791600D01*
X130086904Y-114911221D01*
%TA.AperFunction,NonConductor*%
D24*
G36*
X130086904Y-114911221D02*
G01*
X130051540Y-115028351D01*
X130098633Y-114791600D01*
X130086904Y-114911221D01*
G37*
%TD.AperFunction*%
D23*
X115353987Y-112628038D02*
X115168038Y-112813987D01*
X115021939Y-113032641D01*
X114935000Y-113242530D01*
X114848061Y-113032641D01*
X114701962Y-112813987D01*
X114516013Y-112628038D01*
X114354322Y-112520000D01*
X115515678Y-112520000D01*
X115353987Y-112628038D01*
%TA.AperFunction,NonConductor*%
D24*
G36*
X115353987Y-112628038D02*
G01*
X115168038Y-112813987D01*
X115021939Y-113032641D01*
X114935000Y-113242530D01*
X114848061Y-113032641D01*
X114701962Y-112813987D01*
X114516013Y-112628038D01*
X114354322Y-112520000D01*
X115515678Y-112520000D01*
X115353987Y-112628038D01*
G37*
%TD.AperFunction*%
D23*
X112813987Y-112628038D02*
X112628038Y-112813987D01*
X112481939Y-113032641D01*
X112395000Y-113242530D01*
X112308061Y-113032641D01*
X112161962Y-112813987D01*
X111976013Y-112628038D01*
X111814322Y-112520000D01*
X112975678Y-112520000D01*
X112813987Y-112628038D01*
%TA.AperFunction,NonConductor*%
D24*
G36*
X112813987Y-112628038D02*
G01*
X112628038Y-112813987D01*
X112481939Y-113032641D01*
X112395000Y-113242530D01*
X112308061Y-113032641D01*
X112161962Y-112813987D01*
X111976013Y-112628038D01*
X111814322Y-112520000D01*
X112975678Y-112520000D01*
X112813987Y-112628038D01*
G37*
%TD.AperFunction*%
D23*
X117893987Y-112628038D02*
X117708038Y-112813987D01*
X117561939Y-113032641D01*
X117475000Y-113242530D01*
X117388061Y-113032641D01*
X117241962Y-112813987D01*
X117056013Y-112628038D01*
X116894322Y-112520000D01*
X118055678Y-112520000D01*
X117893987Y-112628038D01*
%TA.AperFunction,NonConductor*%
D24*
G36*
X117893987Y-112628038D02*
G01*
X117708038Y-112813987D01*
X117561939Y-113032641D01*
X117475000Y-113242530D01*
X117388061Y-113032641D01*
X117241962Y-112813987D01*
X117056013Y-112628038D01*
X116894322Y-112520000D01*
X118055678Y-112520000D01*
X117893987Y-112628038D01*
G37*
%TD.AperFunction*%
D23*
X120433987Y-112628038D02*
X120248038Y-112813987D01*
X120101939Y-113032641D01*
X120015000Y-113242530D01*
X119928061Y-113032641D01*
X119781962Y-112813987D01*
X119596013Y-112628038D01*
X119434322Y-112520000D01*
X120595678Y-112520000D01*
X120433987Y-112628038D01*
%TA.AperFunction,NonConductor*%
D24*
G36*
X120433987Y-112628038D02*
G01*
X120248038Y-112813987D01*
X120101939Y-113032641D01*
X120015000Y-113242530D01*
X119928061Y-113032641D01*
X119781962Y-112813987D01*
X119596013Y-112628038D01*
X119434322Y-112520000D01*
X120595678Y-112520000D01*
X120433987Y-112628038D01*
G37*
%TD.AperFunction*%
D23*
X110273987Y-112628038D02*
X110088038Y-112813987D01*
X109941939Y-113032641D01*
X109855000Y-113242530D01*
X109768061Y-113032641D01*
X109621962Y-112813987D01*
X109436013Y-112628038D01*
X109274322Y-112520000D01*
X110435678Y-112520000D01*
X110273987Y-112628038D01*
%TA.AperFunction,NonConductor*%
D24*
G36*
X110273987Y-112628038D02*
G01*
X110088038Y-112813987D01*
X109941939Y-113032641D01*
X109855000Y-113242530D01*
X109768061Y-113032641D01*
X109621962Y-112813987D01*
X109436013Y-112628038D01*
X109274322Y-112520000D01*
X110435678Y-112520000D01*
X110273987Y-112628038D01*
G37*
%TD.AperFunction*%
D23*
X120101939Y-109217359D02*
X120248038Y-109436013D01*
X120433987Y-109621962D01*
X120652641Y-109768061D01*
X120895595Y-109868696D01*
X121153514Y-109920000D01*
X121416486Y-109920000D01*
X121674405Y-109868696D01*
X121795001Y-109818743D01*
X121795001Y-110173787D01*
X121603789Y-110365000D01*
X112959801Y-110365000D01*
X113426157Y-109898645D01*
X113533514Y-109920000D01*
X113796486Y-109920000D01*
X114054405Y-109868696D01*
X114297359Y-109768061D01*
X114516013Y-109621962D01*
X114701962Y-109436013D01*
X114848061Y-109217359D01*
X114935000Y-109007470D01*
X115021939Y-109217359D01*
X115168038Y-109436013D01*
X115353987Y-109621962D01*
X115572641Y-109768061D01*
X115815595Y-109868696D01*
X116073514Y-109920000D01*
X116336486Y-109920000D01*
X116594405Y-109868696D01*
X116837359Y-109768061D01*
X117056013Y-109621962D01*
X117241962Y-109436013D01*
X117388061Y-109217359D01*
X117475000Y-109007470D01*
X117561939Y-109217359D01*
X117708038Y-109436013D01*
X117893987Y-109621962D01*
X118112641Y-109768061D01*
X118355595Y-109868696D01*
X118613514Y-109920000D01*
X118876486Y-109920000D01*
X119134405Y-109868696D01*
X119377359Y-109768061D01*
X119596013Y-109621962D01*
X119781962Y-109436013D01*
X119928061Y-109217359D01*
X120015000Y-109007470D01*
X120101939Y-109217359D01*
%TA.AperFunction,NonConductor*%
D24*
G36*
X120101939Y-109217359D02*
G01*
X120248038Y-109436013D01*
X120433987Y-109621962D01*
X120652641Y-109768061D01*
X120895595Y-109868696D01*
X121153514Y-109920000D01*
X121416486Y-109920000D01*
X121674405Y-109868696D01*
X121795001Y-109818743D01*
X121795001Y-110173787D01*
X121603789Y-110365000D01*
X112959801Y-110365000D01*
X113426157Y-109898645D01*
X113533514Y-109920000D01*
X113796486Y-109920000D01*
X114054405Y-109868696D01*
X114297359Y-109768061D01*
X114516013Y-109621962D01*
X114701962Y-109436013D01*
X114848061Y-109217359D01*
X114935000Y-109007470D01*
X115021939Y-109217359D01*
X115168038Y-109436013D01*
X115353987Y-109621962D01*
X115572641Y-109768061D01*
X115815595Y-109868696D01*
X116073514Y-109920000D01*
X116336486Y-109920000D01*
X116594405Y-109868696D01*
X116837359Y-109768061D01*
X117056013Y-109621962D01*
X117241962Y-109436013D01*
X117388061Y-109217359D01*
X117475000Y-109007470D01*
X117561939Y-109217359D01*
X117708038Y-109436013D01*
X117893987Y-109621962D01*
X118112641Y-109768061D01*
X118355595Y-109868696D01*
X118613514Y-109920000D01*
X118876486Y-109920000D01*
X119134405Y-109868696D01*
X119377359Y-109768061D01*
X119596013Y-109621962D01*
X119781962Y-109436013D01*
X119928061Y-109217359D01*
X120015000Y-109007470D01*
X120101939Y-109217359D01*
G37*
%TD.AperFunction*%
D23*
X109686928Y-82821730D02*
X109686928Y-83985000D01*
X109699188Y-84109482D01*
X109735498Y-84229180D01*
X109794463Y-84339494D01*
X109873815Y-84436185D01*
X109970506Y-84515537D01*
X110080820Y-84574502D01*
X110200518Y-84610812D01*
X110208961Y-84611643D01*
X110010363Y-84810241D01*
X109853320Y-85045273D01*
X109745147Y-85306426D01*
X109690000Y-85583665D01*
X109690000Y-85866335D01*
X109726312Y-86048886D01*
X108074003Y-87701196D01*
X108044999Y-87724999D01*
X107989871Y-87792174D01*
X107950026Y-87840724D01*
X107892953Y-87947500D01*
X107879454Y-87972754D01*
X107835997Y-88116015D01*
X107825000Y-88227668D01*
X107825000Y-88227678D01*
X107821324Y-88265000D01*
X107825000Y-88302322D01*
X107825001Y-107487225D01*
X107733987Y-107548038D01*
X107548038Y-107733987D01*
X107401939Y-107952641D01*
X107301304Y-108195595D01*
X107250000Y-108453514D01*
X107250000Y-108716486D01*
X107301304Y-108974405D01*
X107401939Y-109217359D01*
X107548038Y-109436013D01*
X107733987Y-109621962D01*
X107895678Y-109730000D01*
X107632622Y-109730000D01*
X104900000Y-106997379D01*
X104900000Y-78034801D01*
X109686928Y-82821730D01*
%TA.AperFunction,NonConductor*%
D24*
G36*
X109686928Y-82821730D02*
G01*
X109686928Y-83985000D01*
X109699188Y-84109482D01*
X109735498Y-84229180D01*
X109794463Y-84339494D01*
X109873815Y-84436185D01*
X109970506Y-84515537D01*
X110080820Y-84574502D01*
X110200518Y-84610812D01*
X110208961Y-84611643D01*
X110010363Y-84810241D01*
X109853320Y-85045273D01*
X109745147Y-85306426D01*
X109690000Y-85583665D01*
X109690000Y-85866335D01*
X109726312Y-86048886D01*
X108074003Y-87701196D01*
X108044999Y-87724999D01*
X107989871Y-87792174D01*
X107950026Y-87840724D01*
X107892953Y-87947500D01*
X107879454Y-87972754D01*
X107835997Y-88116015D01*
X107825000Y-88227668D01*
X107825000Y-88227678D01*
X107821324Y-88265000D01*
X107825000Y-88302322D01*
X107825001Y-107487225D01*
X107733987Y-107548038D01*
X107548038Y-107733987D01*
X107401939Y-107952641D01*
X107301304Y-108195595D01*
X107250000Y-108453514D01*
X107250000Y-108716486D01*
X107301304Y-108974405D01*
X107401939Y-109217359D01*
X107548038Y-109436013D01*
X107733987Y-109621962D01*
X107895678Y-109730000D01*
X107632622Y-109730000D01*
X104900000Y-106997379D01*
X104900000Y-78034801D01*
X109686928Y-82821730D01*
G37*
%TD.AperFunction*%
D23*
X109941939Y-109217359D02*
X110088038Y-109436013D01*
X110273987Y-109621962D01*
X110435678Y-109730000D01*
X109274322Y-109730000D01*
X109436013Y-109621962D01*
X109621962Y-109436013D01*
X109768061Y-109217359D01*
X109855000Y-109007470D01*
X109941939Y-109217359D01*
%TA.AperFunction,NonConductor*%
D24*
G36*
X109941939Y-109217359D02*
G01*
X110088038Y-109436013D01*
X110273987Y-109621962D01*
X110435678Y-109730000D01*
X109274322Y-109730000D01*
X109436013Y-109621962D01*
X109621962Y-109436013D01*
X109768061Y-109217359D01*
X109855000Y-109007470D01*
X109941939Y-109217359D01*
G37*
%TD.AperFunction*%
D23*
X109158225Y-68811011D02*
X109105000Y-69078589D01*
X109105000Y-69351411D01*
X109158225Y-69618989D01*
X109262629Y-69871043D01*
X109414201Y-70097886D01*
X109607114Y-70290799D01*
X109833957Y-70442371D01*
X110086011Y-70546775D01*
X110353589Y-70600000D01*
X110626411Y-70600000D01*
X110893989Y-70546775D01*
X111146043Y-70442371D01*
X111372886Y-70290799D01*
X111565799Y-70097886D01*
X111717371Y-69871043D01*
X111760000Y-69768127D01*
X111802629Y-69871043D01*
X111954201Y-70097886D01*
X112147114Y-70290799D01*
X112373957Y-70442371D01*
X112626011Y-70546775D01*
X112893589Y-70600000D01*
X113166411Y-70600000D01*
X113433989Y-70546775D01*
X113686043Y-70442371D01*
X113912886Y-70290799D01*
X114105799Y-70097886D01*
X114257371Y-69871043D01*
X114300000Y-69768127D01*
X114342629Y-69871043D01*
X114455992Y-70040703D01*
X114483025Y-70091277D01*
X114577998Y-70207002D01*
X114693723Y-70301975D01*
X114744297Y-70329008D01*
X114810001Y-70372910D01*
X114810001Y-70447668D01*
X114806324Y-70485000D01*
X114810001Y-70522333D01*
X114820929Y-70633280D01*
X114820998Y-70633985D01*
X114864454Y-70777246D01*
X114935026Y-70909276D01*
X115006201Y-70996002D01*
X115030000Y-71025001D01*
X115058998Y-71048799D01*
X116276200Y-72266002D01*
X116299999Y-72295001D01*
X116415724Y-72389974D01*
X116547753Y-72460546D01*
X116691014Y-72504003D01*
X116802667Y-72515000D01*
X116802676Y-72515000D01*
X116839999Y-72518676D01*
X116877322Y-72515000D01*
X122875199Y-72515000D01*
X124335000Y-73974802D01*
X124335001Y-79060197D01*
X120180000Y-83215199D01*
X120180000Y-83043665D01*
X120124853Y-82766426D01*
X120016680Y-82505273D01*
X119859637Y-82270241D01*
X119659759Y-82070363D01*
X119424727Y-81913320D01*
X119163574Y-81805147D01*
X118886335Y-81750000D01*
X118603665Y-81750000D01*
X118326426Y-81805147D01*
X118065273Y-81913320D01*
X117830241Y-82070363D01*
X117630363Y-82270241D01*
X117473320Y-82505273D01*
X117365147Y-82766426D01*
X117310000Y-83043665D01*
X117310000Y-83326335D01*
X117365147Y-83603574D01*
X117473320Y-83864727D01*
X117630363Y-84099759D01*
X117830241Y-84299637D01*
X118062759Y-84455000D01*
X117830241Y-84610363D01*
X117630363Y-84810241D01*
X117473320Y-85045273D01*
X117365147Y-85306426D01*
X117310000Y-85583665D01*
X117310000Y-85866335D01*
X117346312Y-86048886D01*
X115058998Y-88336201D01*
X115030000Y-88359999D01*
X115006202Y-88388997D01*
X115006201Y-88388998D01*
X114935026Y-88475724D01*
X114864454Y-88607754D01*
X114820998Y-88751015D01*
X114806324Y-88900000D01*
X114810001Y-88937333D01*
X114810000Y-107895678D01*
X114701962Y-107733987D01*
X114516013Y-107548038D01*
X114297359Y-107401939D01*
X114054405Y-107301304D01*
X113796486Y-107250000D01*
X113533514Y-107250000D01*
X113275595Y-107301304D01*
X113032641Y-107401939D01*
X112813987Y-107548038D01*
X112628038Y-107733987D01*
X112481939Y-107952641D01*
X112395000Y-108162530D01*
X112308061Y-107952641D01*
X112161962Y-107733987D01*
X111976013Y-107548038D01*
X111757359Y-107401939D01*
X111514405Y-107301304D01*
X111256486Y-107250000D01*
X110993514Y-107250000D01*
X110886157Y-107271355D01*
X109980000Y-106365199D01*
X109980000Y-101834317D01*
X110010363Y-101879759D01*
X110210241Y-102079637D01*
X110445273Y-102236680D01*
X110706426Y-102344853D01*
X110983665Y-102400000D01*
X111266335Y-102400000D01*
X111543574Y-102344853D01*
X111804727Y-102236680D01*
X112039759Y-102079637D01*
X112239637Y-101879759D01*
X112396680Y-101644727D01*
X112504853Y-101383574D01*
X112560000Y-101106335D01*
X112560000Y-100823665D01*
X112504853Y-100546426D01*
X112396680Y-100285273D01*
X112239637Y-100050241D01*
X112039759Y-99850363D01*
X111807241Y-99695000D01*
X112039759Y-99539637D01*
X112239637Y-99339759D01*
X112396680Y-99104727D01*
X112504853Y-98843574D01*
X112560000Y-98566335D01*
X112560000Y-98283665D01*
X112504853Y-98006426D01*
X112396680Y-97745273D01*
X112239637Y-97510241D01*
X112039759Y-97310363D01*
X111807241Y-97155000D01*
X112039759Y-96999637D01*
X112239637Y-96799759D01*
X112396680Y-96564727D01*
X112504853Y-96303574D01*
X112560000Y-96026335D01*
X112560000Y-95743665D01*
X112504853Y-95466426D01*
X112396680Y-95205273D01*
X112239637Y-94970241D01*
X112039759Y-94770363D01*
X111807241Y-94615000D01*
X112039759Y-94459637D01*
X112239637Y-94259759D01*
X112396680Y-94024727D01*
X112504853Y-93763574D01*
X112560000Y-93486335D01*
X112560000Y-93203665D01*
X112523688Y-93021114D01*
X114176008Y-91368795D01*
X114205001Y-91345001D01*
X114228795Y-91316008D01*
X114228799Y-91316004D01*
X114299973Y-91229277D01*
X114299974Y-91229276D01*
X114370546Y-91097247D01*
X114414003Y-90953986D01*
X114425000Y-90842333D01*
X114425000Y-90842324D01*
X114428676Y-90805001D01*
X114425000Y-90767678D01*
X114425000Y-81950912D01*
X114428676Y-81913589D01*
X114425000Y-81876266D01*
X114425000Y-81876257D01*
X114414003Y-81764604D01*
X114370546Y-81621343D01*
X114299974Y-81489314D01*
X114286811Y-81473275D01*
X114228799Y-81402586D01*
X114228795Y-81402582D01*
X114205001Y-81373589D01*
X114176009Y-81349796D01*
X112510203Y-79683992D01*
X112486401Y-79654989D01*
X112449538Y-79624737D01*
X112322393Y-79497592D01*
X112298591Y-79468589D01*
X112182866Y-79373616D01*
X112050837Y-79303044D01*
X111907576Y-79259587D01*
X111795923Y-79248590D01*
X111795912Y-79248590D01*
X111758590Y-79244914D01*
X111721268Y-79248590D01*
X109536212Y-79248590D01*
X106170000Y-75882379D01*
X106170000Y-75427408D01*
X107188000Y-75427408D01*
X107188000Y-75702592D01*
X107241686Y-75972490D01*
X107346995Y-76226727D01*
X107499880Y-76455535D01*
X107694465Y-76650120D01*
X107923273Y-76803005D01*
X108177510Y-76908314D01*
X108447408Y-76962000D01*
X108722592Y-76962000D01*
X108992490Y-76908314D01*
X109246727Y-76803005D01*
X109475535Y-76650120D01*
X109670120Y-76455535D01*
X109823005Y-76226727D01*
X109855000Y-76149485D01*
X109886995Y-76226727D01*
X110039880Y-76455535D01*
X110234465Y-76650120D01*
X110463273Y-76803005D01*
X110717510Y-76908314D01*
X110987408Y-76962000D01*
X111262592Y-76962000D01*
X111532490Y-76908314D01*
X111786727Y-76803005D01*
X112015535Y-76650120D01*
X112210120Y-76455535D01*
X112363005Y-76226727D01*
X112395000Y-76149485D01*
X112426995Y-76226727D01*
X112579880Y-76455535D01*
X112774465Y-76650120D01*
X113003273Y-76803005D01*
X113257510Y-76908314D01*
X113527408Y-76962000D01*
X113802592Y-76962000D01*
X114072490Y-76908314D01*
X114326727Y-76803005D01*
X114555535Y-76650120D01*
X114750120Y-76455535D01*
X114903005Y-76226727D01*
X114935000Y-76149485D01*
X114966995Y-76226727D01*
X115119880Y-76455535D01*
X115314465Y-76650120D01*
X115543273Y-76803005D01*
X115797510Y-76908314D01*
X116067408Y-76962000D01*
X116342592Y-76962000D01*
X116612490Y-76908314D01*
X116866727Y-76803005D01*
X117095535Y-76650120D01*
X117290120Y-76455535D01*
X117443005Y-76226727D01*
X117475000Y-76149485D01*
X117506995Y-76226727D01*
X117659880Y-76455535D01*
X117854465Y-76650120D01*
X118083273Y-76803005D01*
X118337510Y-76908314D01*
X118607408Y-76962000D01*
X118882592Y-76962000D01*
X119152490Y-76908314D01*
X119406727Y-76803005D01*
X119635535Y-76650120D01*
X119830120Y-76455535D01*
X119983005Y-76226727D01*
X120015000Y-76149485D01*
X120046995Y-76226727D01*
X120199880Y-76455535D01*
X120394465Y-76650120D01*
X120623273Y-76803005D01*
X120877510Y-76908314D01*
X121147408Y-76962000D01*
X121422592Y-76962000D01*
X121692490Y-76908314D01*
X121946727Y-76803005D01*
X122175535Y-76650120D01*
X122370120Y-76455535D01*
X122523005Y-76226727D01*
X122628314Y-75972490D01*
X122682000Y-75702592D01*
X122682000Y-75427408D01*
X122628314Y-75157510D01*
X122523005Y-74903273D01*
X122370120Y-74674465D01*
X122175535Y-74479880D01*
X121946727Y-74326995D01*
X121692490Y-74221686D01*
X121422592Y-74168000D01*
X121147408Y-74168000D01*
X120877510Y-74221686D01*
X120623273Y-74326995D01*
X120394465Y-74479880D01*
X120199880Y-74674465D01*
X120046995Y-74903273D01*
X120015000Y-74980515D01*
X119983005Y-74903273D01*
X119830120Y-74674465D01*
X119635535Y-74479880D01*
X119406727Y-74326995D01*
X119152490Y-74221686D01*
X118882592Y-74168000D01*
X118607408Y-74168000D01*
X118337510Y-74221686D01*
X118083273Y-74326995D01*
X117854465Y-74479880D01*
X117659880Y-74674465D01*
X117506995Y-74903273D01*
X117475000Y-74980515D01*
X117443005Y-74903273D01*
X117290120Y-74674465D01*
X117095535Y-74479880D01*
X116866727Y-74326995D01*
X116612490Y-74221686D01*
X116342592Y-74168000D01*
X116067408Y-74168000D01*
X115797510Y-74221686D01*
X115543273Y-74326995D01*
X115314465Y-74479880D01*
X115119880Y-74674465D01*
X114966995Y-74903273D01*
X114935000Y-74980515D01*
X114903005Y-74903273D01*
X114750120Y-74674465D01*
X114555535Y-74479880D01*
X114326727Y-74326995D01*
X114072490Y-74221686D01*
X113802592Y-74168000D01*
X113527408Y-74168000D01*
X113257510Y-74221686D01*
X113003273Y-74326995D01*
X112774465Y-74479880D01*
X112579880Y-74674465D01*
X112426995Y-74903273D01*
X112395000Y-74980515D01*
X112363005Y-74903273D01*
X112210120Y-74674465D01*
X112015535Y-74479880D01*
X111786727Y-74326995D01*
X111532490Y-74221686D01*
X111262592Y-74168000D01*
X110987408Y-74168000D01*
X110717510Y-74221686D01*
X110463273Y-74326995D01*
X110234465Y-74479880D01*
X110039880Y-74674465D01*
X109886995Y-74903273D01*
X109855000Y-74980515D01*
X109823005Y-74903273D01*
X109670120Y-74674465D01*
X109475535Y-74479880D01*
X109246727Y-74326995D01*
X108992490Y-74221686D01*
X108722592Y-74168000D01*
X108447408Y-74168000D01*
X108177510Y-74221686D01*
X107923273Y-74326995D01*
X107694465Y-74479880D01*
X107499880Y-74674465D01*
X107346995Y-74903273D01*
X107241686Y-75157510D01*
X107188000Y-75427408D01*
X106170000Y-75427408D01*
X106170000Y-70164801D01*
X107629802Y-68705000D01*
X109202136Y-68705000D01*
X109158225Y-68811011D01*
%TA.AperFunction,NonConductor*%
D24*
G36*
X109158225Y-68811011D02*
G01*
X109105000Y-69078589D01*
X109105000Y-69351411D01*
X109158225Y-69618989D01*
X109262629Y-69871043D01*
X109414201Y-70097886D01*
X109607114Y-70290799D01*
X109833957Y-70442371D01*
X110086011Y-70546775D01*
X110353589Y-70600000D01*
X110626411Y-70600000D01*
X110893989Y-70546775D01*
X111146043Y-70442371D01*
X111372886Y-70290799D01*
X111565799Y-70097886D01*
X111717371Y-69871043D01*
X111760000Y-69768127D01*
X111802629Y-69871043D01*
X111954201Y-70097886D01*
X112147114Y-70290799D01*
X112373957Y-70442371D01*
X112626011Y-70546775D01*
X112893589Y-70600000D01*
X113166411Y-70600000D01*
X113433989Y-70546775D01*
X113686043Y-70442371D01*
X113912886Y-70290799D01*
X114105799Y-70097886D01*
X114257371Y-69871043D01*
X114300000Y-69768127D01*
X114342629Y-69871043D01*
X114455992Y-70040703D01*
X114483025Y-70091277D01*
X114577998Y-70207002D01*
X114693723Y-70301975D01*
X114744297Y-70329008D01*
X114810001Y-70372910D01*
X114810001Y-70447668D01*
X114806324Y-70485000D01*
X114810001Y-70522333D01*
X114820929Y-70633280D01*
X114820998Y-70633985D01*
X114864454Y-70777246D01*
X114935026Y-70909276D01*
X115006201Y-70996002D01*
X115030000Y-71025001D01*
X115058998Y-71048799D01*
X116276200Y-72266002D01*
X116299999Y-72295001D01*
X116415724Y-72389974D01*
X116547753Y-72460546D01*
X116691014Y-72504003D01*
X116802667Y-72515000D01*
X116802676Y-72515000D01*
X116839999Y-72518676D01*
X116877322Y-72515000D01*
X122875199Y-72515000D01*
X124335000Y-73974802D01*
X124335001Y-79060197D01*
X120180000Y-83215199D01*
X120180000Y-83043665D01*
X120124853Y-82766426D01*
X120016680Y-82505273D01*
X119859637Y-82270241D01*
X119659759Y-82070363D01*
X119424727Y-81913320D01*
X119163574Y-81805147D01*
X118886335Y-81750000D01*
X118603665Y-81750000D01*
X118326426Y-81805147D01*
X118065273Y-81913320D01*
X117830241Y-82070363D01*
X117630363Y-82270241D01*
X117473320Y-82505273D01*
X117365147Y-82766426D01*
X117310000Y-83043665D01*
X117310000Y-83326335D01*
X117365147Y-83603574D01*
X117473320Y-83864727D01*
X117630363Y-84099759D01*
X117830241Y-84299637D01*
X118062759Y-84455000D01*
X117830241Y-84610363D01*
X117630363Y-84810241D01*
X117473320Y-85045273D01*
X117365147Y-85306426D01*
X117310000Y-85583665D01*
X117310000Y-85866335D01*
X117346312Y-86048886D01*
X115058998Y-88336201D01*
X115030000Y-88359999D01*
X115006202Y-88388997D01*
X115006201Y-88388998D01*
X114935026Y-88475724D01*
X114864454Y-88607754D01*
X114820998Y-88751015D01*
X114806324Y-88900000D01*
X114810001Y-88937333D01*
X114810000Y-107895678D01*
X114701962Y-107733987D01*
X114516013Y-107548038D01*
X114297359Y-107401939D01*
X114054405Y-107301304D01*
X113796486Y-107250000D01*
X113533514Y-107250000D01*
X113275595Y-107301304D01*
X113032641Y-107401939D01*
X112813987Y-107548038D01*
X112628038Y-107733987D01*
X112481939Y-107952641D01*
X112395000Y-108162530D01*
X112308061Y-107952641D01*
X112161962Y-107733987D01*
X111976013Y-107548038D01*
X111757359Y-107401939D01*
X111514405Y-107301304D01*
X111256486Y-107250000D01*
X110993514Y-107250000D01*
X110886157Y-107271355D01*
X109980000Y-106365199D01*
X109980000Y-101834317D01*
X110010363Y-101879759D01*
X110210241Y-102079637D01*
X110445273Y-102236680D01*
X110706426Y-102344853D01*
X110983665Y-102400000D01*
X111266335Y-102400000D01*
X111543574Y-102344853D01*
X111804727Y-102236680D01*
X112039759Y-102079637D01*
X112239637Y-101879759D01*
X112396680Y-101644727D01*
X112504853Y-101383574D01*
X112560000Y-101106335D01*
X112560000Y-100823665D01*
X112504853Y-100546426D01*
X112396680Y-100285273D01*
X112239637Y-100050241D01*
X112039759Y-99850363D01*
X111807241Y-99695000D01*
X112039759Y-99539637D01*
X112239637Y-99339759D01*
X112396680Y-99104727D01*
X112504853Y-98843574D01*
X112560000Y-98566335D01*
X112560000Y-98283665D01*
X112504853Y-98006426D01*
X112396680Y-97745273D01*
X112239637Y-97510241D01*
X112039759Y-97310363D01*
X111807241Y-97155000D01*
X112039759Y-96999637D01*
X112239637Y-96799759D01*
X112396680Y-96564727D01*
X112504853Y-96303574D01*
X112560000Y-96026335D01*
X112560000Y-95743665D01*
X112504853Y-95466426D01*
X112396680Y-95205273D01*
X112239637Y-94970241D01*
X112039759Y-94770363D01*
X111807241Y-94615000D01*
X112039759Y-94459637D01*
X112239637Y-94259759D01*
X112396680Y-94024727D01*
X112504853Y-93763574D01*
X112560000Y-93486335D01*
X112560000Y-93203665D01*
X112523688Y-93021114D01*
X114176008Y-91368795D01*
X114205001Y-91345001D01*
X114228795Y-91316008D01*
X114228799Y-91316004D01*
X114299973Y-91229277D01*
X114299974Y-91229276D01*
X114370546Y-91097247D01*
X114414003Y-90953986D01*
X114425000Y-90842333D01*
X114425000Y-90842324D01*
X114428676Y-90805001D01*
X114425000Y-90767678D01*
X114425000Y-81950912D01*
X114428676Y-81913589D01*
X114425000Y-81876266D01*
X114425000Y-81876257D01*
X114414003Y-81764604D01*
X114370546Y-81621343D01*
X114299974Y-81489314D01*
X114286811Y-81473275D01*
X114228799Y-81402586D01*
X114228795Y-81402582D01*
X114205001Y-81373589D01*
X114176009Y-81349796D01*
X112510203Y-79683992D01*
X112486401Y-79654989D01*
X112449538Y-79624737D01*
X112322393Y-79497592D01*
X112298591Y-79468589D01*
X112182866Y-79373616D01*
X112050837Y-79303044D01*
X111907576Y-79259587D01*
X111795923Y-79248590D01*
X111795912Y-79248590D01*
X111758590Y-79244914D01*
X111721268Y-79248590D01*
X109536212Y-79248590D01*
X106170000Y-75882379D01*
X106170000Y-75427408D01*
X107188000Y-75427408D01*
X107188000Y-75702592D01*
X107241686Y-75972490D01*
X107346995Y-76226727D01*
X107499880Y-76455535D01*
X107694465Y-76650120D01*
X107923273Y-76803005D01*
X108177510Y-76908314D01*
X108447408Y-76962000D01*
X108722592Y-76962000D01*
X108992490Y-76908314D01*
X109246727Y-76803005D01*
X109475535Y-76650120D01*
X109670120Y-76455535D01*
X109823005Y-76226727D01*
X109855000Y-76149485D01*
X109886995Y-76226727D01*
X110039880Y-76455535D01*
X110234465Y-76650120D01*
X110463273Y-76803005D01*
X110717510Y-76908314D01*
X110987408Y-76962000D01*
X111262592Y-76962000D01*
X111532490Y-76908314D01*
X111786727Y-76803005D01*
X112015535Y-76650120D01*
X112210120Y-76455535D01*
X112363005Y-76226727D01*
X112395000Y-76149485D01*
X112426995Y-76226727D01*
X112579880Y-76455535D01*
X112774465Y-76650120D01*
X113003273Y-76803005D01*
X113257510Y-76908314D01*
X113527408Y-76962000D01*
X113802592Y-76962000D01*
X114072490Y-76908314D01*
X114326727Y-76803005D01*
X114555535Y-76650120D01*
X114750120Y-76455535D01*
X114903005Y-76226727D01*
X114935000Y-76149485D01*
X114966995Y-76226727D01*
X115119880Y-76455535D01*
X115314465Y-76650120D01*
X115543273Y-76803005D01*
X115797510Y-76908314D01*
X116067408Y-76962000D01*
X116342592Y-76962000D01*
X116612490Y-76908314D01*
X116866727Y-76803005D01*
X117095535Y-76650120D01*
X117290120Y-76455535D01*
X117443005Y-76226727D01*
X117475000Y-76149485D01*
X117506995Y-76226727D01*
X117659880Y-76455535D01*
X117854465Y-76650120D01*
X118083273Y-76803005D01*
X118337510Y-76908314D01*
X118607408Y-76962000D01*
X118882592Y-76962000D01*
X119152490Y-76908314D01*
X119406727Y-76803005D01*
X119635535Y-76650120D01*
X119830120Y-76455535D01*
X119983005Y-76226727D01*
X120015000Y-76149485D01*
X120046995Y-76226727D01*
X120199880Y-76455535D01*
X120394465Y-76650120D01*
X120623273Y-76803005D01*
X120877510Y-76908314D01*
X121147408Y-76962000D01*
X121422592Y-76962000D01*
X121692490Y-76908314D01*
X121946727Y-76803005D01*
X122175535Y-76650120D01*
X122370120Y-76455535D01*
X122523005Y-76226727D01*
X122628314Y-75972490D01*
X122682000Y-75702592D01*
X122682000Y-75427408D01*
X122628314Y-75157510D01*
X122523005Y-74903273D01*
X122370120Y-74674465D01*
X122175535Y-74479880D01*
X121946727Y-74326995D01*
X121692490Y-74221686D01*
X121422592Y-74168000D01*
X121147408Y-74168000D01*
X120877510Y-74221686D01*
X120623273Y-74326995D01*
X120394465Y-74479880D01*
X120199880Y-74674465D01*
X120046995Y-74903273D01*
X120015000Y-74980515D01*
X119983005Y-74903273D01*
X119830120Y-74674465D01*
X119635535Y-74479880D01*
X119406727Y-74326995D01*
X119152490Y-74221686D01*
X118882592Y-74168000D01*
X118607408Y-74168000D01*
X118337510Y-74221686D01*
X118083273Y-74326995D01*
X117854465Y-74479880D01*
X117659880Y-74674465D01*
X117506995Y-74903273D01*
X117475000Y-74980515D01*
X117443005Y-74903273D01*
X117290120Y-74674465D01*
X117095535Y-74479880D01*
X116866727Y-74326995D01*
X116612490Y-74221686D01*
X116342592Y-74168000D01*
X116067408Y-74168000D01*
X115797510Y-74221686D01*
X115543273Y-74326995D01*
X115314465Y-74479880D01*
X115119880Y-74674465D01*
X114966995Y-74903273D01*
X114935000Y-74980515D01*
X114903005Y-74903273D01*
X114750120Y-74674465D01*
X114555535Y-74479880D01*
X114326727Y-74326995D01*
X114072490Y-74221686D01*
X113802592Y-74168000D01*
X113527408Y-74168000D01*
X113257510Y-74221686D01*
X113003273Y-74326995D01*
X112774465Y-74479880D01*
X112579880Y-74674465D01*
X112426995Y-74903273D01*
X112395000Y-74980515D01*
X112363005Y-74903273D01*
X112210120Y-74674465D01*
X112015535Y-74479880D01*
X111786727Y-74326995D01*
X111532490Y-74221686D01*
X111262592Y-74168000D01*
X110987408Y-74168000D01*
X110717510Y-74221686D01*
X110463273Y-74326995D01*
X110234465Y-74479880D01*
X110039880Y-74674465D01*
X109886995Y-74903273D01*
X109855000Y-74980515D01*
X109823005Y-74903273D01*
X109670120Y-74674465D01*
X109475535Y-74479880D01*
X109246727Y-74326995D01*
X108992490Y-74221686D01*
X108722592Y-74168000D01*
X108447408Y-74168000D01*
X108177510Y-74221686D01*
X107923273Y-74326995D01*
X107694465Y-74479880D01*
X107499880Y-74674465D01*
X107346995Y-74903273D01*
X107241686Y-75157510D01*
X107188000Y-75427408D01*
X106170000Y-75427408D01*
X106170000Y-70164801D01*
X107629802Y-68705000D01*
X109202136Y-68705000D01*
X109158225Y-68811011D01*
G37*
%TD.AperFunction*%
D23*
X117630363Y-101879759D02*
X117830241Y-102079637D01*
X118065273Y-102236680D01*
X118326426Y-102344853D01*
X118603665Y-102400000D01*
X118886335Y-102400000D01*
X119068887Y-102363688D01*
X121795000Y-105089802D01*
X121795000Y-107351256D01*
X121674405Y-107301304D01*
X121416486Y-107250000D01*
X121153514Y-107250000D01*
X121046157Y-107271355D01*
X117600000Y-103825199D01*
X117600000Y-101834317D01*
X117630363Y-101879759D01*
%TA.AperFunction,NonConductor*%
D24*
G36*
X117630363Y-101879759D02*
G01*
X117830241Y-102079637D01*
X118065273Y-102236680D01*
X118326426Y-102344853D01*
X118603665Y-102400000D01*
X118886335Y-102400000D01*
X119068887Y-102363688D01*
X121795000Y-105089802D01*
X121795000Y-107351256D01*
X121674405Y-107301304D01*
X121416486Y-107250000D01*
X121153514Y-107250000D01*
X121046157Y-107271355D01*
X117600000Y-103825199D01*
X117600000Y-101834317D01*
X117630363Y-101879759D01*
G37*
%TD.AperFunction*%
D23*
X118875198Y-107250000D02*
X118613514Y-107250000D01*
X118506157Y-107271355D01*
X116965000Y-105730199D01*
X116965000Y-105339801D01*
X118875198Y-107250000D01*
%TA.AperFunction,NonConductor*%
D24*
G36*
X118875198Y-107250000D02*
G01*
X118613514Y-107250000D01*
X118506157Y-107271355D01*
X116965000Y-105730199D01*
X116965000Y-105339801D01*
X118875198Y-107250000D01*
G37*
%TD.AperFunction*%
D23*
X116335198Y-107250000D02*
X116330000Y-107250000D01*
X116330000Y-107244802D01*
X116335198Y-107250000D01*
%TA.AperFunction,NonConductor*%
D24*
G36*
X116335198Y-107250000D02*
G01*
X116330000Y-107250000D01*
X116330000Y-107244802D01*
X116335198Y-107250000D01*
G37*
%TD.AperFunction*%
D23*
X122430000Y-103184802D02*
X122430000Y-103575198D01*
X120143688Y-101288887D01*
X120180000Y-101106335D01*
X120180000Y-100934801D01*
X122430000Y-103184802D01*
%TA.AperFunction,NonConductor*%
D24*
G36*
X122430000Y-103184802D02*
G01*
X122430000Y-103575198D01*
X120143688Y-101288887D01*
X120180000Y-101106335D01*
X120180000Y-100934801D01*
X122430000Y-103184802D01*
G37*
%TD.AperFunction*%
D23*
X117630363Y-99339759D02*
X117830241Y-99539637D01*
X118062759Y-99695000D01*
X117830241Y-99850363D01*
X117630363Y-100050241D01*
X117600000Y-100095683D01*
X117600000Y-99294317D01*
X117630363Y-99339759D01*
%TA.AperFunction,NonConductor*%
D24*
G36*
X117630363Y-99339759D02*
G01*
X117830241Y-99539637D01*
X118062759Y-99695000D01*
X117830241Y-99850363D01*
X117630363Y-100050241D01*
X117600000Y-100095683D01*
X117600000Y-99294317D01*
X117630363Y-99339759D01*
G37*
%TD.AperFunction*%
D23*
X110010363Y-99339759D02*
X110210241Y-99539637D01*
X110442759Y-99695000D01*
X110210241Y-99850363D01*
X110010363Y-100050241D01*
X109980000Y-100095683D01*
X109980000Y-99294317D01*
X110010363Y-99339759D01*
%TA.AperFunction,NonConductor*%
D24*
G36*
X110010363Y-99339759D02*
G01*
X110210241Y-99539637D01*
X110442759Y-99695000D01*
X110210241Y-99850363D01*
X110010363Y-100050241D01*
X109980000Y-100095683D01*
X109980000Y-99294317D01*
X110010363Y-99339759D01*
G37*
%TD.AperFunction*%
D23*
X117630363Y-96799759D02*
X117830241Y-96999637D01*
X118062759Y-97155000D01*
X117830241Y-97310363D01*
X117630363Y-97510241D01*
X117600000Y-97555683D01*
X117600000Y-96754317D01*
X117630363Y-96799759D01*
%TA.AperFunction,NonConductor*%
D24*
G36*
X117630363Y-96799759D02*
G01*
X117830241Y-96999637D01*
X118062759Y-97155000D01*
X117830241Y-97310363D01*
X117630363Y-97510241D01*
X117600000Y-97555683D01*
X117600000Y-96754317D01*
X117630363Y-96799759D01*
G37*
%TD.AperFunction*%
D23*
X110010363Y-96799759D02*
X110210241Y-96999637D01*
X110442759Y-97155000D01*
X110210241Y-97310363D01*
X110010363Y-97510241D01*
X109980000Y-97555683D01*
X109980000Y-96754317D01*
X110010363Y-96799759D01*
%TA.AperFunction,NonConductor*%
D24*
G36*
X110010363Y-96799759D02*
G01*
X110210241Y-96999637D01*
X110442759Y-97155000D01*
X110210241Y-97310363D01*
X110010363Y-97510241D01*
X109980000Y-97555683D01*
X109980000Y-96754317D01*
X110010363Y-96799759D01*
G37*
%TD.AperFunction*%
D23*
X117310000Y-90946335D02*
X117365147Y-91223574D01*
X117473320Y-91484727D01*
X117630363Y-91719759D01*
X117830241Y-91919637D01*
X118062759Y-92075000D01*
X117830241Y-92230363D01*
X117630363Y-92430241D01*
X117473320Y-92665273D01*
X117365147Y-92926426D01*
X117310000Y-93203665D01*
X117310000Y-93486335D01*
X117346312Y-93668886D01*
X116965000Y-94050199D01*
X116965000Y-91119801D01*
X117310000Y-90774801D01*
X117310000Y-90946335D01*
%TA.AperFunction,NonConductor*%
D24*
G36*
X117310000Y-90946335D02*
G01*
X117365147Y-91223574D01*
X117473320Y-91484727D01*
X117630363Y-91719759D01*
X117830241Y-91919637D01*
X118062759Y-92075000D01*
X117830241Y-92230363D01*
X117630363Y-92430241D01*
X117473320Y-92665273D01*
X117365147Y-92926426D01*
X117310000Y-93203665D01*
X117310000Y-93486335D01*
X117346312Y-93668886D01*
X116965000Y-94050199D01*
X116965000Y-91119801D01*
X117310000Y-90774801D01*
X117310000Y-90946335D01*
G37*
%TD.AperFunction*%
D23*
X109690000Y-88406335D02*
X109745147Y-88683574D01*
X109853320Y-88944727D01*
X110010363Y-89179759D01*
X110210241Y-89379637D01*
X110442759Y-89535000D01*
X110210241Y-89690363D01*
X110010363Y-89890241D01*
X109853320Y-90125273D01*
X109745147Y-90386426D01*
X109690000Y-90663665D01*
X109690000Y-90946335D01*
X109745147Y-91223574D01*
X109853320Y-91484727D01*
X110010363Y-91719759D01*
X110210241Y-91919637D01*
X110442759Y-92075000D01*
X110210241Y-92230363D01*
X110010363Y-92430241D01*
X109853320Y-92665273D01*
X109745147Y-92926426D01*
X109690000Y-93203665D01*
X109690000Y-93486335D01*
X109726312Y-93668886D01*
X109345000Y-94050199D01*
X109345000Y-88579801D01*
X109690000Y-88234801D01*
X109690000Y-88406335D01*
%TA.AperFunction,NonConductor*%
D24*
G36*
X109690000Y-88406335D02*
G01*
X109745147Y-88683574D01*
X109853320Y-88944727D01*
X110010363Y-89179759D01*
X110210241Y-89379637D01*
X110442759Y-89535000D01*
X110210241Y-89690363D01*
X110010363Y-89890241D01*
X109853320Y-90125273D01*
X109745147Y-90386426D01*
X109690000Y-90663665D01*
X109690000Y-90946335D01*
X109745147Y-91223574D01*
X109853320Y-91484727D01*
X110010363Y-91719759D01*
X110210241Y-91919637D01*
X110442759Y-92075000D01*
X110210241Y-92230363D01*
X110010363Y-92430241D01*
X109853320Y-92665273D01*
X109745147Y-92926426D01*
X109690000Y-93203665D01*
X109690000Y-93486335D01*
X109726312Y-93668886D01*
X109345000Y-94050199D01*
X109345000Y-88579801D01*
X109690000Y-88234801D01*
X109690000Y-88406335D01*
G37*
%TD.AperFunction*%
D23*
X128145000Y-73339802D02*
X128145001Y-82870196D01*
X125854002Y-85161197D01*
X125853997Y-85161201D01*
X123631502Y-87383697D01*
X123631497Y-87383701D01*
X120180000Y-90835199D01*
X120180000Y-90663665D01*
X120124853Y-90386426D01*
X120016680Y-90125273D01*
X119859637Y-89890241D01*
X119659759Y-89690363D01*
X119427241Y-89535000D01*
X119659759Y-89379637D01*
X119859637Y-89179759D01*
X120016680Y-88944727D01*
X120124853Y-88683574D01*
X120180000Y-88406335D01*
X120180000Y-88123665D01*
X120143688Y-87941113D01*
X124388799Y-83696003D01*
X127511003Y-80573799D01*
X127540001Y-80550001D01*
X127615013Y-80458599D01*
X127634974Y-80434277D01*
X127705546Y-80302247D01*
X127738081Y-80194990D01*
X127749003Y-80158986D01*
X127760000Y-80047333D01*
X127760000Y-80047324D01*
X127763676Y-80010001D01*
X127760000Y-79972678D01*
X127760000Y-73697322D01*
X127763676Y-73659999D01*
X127760000Y-73622676D01*
X127760000Y-73622667D01*
X127749003Y-73511014D01*
X127705546Y-73367753D01*
X127634975Y-73235725D01*
X127634974Y-73235723D01*
X127563799Y-73148997D01*
X127540001Y-73119999D01*
X127511004Y-73096202D01*
X124389801Y-69975000D01*
X124780199Y-69975000D01*
X128145000Y-73339802D01*
%TA.AperFunction,NonConductor*%
D24*
G36*
X128145000Y-73339802D02*
G01*
X128145001Y-82870196D01*
X125854002Y-85161197D01*
X125853997Y-85161201D01*
X123631502Y-87383697D01*
X123631497Y-87383701D01*
X120180000Y-90835199D01*
X120180000Y-90663665D01*
X120124853Y-90386426D01*
X120016680Y-90125273D01*
X119859637Y-89890241D01*
X119659759Y-89690363D01*
X119427241Y-89535000D01*
X119659759Y-89379637D01*
X119859637Y-89179759D01*
X120016680Y-88944727D01*
X120124853Y-88683574D01*
X120180000Y-88406335D01*
X120180000Y-88123665D01*
X120143688Y-87941113D01*
X124388799Y-83696003D01*
X127511003Y-80573799D01*
X127540001Y-80550001D01*
X127615013Y-80458599D01*
X127634974Y-80434277D01*
X127705546Y-80302247D01*
X127738081Y-80194990D01*
X127749003Y-80158986D01*
X127760000Y-80047333D01*
X127760000Y-80047324D01*
X127763676Y-80010001D01*
X127760000Y-79972678D01*
X127760000Y-73697322D01*
X127763676Y-73659999D01*
X127760000Y-73622676D01*
X127760000Y-73622667D01*
X127749003Y-73511014D01*
X127705546Y-73367753D01*
X127634975Y-73235725D01*
X127634974Y-73235723D01*
X127563799Y-73148997D01*
X127540001Y-73119999D01*
X127511004Y-73096202D01*
X124389801Y-69975000D01*
X124780199Y-69975000D01*
X128145000Y-73339802D01*
G37*
%TD.AperFunction*%
D23*
X112905001Y-90490196D02*
X112560000Y-90835197D01*
X112560000Y-90663665D01*
X112504853Y-90386426D01*
X112396680Y-90125273D01*
X112239637Y-89890241D01*
X112039759Y-89690363D01*
X111807241Y-89535000D01*
X112039759Y-89379637D01*
X112239637Y-89179759D01*
X112396680Y-88944727D01*
X112504853Y-88683574D01*
X112560000Y-88406335D01*
X112560000Y-88123665D01*
X112504853Y-87846426D01*
X112396680Y-87585273D01*
X112239637Y-87350241D01*
X112039759Y-87150363D01*
X111807241Y-86995000D01*
X112039759Y-86839637D01*
X112239637Y-86639759D01*
X112396680Y-86404727D01*
X112504853Y-86143574D01*
X112560000Y-85866335D01*
X112560000Y-85583665D01*
X112523688Y-85401114D01*
X112905000Y-85019801D01*
X112905001Y-90490196D01*
%TA.AperFunction,NonConductor*%
D24*
G36*
X112905001Y-90490196D02*
G01*
X112560000Y-90835197D01*
X112560000Y-90663665D01*
X112504853Y-90386426D01*
X112396680Y-90125273D01*
X112239637Y-89890241D01*
X112039759Y-89690363D01*
X111807241Y-89535000D01*
X112039759Y-89379637D01*
X112239637Y-89179759D01*
X112396680Y-88944727D01*
X112504853Y-88683574D01*
X112560000Y-88406335D01*
X112560000Y-88123665D01*
X112504853Y-87846426D01*
X112396680Y-87585273D01*
X112239637Y-87350241D01*
X112039759Y-87150363D01*
X111807241Y-86995000D01*
X112039759Y-86839637D01*
X112239637Y-86639759D01*
X112396680Y-86404727D01*
X112504853Y-86143574D01*
X112560000Y-85866335D01*
X112560000Y-85583665D01*
X112523688Y-85401114D01*
X112905000Y-85019801D01*
X112905001Y-90490196D01*
G37*
%TD.AperFunction*%
D23*
X117310000Y-88406335D02*
X117346312Y-88588886D01*
X116330000Y-89605198D01*
X116330000Y-89214801D01*
X117310000Y-88234801D01*
X117310000Y-88406335D01*
%TA.AperFunction,NonConductor*%
D24*
G36*
X117310000Y-88406335D02*
G01*
X117346312Y-88588886D01*
X116330000Y-89605198D01*
X116330000Y-89214801D01*
X117310000Y-88234801D01*
X117310000Y-88406335D01*
G37*
%TD.AperFunction*%
D23*
X126240000Y-73974802D02*
X126240001Y-79695197D01*
X123313997Y-82621201D01*
X120180000Y-85755199D01*
X120180000Y-85583665D01*
X120143688Y-85401113D01*
X125606003Y-79938799D01*
X125635001Y-79915001D01*
X125679886Y-79860309D01*
X125729974Y-79799277D01*
X125800546Y-79667247D01*
X125825703Y-79584314D01*
X125844003Y-79523986D01*
X125855000Y-79412333D01*
X125855000Y-79412324D01*
X125858676Y-79375001D01*
X125855000Y-79337678D01*
X125855000Y-73697323D01*
X125858676Y-73660000D01*
X125855000Y-73622677D01*
X125855000Y-73622667D01*
X125851409Y-73586211D01*
X126240000Y-73974802D01*
%TA.AperFunction,NonConductor*%
D24*
G36*
X126240000Y-73974802D02*
G01*
X126240001Y-79695197D01*
X123313997Y-82621201D01*
X120180000Y-85755199D01*
X120180000Y-85583665D01*
X120143688Y-85401113D01*
X125606003Y-79938799D01*
X125635001Y-79915001D01*
X125679886Y-79860309D01*
X125729974Y-79799277D01*
X125800546Y-79667247D01*
X125825703Y-79584314D01*
X125844003Y-79523986D01*
X125855000Y-79412333D01*
X125855000Y-79412324D01*
X125858676Y-79375001D01*
X125855000Y-79337678D01*
X125855000Y-73697323D01*
X125858676Y-73660000D01*
X125855000Y-73622677D01*
X125855000Y-73622667D01*
X125851409Y-73586211D01*
X126240000Y-73974802D01*
G37*
%TD.AperFunction*%
D23*
X110732669Y-81405000D02*
X110732679Y-81405000D01*
X110770001Y-81408676D01*
X110807324Y-81405000D01*
X111445199Y-81405000D01*
X111787127Y-81746928D01*
X110761730Y-81746928D01*
X110419097Y-81404295D01*
X110725511Y-81404295D01*
X110732669Y-81405000D01*
%TA.AperFunction,NonConductor*%
D24*
G36*
X110732669Y-81405000D02*
G01*
X110732679Y-81405000D01*
X110770001Y-81408676D01*
X110807324Y-81405000D01*
X111445199Y-81405000D01*
X111787127Y-81746928D01*
X110761730Y-81746928D01*
X110419097Y-81404295D01*
X110725511Y-81404295D01*
X110732669Y-81405000D01*
G37*
%TD.AperFunction*%
D23*
X115612629Y-67331043D02*
X115764201Y-67557886D01*
X115957114Y-67750799D01*
X116080000Y-67832909D01*
X116080000Y-67927136D01*
X115973989Y-67883225D01*
X115706411Y-67830000D01*
X115433589Y-67830000D01*
X115166011Y-67883225D01*
X114913957Y-67987629D01*
X114687114Y-68139201D01*
X114494201Y-68332114D01*
X114342629Y-68558957D01*
X114300000Y-68661873D01*
X114257371Y-68558957D01*
X114105799Y-68332114D01*
X113912886Y-68139201D01*
X113686043Y-67987629D01*
X113433989Y-67883225D01*
X113166411Y-67830000D01*
X112893589Y-67830000D01*
X112748635Y-67858833D01*
X112641516Y-67751715D01*
X112642886Y-67750799D01*
X112835799Y-67557886D01*
X112987371Y-67331043D01*
X113030000Y-67228127D01*
X113072629Y-67331043D01*
X113224201Y-67557886D01*
X113417114Y-67750799D01*
X113643957Y-67902371D01*
X113896011Y-68006775D01*
X114163589Y-68060000D01*
X114436411Y-68060000D01*
X114703989Y-68006775D01*
X114956043Y-67902371D01*
X115182886Y-67750799D01*
X115375799Y-67557886D01*
X115527371Y-67331043D01*
X115570000Y-67228127D01*
X115612629Y-67331043D01*
%TA.AperFunction,NonConductor*%
D24*
G36*
X115612629Y-67331043D02*
G01*
X115764201Y-67557886D01*
X115957114Y-67750799D01*
X116080000Y-67832909D01*
X116080000Y-67927136D01*
X115973989Y-67883225D01*
X115706411Y-67830000D01*
X115433589Y-67830000D01*
X115166011Y-67883225D01*
X114913957Y-67987629D01*
X114687114Y-68139201D01*
X114494201Y-68332114D01*
X114342629Y-68558957D01*
X114300000Y-68661873D01*
X114257371Y-68558957D01*
X114105799Y-68332114D01*
X113912886Y-68139201D01*
X113686043Y-67987629D01*
X113433989Y-67883225D01*
X113166411Y-67830000D01*
X112893589Y-67830000D01*
X112748635Y-67858833D01*
X112641516Y-67751715D01*
X112642886Y-67750799D01*
X112835799Y-67557886D01*
X112987371Y-67331043D01*
X113030000Y-67228127D01*
X113072629Y-67331043D01*
X113224201Y-67557886D01*
X113417114Y-67750799D01*
X113643957Y-67902371D01*
X113896011Y-68006775D01*
X114163589Y-68060000D01*
X114436411Y-68060000D01*
X114703989Y-68006775D01*
X114956043Y-67902371D01*
X115182886Y-67750799D01*
X115375799Y-67557886D01*
X115527371Y-67331043D01*
X115570000Y-67228127D01*
X115612629Y-67331043D01*
G37*
%TD.AperFunction*%
D23*
X125605000Y-60639802D02*
X125605001Y-62517246D01*
X125605000Y-62517256D01*
X125605001Y-67241288D01*
X125561063Y-67285226D01*
X125447795Y-67454744D01*
X125369774Y-67643102D01*
X125330000Y-67843061D01*
X125330000Y-68046939D01*
X125369774Y-68246898D01*
X125447795Y-68435256D01*
X125561063Y-68604774D01*
X125614295Y-68658006D01*
X125519276Y-68580026D01*
X125387247Y-68509454D01*
X125243986Y-68465997D01*
X125132333Y-68455000D01*
X125132322Y-68455000D01*
X125095000Y-68451324D01*
X125057678Y-68455000D01*
X124729013Y-68455000D01*
X124742205Y-68435256D01*
X124820226Y-68246898D01*
X124860000Y-68046939D01*
X124860000Y-67843061D01*
X124820226Y-67643102D01*
X124742205Y-67454744D01*
X124628937Y-67285226D01*
X124585000Y-67241289D01*
X124585000Y-59619802D01*
X125605000Y-60639802D01*
%TA.AperFunction,NonConductor*%
D24*
G36*
X125605000Y-60639802D02*
G01*
X125605001Y-62517246D01*
X125605000Y-62517256D01*
X125605001Y-67241288D01*
X125561063Y-67285226D01*
X125447795Y-67454744D01*
X125369774Y-67643102D01*
X125330000Y-67843061D01*
X125330000Y-68046939D01*
X125369774Y-68246898D01*
X125447795Y-68435256D01*
X125561063Y-68604774D01*
X125614295Y-68658006D01*
X125519276Y-68580026D01*
X125387247Y-68509454D01*
X125243986Y-68465997D01*
X125132333Y-68455000D01*
X125132322Y-68455000D01*
X125095000Y-68451324D01*
X125057678Y-68455000D01*
X124729013Y-68455000D01*
X124742205Y-68435256D01*
X124820226Y-68246898D01*
X124860000Y-68046939D01*
X124860000Y-67843061D01*
X124820226Y-67643102D01*
X124742205Y-67454744D01*
X124628937Y-67285226D01*
X124585000Y-67241289D01*
X124585000Y-59619802D01*
X125605000Y-60639802D01*
G37*
%TD.AperFunction*%
D23*
X118004188Y-67549482D02*
X118040498Y-67669180D01*
X118099463Y-67779494D01*
X118140912Y-67830000D01*
X117973589Y-67830000D01*
X117706011Y-67883225D01*
X117600000Y-67927136D01*
X117600000Y-67832909D01*
X117722886Y-67750799D01*
X117915799Y-67557886D01*
X117993555Y-67441517D01*
X118004188Y-67549482D01*
%TA.AperFunction,NonConductor*%
D24*
G36*
X118004188Y-67549482D02*
G01*
X118040498Y-67669180D01*
X118099463Y-67779494D01*
X118140912Y-67830000D01*
X117973589Y-67830000D01*
X117706011Y-67883225D01*
X117600000Y-67927136D01*
X117600000Y-67832909D01*
X117722886Y-67750799D01*
X117915799Y-67557886D01*
X117993555Y-67441517D01*
X118004188Y-67549482D01*
G37*
%TD.AperFunction*%
D23*
X75641367Y-55388400D02*
X75653096Y-55268778D01*
X75688460Y-55151646D01*
X75641367Y-55388400D01*
%TA.AperFunction,NonConductor*%
D24*
G36*
X75641367Y-55388400D02*
G01*
X75653096Y-55268778D01*
X75688460Y-55151646D01*
X75641367Y-55388400D01*
G37*
%TD.AperFunction*%
D23*
X130082563Y-55247244D02*
X130096015Y-55375239D01*
X130048969Y-55138719D01*
X130082563Y-55247244D01*
%TA.AperFunction,NonConductor*%
D24*
G36*
X130082563Y-55247244D02*
G01*
X130096015Y-55375239D01*
X130048969Y-55138719D01*
X130082563Y-55247244D01*
G37*
%TD.AperFunction*%
D23*
X75796181Y-54794856D02*
X75830606Y-54680836D01*
X75888550Y-54571860D01*
X75796181Y-54794856D01*
%TA.AperFunction,NonConductor*%
D24*
G36*
X75796181Y-54794856D02*
G01*
X75830606Y-54680836D01*
X75888550Y-54571860D01*
X75796181Y-54794856D01*
G37*
%TD.AperFunction*%
D23*
X129900951Y-54660552D02*
X129938700Y-54782500D01*
X129846390Y-54559643D01*
X129900951Y-54660552D01*
%TA.AperFunction,NonConductor*%
D24*
G36*
X129900951Y-54660552D02*
G01*
X129938700Y-54782500D01*
X129846390Y-54559643D01*
X129900951Y-54660552D01*
G37*
%TD.AperFunction*%
D23*
X76063529Y-54242770D02*
X76118937Y-54138564D01*
X76197621Y-54042087D01*
X76063529Y-54242770D01*
%TA.AperFunction,NonConductor*%
D24*
G36*
X76063529Y-54242770D02*
G01*
X76118937Y-54138564D01*
X76197621Y-54042087D01*
X76063529Y-54242770D01*
G37*
%TD.AperFunction*%
D23*
X129608845Y-54120314D02*
X129669063Y-54231684D01*
X129535021Y-54031075D01*
X129608845Y-54120314D01*
%TA.AperFunction,NonConductor*%
D24*
G36*
X129608845Y-54120314D02*
G01*
X129669063Y-54231684D01*
X129535021Y-54031075D01*
X129608845Y-54120314D01*
G37*
%TD.AperFunction*%
D23*
X76433197Y-53753243D02*
X76507094Y-53662636D01*
X76603835Y-53582605D01*
X76433197Y-53753243D01*
%TA.AperFunction,NonConductor*%
D24*
G36*
X76433197Y-53753243D02*
G01*
X76507094Y-53662636D01*
X76603835Y-53582605D01*
X76433197Y-53753243D01*
G37*
%TD.AperFunction*%
D23*
X129217364Y-53647094D02*
X129297395Y-53743835D01*
X129126757Y-53573197D01*
X129217364Y-53647094D01*
%TA.AperFunction,NonConductor*%
D24*
G36*
X129217364Y-53647094D02*
G01*
X129297395Y-53743835D01*
X129126757Y-53573197D01*
X129217364Y-53647094D01*
G37*
%TD.AperFunction*%
D23*
X76891075Y-53344979D02*
X76980314Y-53271155D01*
X77091684Y-53210937D01*
X76891075Y-53344979D01*
%TA.AperFunction,NonConductor*%
D24*
G36*
X76891075Y-53344979D02*
G01*
X76980314Y-53271155D01*
X77091684Y-53210937D01*
X76891075Y-53344979D01*
G37*
%TD.AperFunction*%
D23*
X128741436Y-53258937D02*
X128837913Y-53337621D01*
X128637230Y-53203529D01*
X128741436Y-53258937D01*
%TA.AperFunction,NonConductor*%
D24*
G36*
X128741436Y-53258937D02*
G01*
X128837913Y-53337621D01*
X128637230Y-53203529D01*
X128741436Y-53258937D01*
G37*
%TD.AperFunction*%
D23*
X77419643Y-53033610D02*
X77520552Y-52979049D01*
X77642500Y-52941300D01*
X77419643Y-53033610D01*
%TA.AperFunction,NonConductor*%
D24*
G36*
X77419643Y-53033610D02*
G01*
X77520552Y-52979049D01*
X77642500Y-52941300D01*
X77419643Y-53033610D01*
G37*
%TD.AperFunction*%
D23*
X128199164Y-52970606D02*
X128308140Y-53028550D01*
X128085144Y-52936181D01*
X128199164Y-52970606D01*
%TA.AperFunction,NonConductor*%
D24*
G36*
X128199164Y-52970606D02*
G01*
X128308140Y-53028550D01*
X128085144Y-52936181D01*
X128199164Y-52970606D01*
G37*
%TD.AperFunction*%
D23*
X77998719Y-52831031D02*
X78107244Y-52797437D01*
X78235239Y-52783985D01*
X77998719Y-52831031D01*
%TA.AperFunction,NonConductor*%
D24*
G36*
X77998719Y-52831031D02*
G01*
X78107244Y-52797437D01*
X78235239Y-52783985D01*
X77998719Y-52831031D01*
G37*
%TD.AperFunction*%
D23*
X127611222Y-52793096D02*
X127728354Y-52828460D01*
X127491600Y-52781367D01*
X127611222Y-52793096D01*
%TA.AperFunction,NonConductor*%
D24*
G36*
X127611222Y-52793096D02*
G01*
X127728354Y-52828460D01*
X127491600Y-52781367D01*
X127611222Y-52793096D01*
G37*
%TD.AperFunction*%
M02*
