%TF.GenerationSoftware,KiCad,Pcbnew,5.1.10-88a1d61d58~88~ubuntu18.04.1*%
%TF.CreationDate,2021-08-27T16:22:50+08:00*%
%TF.ProjectId,grip_strength,67726970-5f73-4747-9265-6e6774682e6b,rev?*%
%TF.SameCoordinates,Original*%
%TF.FileFunction,Soldermask,Top*%
%TF.FilePolarity,Negative*%
%FSLAX46Y46*%
G04 Gerber Fmt 4.6, Leading zero omitted, Abs format (unit mm)*
G04 Created by KiCad (PCBNEW 5.1.10-88a1d61d58~88~ubuntu18.04.1) date 2021-08-27 16:22:50*
%MOMM*%
%LPD*%
G01*
G04 APERTURE LIST*
%ADD10C,3.200000*%
%ADD11R,1.500000X1.500000*%
%ADD12C,1.500000*%
%ADD13R,1.524000X1.524000*%
%ADD14O,1.700000X1.700000*%
%ADD15R,1.700000X1.700000*%
%ADD16O,1.400000X1.400000*%
%ADD17C,1.400000*%
%ADD18C,1.524000*%
%ADD19O,1.600000X1.600000*%
%ADD20R,1.600000X1.600000*%
%ADD21C,2.000000*%
%ADD22C,5.000000*%
G04 APERTURE END LIST*
D10*
%TO.C,J1*%
X109220000Y-60325000D03*
X120650000Y-60325000D03*
D11*
X119380000Y-66675000D03*
D12*
X118110000Y-69215000D03*
X116840000Y-66675000D03*
X115570000Y-69215000D03*
X114300000Y-66675000D03*
X113030000Y-69215000D03*
X111760000Y-66675000D03*
X110490000Y-69215000D03*
%TD*%
D13*
%TO.C,U1*%
X104775000Y-53975000D03*
X104775000Y-56515000D03*
X104775000Y-59055000D03*
X104775000Y-61595000D03*
X104775000Y-64135000D03*
X104775000Y-66675000D03*
X104775000Y-69215000D03*
X104775000Y-71755000D03*
X104775000Y-74295000D03*
X104775000Y-76835000D03*
X104775000Y-79375000D03*
X104775000Y-81915000D03*
X104775000Y-84455000D03*
X104775000Y-86995000D03*
X104775000Y-89535000D03*
X104775000Y-92075000D03*
X104775000Y-94615000D03*
X104775000Y-97155000D03*
X104775000Y-99695000D03*
X104775000Y-102235000D03*
X83185000Y-102235000D03*
X83185000Y-99695000D03*
X83185000Y-97155000D03*
X83185000Y-94615000D03*
X83185000Y-92075000D03*
X83185000Y-89535000D03*
X83185000Y-86995000D03*
X83185000Y-84455000D03*
X83185000Y-81915000D03*
X83185000Y-79375000D03*
X83185000Y-76835000D03*
X83312000Y-74295000D03*
X83185000Y-71755000D03*
X83185000Y-69215000D03*
X83185000Y-66675000D03*
X83185000Y-64135000D03*
X83185000Y-61595000D03*
X83185000Y-59055000D03*
X83185000Y-56515000D03*
X83185000Y-53975000D03*
%TD*%
D14*
%TO.C,U4*%
X96520000Y-113030000D03*
X99060000Y-113030000D03*
X101600000Y-113030000D03*
D15*
X104140000Y-113030000D03*
%TD*%
D16*
%TO.C,R6*%
X108585000Y-108585000D03*
D17*
X108585000Y-113665000D03*
%TD*%
D18*
%TO.C,U2*%
X108585000Y-75565000D03*
X111125000Y-75565000D03*
X113665000Y-75565000D03*
X116205000Y-75565000D03*
X118745000Y-75565000D03*
X121285000Y-75565000D03*
%TD*%
D19*
%TO.C,U3*%
X118745000Y-83185000D03*
X111125000Y-100965000D03*
X118745000Y-85725000D03*
X111125000Y-98425000D03*
X118745000Y-88265000D03*
X111125000Y-95885000D03*
X118745000Y-90805000D03*
X111125000Y-93345000D03*
X118745000Y-93345000D03*
X111125000Y-90805000D03*
X118745000Y-95885000D03*
X111125000Y-88265000D03*
X118745000Y-98425000D03*
X111125000Y-85725000D03*
X118745000Y-100965000D03*
D20*
X111125000Y-83185000D03*
%TD*%
D21*
%TO.C,SW1*%
X91440000Y-108530000D03*
X91440000Y-113030000D03*
X84940000Y-108530000D03*
X84940000Y-113030000D03*
%TD*%
D22*
%TO.C,H1*%
X78740000Y-55880000D03*
%TD*%
%TO.C,H2*%
X127000000Y-55880000D03*
%TD*%
%TO.C,H3*%
X78740000Y-114300000D03*
%TD*%
%TO.C,H4*%
X127000000Y-114300000D03*
%TD*%
D17*
%TO.C,R1*%
X121285000Y-113665000D03*
D16*
X121285000Y-108585000D03*
%TD*%
%TO.C,R2*%
X118745000Y-108585000D03*
D17*
X118745000Y-113665000D03*
%TD*%
%TO.C,R3*%
X116205000Y-113665000D03*
D16*
X116205000Y-108585000D03*
%TD*%
D17*
%TO.C,R4*%
X113665000Y-113665000D03*
D16*
X113665000Y-108585000D03*
%TD*%
%TO.C,R5*%
X111125000Y-108585000D03*
D17*
X111125000Y-113665000D03*
%TD*%
M02*
