M48
; DRILL file {KiCad 5.1.10-88a1d61d58~88~ubuntu18.04.1} date Fri Aug 27 16:23:00 2021
; FORMAT={-:-/ absolute / inch / decimal}
; #@! TF.CreationDate,2021-08-27T16:23:00+08:00
; #@! TF.GenerationSoftware,Kicad,Pcbnew,5.1.10-88a1d61d58~88~ubuntu18.04.1
; #@! TF.FileFunction,Plated,1,2,PTH
FMAT,2
INCH
T1C0.0157
T2C0.0276
T3C0.0299
T4C0.0300
T5C0.0315
T6C0.0394
T7C0.0433
T8C0.0984
%
G90
G05
T1
X3.35Y-2.125
X3.35Y-2.225
X3.8Y-2.625
X3.9Y-2.725
X3.95Y-2.425
X4.0Y-2.525
X4.875Y-2.675
X4.975Y-2.675
T2
X4.275Y-4.275
X4.275Y-4.475
X4.375Y-4.275
X4.375Y-4.475
X4.475Y-4.275
X4.475Y-4.475
X4.575Y-4.275
X4.575Y-4.475
X4.675Y-4.275
X4.675Y-4.475
X4.775Y-4.275
X4.775Y-4.475
T3
X4.35Y-2.725
X4.4Y-2.625
X4.45Y-2.725
X4.5Y-2.625
X4.55Y-2.725
X4.6Y-2.625
X4.65Y-2.725
X4.7Y-2.625
T4
X4.275Y-2.975
X4.375Y-2.975
X4.475Y-2.975
X4.575Y-2.975
X4.675Y-2.975
X4.775Y-2.975
T5
X4.375Y-3.275
X4.375Y-3.375
X4.375Y-3.475
X4.375Y-3.575
X4.375Y-3.675
X4.375Y-3.775
X4.375Y-3.875
X4.375Y-3.975
X4.675Y-3.275
X4.675Y-3.375
X4.675Y-3.475
X4.675Y-3.575
X4.675Y-3.675
X4.675Y-3.775
X4.675Y-3.875
X4.675Y-3.975
T6
X3.8Y-4.45
X3.9Y-4.45
X4.0Y-4.45
X4.1Y-4.45
T7
X3.3441Y-4.2728
X3.3441Y-4.45
X3.6Y-4.2728
X3.6Y-4.45
T8
X3.1Y-2.2
X3.1Y-4.5
X5.0Y-2.2
X5.0Y-4.5
T0
M30
