%TF.GenerationSoftware,KiCad,Pcbnew,5.1.10-88a1d61d58~88~ubuntu18.04.1*%
%TF.CreationDate,2021-08-27T16:22:50+08:00*%
%TF.ProjectId,grip_strength,67726970-5f73-4747-9265-6e6774682e6b,rev?*%
%TF.SameCoordinates,Original*%
%TF.FileFunction,Legend,Top*%
%TF.FilePolarity,Positive*%
%FSLAX46Y46*%
G04 Gerber Fmt 4.6, Leading zero omitted, Abs format (unit mm)*
G04 Created by KiCad (PCBNEW 5.1.10-88a1d61d58~88~ubuntu18.04.1) date 2021-08-27 16:22:50*
%MOMM*%
%LPD*%
G01*
G04 APERTURE LIST*
%ADD10C,0.150000*%
%ADD11C,0.300000*%
%ADD12C,0.120000*%
%ADD13C,0.125000*%
G04 APERTURE END LIST*
D10*
X97877619Y-110307380D02*
X97877619Y-109307380D01*
X98115714Y-109307380D01*
X98258571Y-109355000D01*
X98353809Y-109450238D01*
X98401428Y-109545476D01*
X98449047Y-109735952D01*
X98449047Y-109878809D01*
X98401428Y-110069285D01*
X98353809Y-110164523D01*
X98258571Y-110259761D01*
X98115714Y-110307380D01*
X97877619Y-110307380D01*
X98877619Y-110307380D02*
X98877619Y-109640714D01*
X98877619Y-109307380D02*
X98830000Y-109355000D01*
X98877619Y-109402619D01*
X98925238Y-109355000D01*
X98877619Y-109307380D01*
X98877619Y-109402619D01*
X99306190Y-110259761D02*
X99401428Y-110307380D01*
X99591904Y-110307380D01*
X99687142Y-110259761D01*
X99734761Y-110164523D01*
X99734761Y-110116904D01*
X99687142Y-110021666D01*
X99591904Y-109974047D01*
X99449047Y-109974047D01*
X99353809Y-109926428D01*
X99306190Y-109831190D01*
X99306190Y-109783571D01*
X99353809Y-109688333D01*
X99449047Y-109640714D01*
X99591904Y-109640714D01*
X99687142Y-109688333D01*
X100163333Y-109640714D02*
X100163333Y-110640714D01*
X100163333Y-109688333D02*
X100258571Y-109640714D01*
X100449047Y-109640714D01*
X100544285Y-109688333D01*
X100591904Y-109735952D01*
X100639523Y-109831190D01*
X100639523Y-110116904D01*
X100591904Y-110212142D01*
X100544285Y-110259761D01*
X100449047Y-110307380D01*
X100258571Y-110307380D01*
X100163333Y-110259761D01*
X101210952Y-110307380D02*
X101115714Y-110259761D01*
X101068095Y-110164523D01*
X101068095Y-109307380D01*
X102020476Y-110307380D02*
X102020476Y-109783571D01*
X101972857Y-109688333D01*
X101877619Y-109640714D01*
X101687142Y-109640714D01*
X101591904Y-109688333D01*
X102020476Y-110259761D02*
X101925238Y-110307380D01*
X101687142Y-110307380D01*
X101591904Y-110259761D01*
X101544285Y-110164523D01*
X101544285Y-110069285D01*
X101591904Y-109974047D01*
X101687142Y-109926428D01*
X101925238Y-109926428D01*
X102020476Y-109878809D01*
X102401428Y-109640714D02*
X102639523Y-110307380D01*
X102877619Y-109640714D02*
X102639523Y-110307380D01*
X102544285Y-110545476D01*
X102496666Y-110593095D01*
X102401428Y-110640714D01*
D11*
X78220000Y-89667142D02*
X78291428Y-89524285D01*
X78291428Y-89310000D01*
X78220000Y-89095714D01*
X78077142Y-88952857D01*
X77934285Y-88881428D01*
X77648571Y-88810000D01*
X77434285Y-88810000D01*
X77148571Y-88881428D01*
X77005714Y-88952857D01*
X76862857Y-89095714D01*
X76791428Y-89310000D01*
X76791428Y-89452857D01*
X76862857Y-89667142D01*
X76934285Y-89738571D01*
X77434285Y-89738571D01*
X77434285Y-89452857D01*
X76791428Y-90381428D02*
X77791428Y-90381428D01*
X77505714Y-90381428D02*
X77648571Y-90452857D01*
X77720000Y-90524285D01*
X77791428Y-90667142D01*
X77791428Y-90810000D01*
X76791428Y-91310000D02*
X77791428Y-91310000D01*
X78291428Y-91310000D02*
X78220000Y-91238571D01*
X78148571Y-91310000D01*
X78220000Y-91381428D01*
X78291428Y-91310000D01*
X78148571Y-91310000D01*
X77791428Y-92024285D02*
X76291428Y-92024285D01*
X77720000Y-92024285D02*
X77791428Y-92167142D01*
X77791428Y-92452857D01*
X77720000Y-92595714D01*
X77648571Y-92667142D01*
X77505714Y-92738571D01*
X77077142Y-92738571D01*
X76934285Y-92667142D01*
X76862857Y-92595714D01*
X76791428Y-92452857D01*
X76791428Y-92167142D01*
X76862857Y-92024285D01*
X76862857Y-94452857D02*
X76791428Y-94667142D01*
X76791428Y-95024285D01*
X76862857Y-95167142D01*
X76934285Y-95238571D01*
X77077142Y-95310000D01*
X77220000Y-95310000D01*
X77362857Y-95238571D01*
X77434285Y-95167142D01*
X77505714Y-95024285D01*
X77577142Y-94738571D01*
X77648571Y-94595714D01*
X77720000Y-94524285D01*
X77862857Y-94452857D01*
X78005714Y-94452857D01*
X78148571Y-94524285D01*
X78220000Y-94595714D01*
X78291428Y-94738571D01*
X78291428Y-95095714D01*
X78220000Y-95310000D01*
X77791428Y-95738571D02*
X77791428Y-96310000D01*
X78291428Y-95952857D02*
X77005714Y-95952857D01*
X76862857Y-96024285D01*
X76791428Y-96167142D01*
X76791428Y-96310000D01*
X76791428Y-96810000D02*
X77791428Y-96810000D01*
X77505714Y-96810000D02*
X77648571Y-96881428D01*
X77720000Y-96952857D01*
X77791428Y-97095714D01*
X77791428Y-97238571D01*
X76862857Y-98310000D02*
X76791428Y-98167142D01*
X76791428Y-97881428D01*
X76862857Y-97738571D01*
X77005714Y-97667142D01*
X77577142Y-97667142D01*
X77720000Y-97738571D01*
X77791428Y-97881428D01*
X77791428Y-98167142D01*
X77720000Y-98310000D01*
X77577142Y-98381428D01*
X77434285Y-98381428D01*
X77291428Y-97667142D01*
X77791428Y-99024285D02*
X76791428Y-99024285D01*
X77648571Y-99024285D02*
X77720000Y-99095714D01*
X77791428Y-99238571D01*
X77791428Y-99452857D01*
X77720000Y-99595714D01*
X77577142Y-99667142D01*
X76791428Y-99667142D01*
X77791428Y-101024285D02*
X76577142Y-101024285D01*
X76434285Y-100952857D01*
X76362857Y-100881428D01*
X76291428Y-100738571D01*
X76291428Y-100524285D01*
X76362857Y-100381428D01*
X76862857Y-101024285D02*
X76791428Y-100881428D01*
X76791428Y-100595714D01*
X76862857Y-100452857D01*
X76934285Y-100381428D01*
X77077142Y-100310000D01*
X77505714Y-100310000D01*
X77648571Y-100381428D01*
X77720000Y-100452857D01*
X77791428Y-100595714D01*
X77791428Y-100881428D01*
X77720000Y-101024285D01*
X77791428Y-101524285D02*
X77791428Y-102095714D01*
X78291428Y-101738571D02*
X77005714Y-101738571D01*
X76862857Y-101810000D01*
X76791428Y-101952857D01*
X76791428Y-102095714D01*
X76791428Y-102595714D02*
X78291428Y-102595714D01*
X76791428Y-103238571D02*
X77577142Y-103238571D01*
X77720000Y-103167142D01*
X77791428Y-103024285D01*
X77791428Y-102810000D01*
X77720000Y-102667142D01*
X77648571Y-102595714D01*
X78291428Y-104881428D02*
X76791428Y-105381428D01*
X78291428Y-105881428D01*
X76791428Y-107167142D02*
X76791428Y-106310000D01*
X76791428Y-106738571D02*
X78291428Y-106738571D01*
X78077142Y-106595714D01*
X77934285Y-106452857D01*
X77862857Y-106310000D01*
X76934285Y-107810000D02*
X76862857Y-107881428D01*
X76791428Y-107810000D01*
X76862857Y-107738571D01*
X76934285Y-107810000D01*
X76791428Y-107810000D01*
X78291428Y-108810000D02*
X78291428Y-108952857D01*
X78220000Y-109095714D01*
X78148571Y-109167142D01*
X78005714Y-109238571D01*
X77720000Y-109310000D01*
X77362857Y-109310000D01*
X77077142Y-109238571D01*
X76934285Y-109167142D01*
X76862857Y-109095714D01*
X76791428Y-108952857D01*
X76791428Y-108810000D01*
X76862857Y-108667142D01*
X76934285Y-108595714D01*
X77077142Y-108524285D01*
X77362857Y-108452857D01*
X77720000Y-108452857D01*
X78005714Y-108524285D01*
X78148571Y-108595714D01*
X78220000Y-108667142D01*
X78291428Y-108810000D01*
D12*
%TO.C,J1*%
X122695000Y-70555000D02*
X122695000Y-52595000D01*
X107175000Y-70555000D02*
X122695000Y-70555000D01*
X107175000Y-70555000D02*
X107175000Y-52595000D01*
X122695000Y-52595000D02*
X107175000Y-52595000D01*
X122880000Y-66675000D02*
X123380000Y-67175000D01*
X123380000Y-67175000D02*
X123380000Y-66175000D01*
X123380000Y-66175000D02*
X122880000Y-66675000D01*
%TO.C,U1*%
X104140000Y-103505000D02*
X83820000Y-103505000D01*
X104140000Y-52705000D02*
X104140000Y-103505000D01*
X83820000Y-52705000D02*
X104140000Y-52705000D01*
X83820000Y-52705000D02*
X83820000Y-103505000D01*
%TO.C,U4*%
X95190000Y-111700000D02*
X95190000Y-114360000D01*
X102870000Y-111700000D02*
X95190000Y-111700000D01*
X102870000Y-114360000D02*
X95190000Y-114360000D01*
X102870000Y-111700000D02*
X102870000Y-114360000D01*
X104140000Y-111700000D02*
X105470000Y-111700000D01*
X105470000Y-111700000D02*
X105470000Y-113030000D01*
%TO.C,R6*%
X107665000Y-113045000D02*
X107665000Y-109205000D01*
X109505000Y-113045000D02*
X109505000Y-109205000D01*
%TO.C,U2*%
X122555000Y-114935000D02*
X107315000Y-114935000D01*
X122555000Y-74295000D02*
X122555000Y-114935000D01*
X122555000Y-74295000D02*
X107315000Y-74295000D01*
X107315000Y-74295000D02*
X107315000Y-114935000D01*
%TO.C,U3*%
X115935000Y-81855000D02*
G75*
G02*
X113935000Y-81855000I-1000000J0D01*
G01*
X113935000Y-81855000D02*
X112285000Y-81855000D01*
X112285000Y-81855000D02*
X112285000Y-102295000D01*
X112285000Y-102295000D02*
X117585000Y-102295000D01*
X117585000Y-102295000D02*
X117585000Y-81855000D01*
X117585000Y-81855000D02*
X115935000Y-81855000D01*
%TO.C,SW1*%
X90440000Y-107530000D02*
X85940000Y-107530000D01*
X91690000Y-111530000D02*
X91690000Y-110030000D01*
X85940000Y-114030000D02*
X90440000Y-114030000D01*
X84690000Y-110030000D02*
X84690000Y-111530000D01*
%TO.C,R1*%
X122205000Y-113045000D02*
X122205000Y-109205000D01*
X120365000Y-113045000D02*
X120365000Y-109205000D01*
%TO.C,R2*%
X117825000Y-113045000D02*
X117825000Y-109205000D01*
X119665000Y-113045000D02*
X119665000Y-109205000D01*
%TO.C,R3*%
X117125000Y-113045000D02*
X117125000Y-109205000D01*
X115285000Y-113045000D02*
X115285000Y-109205000D01*
%TO.C,R4*%
X114585000Y-113045000D02*
X114585000Y-109205000D01*
X112745000Y-113045000D02*
X112745000Y-109205000D01*
%TO.C,R5*%
X110205000Y-113045000D02*
X110205000Y-109205000D01*
X112045000Y-113045000D02*
X112045000Y-109205000D01*
%TO.C,J1*%
D10*
X120316666Y-53427380D02*
X120316666Y-54141666D01*
X120269047Y-54284523D01*
X120173809Y-54379761D01*
X120030952Y-54427380D01*
X119935714Y-54427380D01*
X121316666Y-54427380D02*
X120745238Y-54427380D01*
X121030952Y-54427380D02*
X121030952Y-53427380D01*
X120935714Y-53570238D01*
X120840476Y-53665476D01*
X120745238Y-53713095D01*
%TO.C,U1*%
X95758095Y-54062380D02*
X95758095Y-54871904D01*
X95805714Y-54967142D01*
X95853333Y-55014761D01*
X95948571Y-55062380D01*
X96139047Y-55062380D01*
X96234285Y-55014761D01*
X96281904Y-54967142D01*
X96329523Y-54871904D01*
X96329523Y-54062380D01*
X97329523Y-55062380D02*
X96758095Y-55062380D01*
X97043809Y-55062380D02*
X97043809Y-54062380D01*
X96948571Y-54205238D01*
X96853333Y-54300476D01*
X96758095Y-54348095D01*
X100203095Y-96655000D02*
X100107857Y-96607380D01*
X99965000Y-96607380D01*
X99822142Y-96655000D01*
X99726904Y-96750238D01*
X99679285Y-96845476D01*
X99631666Y-97035952D01*
X99631666Y-97178809D01*
X99679285Y-97369285D01*
X99726904Y-97464523D01*
X99822142Y-97559761D01*
X99965000Y-97607380D01*
X100060238Y-97607380D01*
X100203095Y-97559761D01*
X100250714Y-97512142D01*
X100250714Y-97178809D01*
X100060238Y-97178809D01*
X100679285Y-97607380D02*
X100679285Y-96607380D01*
X101250714Y-97607380D01*
X101250714Y-96607380D01*
X101726904Y-97607380D02*
X101726904Y-96607380D01*
X101965000Y-96607380D01*
X102107857Y-96655000D01*
X102203095Y-96750238D01*
X102250714Y-96845476D01*
X102298333Y-97035952D01*
X102298333Y-97178809D01*
X102250714Y-97369285D01*
X102203095Y-97464523D01*
X102107857Y-97559761D01*
X101965000Y-97607380D01*
X101726904Y-97607380D01*
X99774523Y-99195000D02*
X99679285Y-99147380D01*
X99536428Y-99147380D01*
X99393571Y-99195000D01*
X99298333Y-99290238D01*
X99250714Y-99385476D01*
X99203095Y-99575952D01*
X99203095Y-99718809D01*
X99250714Y-99909285D01*
X99298333Y-100004523D01*
X99393571Y-100099761D01*
X99536428Y-100147380D01*
X99631666Y-100147380D01*
X99774523Y-100099761D01*
X99822142Y-100052142D01*
X99822142Y-99718809D01*
X99631666Y-99718809D01*
X100250714Y-100147380D02*
X100250714Y-99147380D01*
X100631666Y-99147380D01*
X100726904Y-99195000D01*
X100774523Y-99242619D01*
X100822142Y-99337857D01*
X100822142Y-99480714D01*
X100774523Y-99575952D01*
X100726904Y-99623571D01*
X100631666Y-99671190D01*
X100250714Y-99671190D01*
X101774523Y-100147380D02*
X101203095Y-100147380D01*
X101488809Y-100147380D02*
X101488809Y-99147380D01*
X101393571Y-99290238D01*
X101298333Y-99385476D01*
X101203095Y-99433095D01*
X102107857Y-99147380D02*
X102774523Y-99147380D01*
X102345952Y-100147380D01*
X99774523Y-81415000D02*
X99679285Y-81367380D01*
X99536428Y-81367380D01*
X99393571Y-81415000D01*
X99298333Y-81510238D01*
X99250714Y-81605476D01*
X99203095Y-81795952D01*
X99203095Y-81938809D01*
X99250714Y-82129285D01*
X99298333Y-82224523D01*
X99393571Y-82319761D01*
X99536428Y-82367380D01*
X99631666Y-82367380D01*
X99774523Y-82319761D01*
X99822142Y-82272142D01*
X99822142Y-81938809D01*
X99631666Y-81938809D01*
X100250714Y-82367380D02*
X100250714Y-81367380D01*
X100631666Y-81367380D01*
X100726904Y-81415000D01*
X100774523Y-81462619D01*
X100822142Y-81557857D01*
X100822142Y-81700714D01*
X100774523Y-81795952D01*
X100726904Y-81843571D01*
X100631666Y-81891190D01*
X100250714Y-81891190D01*
X101203095Y-81462619D02*
X101250714Y-81415000D01*
X101345952Y-81367380D01*
X101584047Y-81367380D01*
X101679285Y-81415000D01*
X101726904Y-81462619D01*
X101774523Y-81557857D01*
X101774523Y-81653095D01*
X101726904Y-81795952D01*
X101155476Y-82367380D01*
X101774523Y-82367380D01*
X102155476Y-81462619D02*
X102203095Y-81415000D01*
X102298333Y-81367380D01*
X102536428Y-81367380D01*
X102631666Y-81415000D01*
X102679285Y-81462619D01*
X102726904Y-81557857D01*
X102726904Y-81653095D01*
X102679285Y-81795952D01*
X102107857Y-82367380D01*
X102726904Y-82367380D01*
X100226904Y-79827380D02*
X99893571Y-79351190D01*
X99655476Y-79827380D02*
X99655476Y-78827380D01*
X100036428Y-78827380D01*
X100131666Y-78875000D01*
X100179285Y-78922619D01*
X100226904Y-79017857D01*
X100226904Y-79160714D01*
X100179285Y-79255952D01*
X100131666Y-79303571D01*
X100036428Y-79351190D01*
X99655476Y-79351190D01*
X100655476Y-78827380D02*
X100655476Y-79636904D01*
X100703095Y-79732142D01*
X100750714Y-79779761D01*
X100845952Y-79827380D01*
X101036428Y-79827380D01*
X101131666Y-79779761D01*
X101179285Y-79732142D01*
X101226904Y-79636904D01*
X101226904Y-78827380D01*
X101703095Y-79827380D02*
X101703095Y-78827380D01*
X102274523Y-79827380D01*
X102274523Y-78827380D01*
X99774523Y-101735000D02*
X99679285Y-101687380D01*
X99536428Y-101687380D01*
X99393571Y-101735000D01*
X99298333Y-101830238D01*
X99250714Y-101925476D01*
X99203095Y-102115952D01*
X99203095Y-102258809D01*
X99250714Y-102449285D01*
X99298333Y-102544523D01*
X99393571Y-102639761D01*
X99536428Y-102687380D01*
X99631666Y-102687380D01*
X99774523Y-102639761D01*
X99822142Y-102592142D01*
X99822142Y-102258809D01*
X99631666Y-102258809D01*
X100250714Y-102687380D02*
X100250714Y-101687380D01*
X100631666Y-101687380D01*
X100726904Y-101735000D01*
X100774523Y-101782619D01*
X100822142Y-101877857D01*
X100822142Y-102020714D01*
X100774523Y-102115952D01*
X100726904Y-102163571D01*
X100631666Y-102211190D01*
X100250714Y-102211190D01*
X101774523Y-102687380D02*
X101203095Y-102687380D01*
X101488809Y-102687380D02*
X101488809Y-101687380D01*
X101393571Y-101830238D01*
X101298333Y-101925476D01*
X101203095Y-101973095D01*
X102631666Y-101687380D02*
X102441190Y-101687380D01*
X102345952Y-101735000D01*
X102298333Y-101782619D01*
X102203095Y-101925476D01*
X102155476Y-102115952D01*
X102155476Y-102496904D01*
X102203095Y-102592142D01*
X102250714Y-102639761D01*
X102345952Y-102687380D01*
X102536428Y-102687380D01*
X102631666Y-102639761D01*
X102679285Y-102592142D01*
X102726904Y-102496904D01*
X102726904Y-102258809D01*
X102679285Y-102163571D01*
X102631666Y-102115952D01*
X102536428Y-102068333D01*
X102345952Y-102068333D01*
X102250714Y-102115952D01*
X102203095Y-102163571D01*
X102155476Y-102258809D01*
X99774523Y-94115000D02*
X99679285Y-94067380D01*
X99536428Y-94067380D01*
X99393571Y-94115000D01*
X99298333Y-94210238D01*
X99250714Y-94305476D01*
X99203095Y-94495952D01*
X99203095Y-94638809D01*
X99250714Y-94829285D01*
X99298333Y-94924523D01*
X99393571Y-95019761D01*
X99536428Y-95067380D01*
X99631666Y-95067380D01*
X99774523Y-95019761D01*
X99822142Y-94972142D01*
X99822142Y-94638809D01*
X99631666Y-94638809D01*
X100250714Y-95067380D02*
X100250714Y-94067380D01*
X100631666Y-94067380D01*
X100726904Y-94115000D01*
X100774523Y-94162619D01*
X100822142Y-94257857D01*
X100822142Y-94400714D01*
X100774523Y-94495952D01*
X100726904Y-94543571D01*
X100631666Y-94591190D01*
X100250714Y-94591190D01*
X101774523Y-95067380D02*
X101203095Y-95067380D01*
X101488809Y-95067380D02*
X101488809Y-94067380D01*
X101393571Y-94210238D01*
X101298333Y-94305476D01*
X101203095Y-94353095D01*
X102345952Y-94495952D02*
X102250714Y-94448333D01*
X102203095Y-94400714D01*
X102155476Y-94305476D01*
X102155476Y-94257857D01*
X102203095Y-94162619D01*
X102250714Y-94115000D01*
X102345952Y-94067380D01*
X102536428Y-94067380D01*
X102631666Y-94115000D01*
X102679285Y-94162619D01*
X102726904Y-94257857D01*
X102726904Y-94305476D01*
X102679285Y-94400714D01*
X102631666Y-94448333D01*
X102536428Y-94495952D01*
X102345952Y-94495952D01*
X102250714Y-94543571D01*
X102203095Y-94591190D01*
X102155476Y-94686428D01*
X102155476Y-94876904D01*
X102203095Y-94972142D01*
X102250714Y-95019761D01*
X102345952Y-95067380D01*
X102536428Y-95067380D01*
X102631666Y-95019761D01*
X102679285Y-94972142D01*
X102726904Y-94876904D01*
X102726904Y-94686428D01*
X102679285Y-94591190D01*
X102631666Y-94543571D01*
X102536428Y-94495952D01*
X99250714Y-55967380D02*
X99584047Y-56967380D01*
X99917380Y-55967380D01*
X100203095Y-56919761D02*
X100345952Y-56967380D01*
X100584047Y-56967380D01*
X100679285Y-56919761D01*
X100726904Y-56872142D01*
X100774523Y-56776904D01*
X100774523Y-56681666D01*
X100726904Y-56586428D01*
X100679285Y-56538809D01*
X100584047Y-56491190D01*
X100393571Y-56443571D01*
X100298333Y-56395952D01*
X100250714Y-56348333D01*
X100203095Y-56253095D01*
X100203095Y-56157857D01*
X100250714Y-56062619D01*
X100298333Y-56015000D01*
X100393571Y-55967380D01*
X100631666Y-55967380D01*
X100774523Y-56015000D01*
X101393571Y-56491190D02*
X101393571Y-56967380D01*
X101060238Y-55967380D02*
X101393571Y-56491190D01*
X101726904Y-55967380D01*
X102012619Y-56919761D02*
X102155476Y-56967380D01*
X102393571Y-56967380D01*
X102488809Y-56919761D01*
X102536428Y-56872142D01*
X102584047Y-56776904D01*
X102584047Y-56681666D01*
X102536428Y-56586428D01*
X102488809Y-56538809D01*
X102393571Y-56491190D01*
X102203095Y-56443571D01*
X102107857Y-56395952D01*
X102060238Y-56348333D01*
X102012619Y-56253095D01*
X102012619Y-56157857D01*
X102060238Y-56062619D01*
X102107857Y-56015000D01*
X102203095Y-55967380D01*
X102441190Y-55967380D01*
X102584047Y-56015000D01*
X100203095Y-71255000D02*
X100107857Y-71207380D01*
X99965000Y-71207380D01*
X99822142Y-71255000D01*
X99726904Y-71350238D01*
X99679285Y-71445476D01*
X99631666Y-71635952D01*
X99631666Y-71778809D01*
X99679285Y-71969285D01*
X99726904Y-72064523D01*
X99822142Y-72159761D01*
X99965000Y-72207380D01*
X100060238Y-72207380D01*
X100203095Y-72159761D01*
X100250714Y-72112142D01*
X100250714Y-71778809D01*
X100060238Y-71778809D01*
X100679285Y-72207380D02*
X100679285Y-71207380D01*
X101250714Y-72207380D01*
X101250714Y-71207380D01*
X101726904Y-72207380D02*
X101726904Y-71207380D01*
X101965000Y-71207380D01*
X102107857Y-71255000D01*
X102203095Y-71350238D01*
X102250714Y-71445476D01*
X102298333Y-71635952D01*
X102298333Y-71778809D01*
X102250714Y-71969285D01*
X102203095Y-72064523D01*
X102107857Y-72159761D01*
X101965000Y-72207380D01*
X101726904Y-72207380D01*
X100203095Y-83955000D02*
X100107857Y-83907380D01*
X99965000Y-83907380D01*
X99822142Y-83955000D01*
X99726904Y-84050238D01*
X99679285Y-84145476D01*
X99631666Y-84335952D01*
X99631666Y-84478809D01*
X99679285Y-84669285D01*
X99726904Y-84764523D01*
X99822142Y-84859761D01*
X99965000Y-84907380D01*
X100060238Y-84907380D01*
X100203095Y-84859761D01*
X100250714Y-84812142D01*
X100250714Y-84478809D01*
X100060238Y-84478809D01*
X100679285Y-84907380D02*
X100679285Y-83907380D01*
X101250714Y-84907380D01*
X101250714Y-83907380D01*
X101726904Y-84907380D02*
X101726904Y-83907380D01*
X101965000Y-83907380D01*
X102107857Y-83955000D01*
X102203095Y-84050238D01*
X102250714Y-84145476D01*
X102298333Y-84335952D01*
X102298333Y-84478809D01*
X102250714Y-84669285D01*
X102203095Y-84764523D01*
X102107857Y-84859761D01*
X101965000Y-84907380D01*
X101726904Y-84907380D01*
X99917380Y-63587380D02*
X100536428Y-63587380D01*
X100203095Y-63968333D01*
X100345952Y-63968333D01*
X100441190Y-64015952D01*
X100488809Y-64063571D01*
X100536428Y-64158809D01*
X100536428Y-64396904D01*
X100488809Y-64492142D01*
X100441190Y-64539761D01*
X100345952Y-64587380D01*
X100060238Y-64587380D01*
X99965000Y-64539761D01*
X99917380Y-64492142D01*
X100965000Y-64492142D02*
X101012619Y-64539761D01*
X100965000Y-64587380D01*
X100917380Y-64539761D01*
X100965000Y-64492142D01*
X100965000Y-64587380D01*
X101345952Y-63587380D02*
X101965000Y-63587380D01*
X101631666Y-63968333D01*
X101774523Y-63968333D01*
X101869761Y-64015952D01*
X101917380Y-64063571D01*
X101965000Y-64158809D01*
X101965000Y-64396904D01*
X101917380Y-64492142D01*
X101869761Y-64539761D01*
X101774523Y-64587380D01*
X101488809Y-64587380D01*
X101393571Y-64539761D01*
X101345952Y-64492142D01*
X99774523Y-76335000D02*
X99679285Y-76287380D01*
X99536428Y-76287380D01*
X99393571Y-76335000D01*
X99298333Y-76430238D01*
X99250714Y-76525476D01*
X99203095Y-76715952D01*
X99203095Y-76858809D01*
X99250714Y-77049285D01*
X99298333Y-77144523D01*
X99393571Y-77239761D01*
X99536428Y-77287380D01*
X99631666Y-77287380D01*
X99774523Y-77239761D01*
X99822142Y-77192142D01*
X99822142Y-76858809D01*
X99631666Y-76858809D01*
X100250714Y-77287380D02*
X100250714Y-76287380D01*
X100631666Y-76287380D01*
X100726904Y-76335000D01*
X100774523Y-76382619D01*
X100822142Y-76477857D01*
X100822142Y-76620714D01*
X100774523Y-76715952D01*
X100726904Y-76763571D01*
X100631666Y-76811190D01*
X100250714Y-76811190D01*
X101203095Y-76382619D02*
X101250714Y-76335000D01*
X101345952Y-76287380D01*
X101584047Y-76287380D01*
X101679285Y-76335000D01*
X101726904Y-76382619D01*
X101774523Y-76477857D01*
X101774523Y-76573095D01*
X101726904Y-76715952D01*
X101155476Y-77287380D01*
X101774523Y-77287380D01*
X102631666Y-76287380D02*
X102441190Y-76287380D01*
X102345952Y-76335000D01*
X102298333Y-76382619D01*
X102203095Y-76525476D01*
X102155476Y-76715952D01*
X102155476Y-77096904D01*
X102203095Y-77192142D01*
X102250714Y-77239761D01*
X102345952Y-77287380D01*
X102536428Y-77287380D01*
X102631666Y-77239761D01*
X102679285Y-77192142D01*
X102726904Y-77096904D01*
X102726904Y-76858809D01*
X102679285Y-76763571D01*
X102631666Y-76715952D01*
X102536428Y-76668333D01*
X102345952Y-76668333D01*
X102250714Y-76715952D01*
X102203095Y-76763571D01*
X102155476Y-76858809D01*
X99774523Y-68715000D02*
X99679285Y-68667380D01*
X99536428Y-68667380D01*
X99393571Y-68715000D01*
X99298333Y-68810238D01*
X99250714Y-68905476D01*
X99203095Y-69095952D01*
X99203095Y-69238809D01*
X99250714Y-69429285D01*
X99298333Y-69524523D01*
X99393571Y-69619761D01*
X99536428Y-69667380D01*
X99631666Y-69667380D01*
X99774523Y-69619761D01*
X99822142Y-69572142D01*
X99822142Y-69238809D01*
X99631666Y-69238809D01*
X100250714Y-69667380D02*
X100250714Y-68667380D01*
X100631666Y-68667380D01*
X100726904Y-68715000D01*
X100774523Y-68762619D01*
X100822142Y-68857857D01*
X100822142Y-69000714D01*
X100774523Y-69095952D01*
X100726904Y-69143571D01*
X100631666Y-69191190D01*
X100250714Y-69191190D01*
X101203095Y-68762619D02*
X101250714Y-68715000D01*
X101345952Y-68667380D01*
X101584047Y-68667380D01*
X101679285Y-68715000D01*
X101726904Y-68762619D01*
X101774523Y-68857857D01*
X101774523Y-68953095D01*
X101726904Y-69095952D01*
X101155476Y-69667380D01*
X101774523Y-69667380D01*
X102345952Y-69095952D02*
X102250714Y-69048333D01*
X102203095Y-69000714D01*
X102155476Y-68905476D01*
X102155476Y-68857857D01*
X102203095Y-68762619D01*
X102250714Y-68715000D01*
X102345952Y-68667380D01*
X102536428Y-68667380D01*
X102631666Y-68715000D01*
X102679285Y-68762619D01*
X102726904Y-68857857D01*
X102726904Y-68905476D01*
X102679285Y-69000714D01*
X102631666Y-69048333D01*
X102536428Y-69095952D01*
X102345952Y-69095952D01*
X102250714Y-69143571D01*
X102203095Y-69191190D01*
X102155476Y-69286428D01*
X102155476Y-69476904D01*
X102203095Y-69572142D01*
X102250714Y-69619761D01*
X102345952Y-69667380D01*
X102536428Y-69667380D01*
X102631666Y-69619761D01*
X102679285Y-69572142D01*
X102726904Y-69476904D01*
X102726904Y-69286428D01*
X102679285Y-69191190D01*
X102631666Y-69143571D01*
X102536428Y-69095952D01*
X99774523Y-89035000D02*
X99679285Y-88987380D01*
X99536428Y-88987380D01*
X99393571Y-89035000D01*
X99298333Y-89130238D01*
X99250714Y-89225476D01*
X99203095Y-89415952D01*
X99203095Y-89558809D01*
X99250714Y-89749285D01*
X99298333Y-89844523D01*
X99393571Y-89939761D01*
X99536428Y-89987380D01*
X99631666Y-89987380D01*
X99774523Y-89939761D01*
X99822142Y-89892142D01*
X99822142Y-89558809D01*
X99631666Y-89558809D01*
X100250714Y-89987380D02*
X100250714Y-88987380D01*
X100631666Y-88987380D01*
X100726904Y-89035000D01*
X100774523Y-89082619D01*
X100822142Y-89177857D01*
X100822142Y-89320714D01*
X100774523Y-89415952D01*
X100726904Y-89463571D01*
X100631666Y-89511190D01*
X100250714Y-89511190D01*
X101203095Y-89082619D02*
X101250714Y-89035000D01*
X101345952Y-88987380D01*
X101584047Y-88987380D01*
X101679285Y-89035000D01*
X101726904Y-89082619D01*
X101774523Y-89177857D01*
X101774523Y-89273095D01*
X101726904Y-89415952D01*
X101155476Y-89987380D01*
X101774523Y-89987380D01*
X102393571Y-88987380D02*
X102488809Y-88987380D01*
X102584047Y-89035000D01*
X102631666Y-89082619D01*
X102679285Y-89177857D01*
X102726904Y-89368333D01*
X102726904Y-89606428D01*
X102679285Y-89796904D01*
X102631666Y-89892142D01*
X102584047Y-89939761D01*
X102488809Y-89987380D01*
X102393571Y-89987380D01*
X102298333Y-89939761D01*
X102250714Y-89892142D01*
X102203095Y-89796904D01*
X102155476Y-89606428D01*
X102155476Y-89368333D01*
X102203095Y-89177857D01*
X102250714Y-89082619D01*
X102298333Y-89035000D01*
X102393571Y-88987380D01*
X99774523Y-73795000D02*
X99679285Y-73747380D01*
X99536428Y-73747380D01*
X99393571Y-73795000D01*
X99298333Y-73890238D01*
X99250714Y-73985476D01*
X99203095Y-74175952D01*
X99203095Y-74318809D01*
X99250714Y-74509285D01*
X99298333Y-74604523D01*
X99393571Y-74699761D01*
X99536428Y-74747380D01*
X99631666Y-74747380D01*
X99774523Y-74699761D01*
X99822142Y-74652142D01*
X99822142Y-74318809D01*
X99631666Y-74318809D01*
X100250714Y-74747380D02*
X100250714Y-73747380D01*
X100631666Y-73747380D01*
X100726904Y-73795000D01*
X100774523Y-73842619D01*
X100822142Y-73937857D01*
X100822142Y-74080714D01*
X100774523Y-74175952D01*
X100726904Y-74223571D01*
X100631666Y-74271190D01*
X100250714Y-74271190D01*
X101203095Y-73842619D02*
X101250714Y-73795000D01*
X101345952Y-73747380D01*
X101584047Y-73747380D01*
X101679285Y-73795000D01*
X101726904Y-73842619D01*
X101774523Y-73937857D01*
X101774523Y-74033095D01*
X101726904Y-74175952D01*
X101155476Y-74747380D01*
X101774523Y-74747380D01*
X102107857Y-73747380D02*
X102774523Y-73747380D01*
X102345952Y-74747380D01*
X99726904Y-66841666D02*
X100203095Y-66841666D01*
X99631666Y-67127380D02*
X99965000Y-66127380D01*
X100298333Y-67127380D01*
X100631666Y-67127380D02*
X100631666Y-66127380D01*
X100869761Y-66127380D01*
X101012619Y-66175000D01*
X101107857Y-66270238D01*
X101155476Y-66365476D01*
X101203095Y-66555952D01*
X101203095Y-66698809D01*
X101155476Y-66889285D01*
X101107857Y-66984523D01*
X101012619Y-67079761D01*
X100869761Y-67127380D01*
X100631666Y-67127380D01*
X102203095Y-67032142D02*
X102155476Y-67079761D01*
X102012619Y-67127380D01*
X101917380Y-67127380D01*
X101774523Y-67079761D01*
X101679285Y-66984523D01*
X101631666Y-66889285D01*
X101584047Y-66698809D01*
X101584047Y-66555952D01*
X101631666Y-66365476D01*
X101679285Y-66270238D01*
X101774523Y-66175000D01*
X101917380Y-66127380D01*
X102012619Y-66127380D01*
X102155476Y-66175000D01*
X102203095Y-66222619D01*
X97290238Y-61047380D02*
X97909285Y-61047380D01*
X97575952Y-61428333D01*
X97718809Y-61428333D01*
X97814047Y-61475952D01*
X97861666Y-61523571D01*
X97909285Y-61618809D01*
X97909285Y-61856904D01*
X97861666Y-61952142D01*
X97814047Y-61999761D01*
X97718809Y-62047380D01*
X97433095Y-62047380D01*
X97337857Y-61999761D01*
X97290238Y-61952142D01*
X98337857Y-61952142D02*
X98385476Y-61999761D01*
X98337857Y-62047380D01*
X98290238Y-61999761D01*
X98337857Y-61952142D01*
X98337857Y-62047380D01*
X98718809Y-61047380D02*
X99337857Y-61047380D01*
X99004523Y-61428333D01*
X99147380Y-61428333D01*
X99242619Y-61475952D01*
X99290238Y-61523571D01*
X99337857Y-61618809D01*
X99337857Y-61856904D01*
X99290238Y-61952142D01*
X99242619Y-61999761D01*
X99147380Y-62047380D01*
X98861666Y-62047380D01*
X98766428Y-61999761D01*
X98718809Y-61952142D01*
X99528333Y-62142619D02*
X100290238Y-62142619D01*
X100528333Y-61523571D02*
X100861666Y-61523571D01*
X101004523Y-62047380D02*
X100528333Y-62047380D01*
X100528333Y-61047380D01*
X101004523Y-61047380D01*
X101433095Y-62047380D02*
X101433095Y-61047380D01*
X102004523Y-62047380D01*
X102004523Y-61047380D01*
X99131666Y-53427380D02*
X99465000Y-54427380D01*
X99798333Y-53427380D01*
X100465000Y-53903571D02*
X100607857Y-53951190D01*
X100655476Y-53998809D01*
X100703095Y-54094047D01*
X100703095Y-54236904D01*
X100655476Y-54332142D01*
X100607857Y-54379761D01*
X100512619Y-54427380D01*
X100131666Y-54427380D01*
X100131666Y-53427380D01*
X100465000Y-53427380D01*
X100560238Y-53475000D01*
X100607857Y-53522619D01*
X100655476Y-53617857D01*
X100655476Y-53713095D01*
X100607857Y-53808333D01*
X100560238Y-53855952D01*
X100465000Y-53903571D01*
X100131666Y-53903571D01*
X101131666Y-53427380D02*
X101131666Y-54236904D01*
X101179285Y-54332142D01*
X101226904Y-54379761D01*
X101322142Y-54427380D01*
X101512619Y-54427380D01*
X101607857Y-54379761D01*
X101655476Y-54332142D01*
X101703095Y-54236904D01*
X101703095Y-53427380D01*
X102131666Y-54379761D02*
X102274523Y-54427380D01*
X102512619Y-54427380D01*
X102607857Y-54379761D01*
X102655476Y-54332142D01*
X102703095Y-54236904D01*
X102703095Y-54141666D01*
X102655476Y-54046428D01*
X102607857Y-53998809D01*
X102512619Y-53951190D01*
X102322142Y-53903571D01*
X102226904Y-53855952D01*
X102179285Y-53808333D01*
X102131666Y-53713095D01*
X102131666Y-53617857D01*
X102179285Y-53522619D01*
X102226904Y-53475000D01*
X102322142Y-53427380D01*
X102560238Y-53427380D01*
X102703095Y-53475000D01*
X100203095Y-58555000D02*
X100107857Y-58507380D01*
X99965000Y-58507380D01*
X99822142Y-58555000D01*
X99726904Y-58650238D01*
X99679285Y-58745476D01*
X99631666Y-58935952D01*
X99631666Y-59078809D01*
X99679285Y-59269285D01*
X99726904Y-59364523D01*
X99822142Y-59459761D01*
X99965000Y-59507380D01*
X100060238Y-59507380D01*
X100203095Y-59459761D01*
X100250714Y-59412142D01*
X100250714Y-59078809D01*
X100060238Y-59078809D01*
X100679285Y-59507380D02*
X100679285Y-58507380D01*
X101250714Y-59507380D01*
X101250714Y-58507380D01*
X101726904Y-59507380D02*
X101726904Y-58507380D01*
X101965000Y-58507380D01*
X102107857Y-58555000D01*
X102203095Y-58650238D01*
X102250714Y-58745476D01*
X102298333Y-58935952D01*
X102298333Y-59078809D01*
X102250714Y-59269285D01*
X102203095Y-59364523D01*
X102107857Y-59459761D01*
X101965000Y-59507380D01*
X101726904Y-59507380D01*
X99774523Y-91575000D02*
X99679285Y-91527380D01*
X99536428Y-91527380D01*
X99393571Y-91575000D01*
X99298333Y-91670238D01*
X99250714Y-91765476D01*
X99203095Y-91955952D01*
X99203095Y-92098809D01*
X99250714Y-92289285D01*
X99298333Y-92384523D01*
X99393571Y-92479761D01*
X99536428Y-92527380D01*
X99631666Y-92527380D01*
X99774523Y-92479761D01*
X99822142Y-92432142D01*
X99822142Y-92098809D01*
X99631666Y-92098809D01*
X100250714Y-92527380D02*
X100250714Y-91527380D01*
X100631666Y-91527380D01*
X100726904Y-91575000D01*
X100774523Y-91622619D01*
X100822142Y-91717857D01*
X100822142Y-91860714D01*
X100774523Y-91955952D01*
X100726904Y-92003571D01*
X100631666Y-92051190D01*
X100250714Y-92051190D01*
X101774523Y-92527380D02*
X101203095Y-92527380D01*
X101488809Y-92527380D02*
X101488809Y-91527380D01*
X101393571Y-91670238D01*
X101298333Y-91765476D01*
X101203095Y-91813095D01*
X102250714Y-92527380D02*
X102441190Y-92527380D01*
X102536428Y-92479761D01*
X102584047Y-92432142D01*
X102679285Y-92289285D01*
X102726904Y-92098809D01*
X102726904Y-91717857D01*
X102679285Y-91622619D01*
X102631666Y-91575000D01*
X102536428Y-91527380D01*
X102345952Y-91527380D01*
X102250714Y-91575000D01*
X102203095Y-91622619D01*
X102155476Y-91717857D01*
X102155476Y-91955952D01*
X102203095Y-92051190D01*
X102250714Y-92098809D01*
X102345952Y-92146428D01*
X102536428Y-92146428D01*
X102631666Y-92098809D01*
X102679285Y-92051190D01*
X102726904Y-91955952D01*
X99774523Y-86495000D02*
X99679285Y-86447380D01*
X99536428Y-86447380D01*
X99393571Y-86495000D01*
X99298333Y-86590238D01*
X99250714Y-86685476D01*
X99203095Y-86875952D01*
X99203095Y-87018809D01*
X99250714Y-87209285D01*
X99298333Y-87304523D01*
X99393571Y-87399761D01*
X99536428Y-87447380D01*
X99631666Y-87447380D01*
X99774523Y-87399761D01*
X99822142Y-87352142D01*
X99822142Y-87018809D01*
X99631666Y-87018809D01*
X100250714Y-87447380D02*
X100250714Y-86447380D01*
X100631666Y-86447380D01*
X100726904Y-86495000D01*
X100774523Y-86542619D01*
X100822142Y-86637857D01*
X100822142Y-86780714D01*
X100774523Y-86875952D01*
X100726904Y-86923571D01*
X100631666Y-86971190D01*
X100250714Y-86971190D01*
X101203095Y-86542619D02*
X101250714Y-86495000D01*
X101345952Y-86447380D01*
X101584047Y-86447380D01*
X101679285Y-86495000D01*
X101726904Y-86542619D01*
X101774523Y-86637857D01*
X101774523Y-86733095D01*
X101726904Y-86875952D01*
X101155476Y-87447380D01*
X101774523Y-87447380D01*
X102726904Y-87447380D02*
X102155476Y-87447380D01*
X102441190Y-87447380D02*
X102441190Y-86447380D01*
X102345952Y-86590238D01*
X102250714Y-86685476D01*
X102155476Y-86733095D01*
X85677523Y-101735000D02*
X85582285Y-101687380D01*
X85439428Y-101687380D01*
X85296571Y-101735000D01*
X85201333Y-101830238D01*
X85153714Y-101925476D01*
X85106095Y-102115952D01*
X85106095Y-102258809D01*
X85153714Y-102449285D01*
X85201333Y-102544523D01*
X85296571Y-102639761D01*
X85439428Y-102687380D01*
X85534666Y-102687380D01*
X85677523Y-102639761D01*
X85725142Y-102592142D01*
X85725142Y-102258809D01*
X85534666Y-102258809D01*
X86153714Y-102687380D02*
X86153714Y-101687380D01*
X86534666Y-101687380D01*
X86629904Y-101735000D01*
X86677523Y-101782619D01*
X86725142Y-101877857D01*
X86725142Y-102020714D01*
X86677523Y-102115952D01*
X86629904Y-102163571D01*
X86534666Y-102211190D01*
X86153714Y-102211190D01*
X87677523Y-102687380D02*
X87106095Y-102687380D01*
X87391809Y-102687380D02*
X87391809Y-101687380D01*
X87296571Y-101830238D01*
X87201333Y-101925476D01*
X87106095Y-101973095D01*
X88582285Y-101687380D02*
X88106095Y-101687380D01*
X88058476Y-102163571D01*
X88106095Y-102115952D01*
X88201333Y-102068333D01*
X88439428Y-102068333D01*
X88534666Y-102115952D01*
X88582285Y-102163571D01*
X88629904Y-102258809D01*
X88629904Y-102496904D01*
X88582285Y-102592142D01*
X88534666Y-102639761D01*
X88439428Y-102687380D01*
X88201333Y-102687380D01*
X88106095Y-102639761D01*
X88058476Y-102592142D01*
X85677523Y-99195000D02*
X85582285Y-99147380D01*
X85439428Y-99147380D01*
X85296571Y-99195000D01*
X85201333Y-99290238D01*
X85153714Y-99385476D01*
X85106095Y-99575952D01*
X85106095Y-99718809D01*
X85153714Y-99909285D01*
X85201333Y-100004523D01*
X85296571Y-100099761D01*
X85439428Y-100147380D01*
X85534666Y-100147380D01*
X85677523Y-100099761D01*
X85725142Y-100052142D01*
X85725142Y-99718809D01*
X85534666Y-99718809D01*
X86153714Y-100147380D02*
X86153714Y-99147380D01*
X86534666Y-99147380D01*
X86629904Y-99195000D01*
X86677523Y-99242619D01*
X86725142Y-99337857D01*
X86725142Y-99480714D01*
X86677523Y-99575952D01*
X86629904Y-99623571D01*
X86534666Y-99671190D01*
X86153714Y-99671190D01*
X87677523Y-100147380D02*
X87106095Y-100147380D01*
X87391809Y-100147380D02*
X87391809Y-99147380D01*
X87296571Y-99290238D01*
X87201333Y-99385476D01*
X87106095Y-99433095D01*
X88534666Y-99480714D02*
X88534666Y-100147380D01*
X88296571Y-99099761D02*
X88058476Y-99814047D01*
X88677523Y-99814047D01*
X85677523Y-86495000D02*
X85582285Y-86447380D01*
X85439428Y-86447380D01*
X85296571Y-86495000D01*
X85201333Y-86590238D01*
X85153714Y-86685476D01*
X85106095Y-86875952D01*
X85106095Y-87018809D01*
X85153714Y-87209285D01*
X85201333Y-87304523D01*
X85296571Y-87399761D01*
X85439428Y-87447380D01*
X85534666Y-87447380D01*
X85677523Y-87399761D01*
X85725142Y-87352142D01*
X85725142Y-87018809D01*
X85534666Y-87018809D01*
X86153714Y-87447380D02*
X86153714Y-86447380D01*
X86534666Y-86447380D01*
X86629904Y-86495000D01*
X86677523Y-86542619D01*
X86725142Y-86637857D01*
X86725142Y-86780714D01*
X86677523Y-86875952D01*
X86629904Y-86923571D01*
X86534666Y-86971190D01*
X86153714Y-86971190D01*
X87677523Y-87447380D02*
X87106095Y-87447380D01*
X87391809Y-87447380D02*
X87391809Y-86447380D01*
X87296571Y-86590238D01*
X87201333Y-86685476D01*
X87106095Y-86733095D01*
X88296571Y-86447380D02*
X88391809Y-86447380D01*
X88487047Y-86495000D01*
X88534666Y-86542619D01*
X88582285Y-86637857D01*
X88629904Y-86828333D01*
X88629904Y-87066428D01*
X88582285Y-87256904D01*
X88534666Y-87352142D01*
X88487047Y-87399761D01*
X88391809Y-87447380D01*
X88296571Y-87447380D01*
X88201333Y-87399761D01*
X88153714Y-87352142D01*
X88106095Y-87256904D01*
X88058476Y-87066428D01*
X88058476Y-86828333D01*
X88106095Y-86637857D01*
X88153714Y-86542619D01*
X88201333Y-86495000D01*
X88296571Y-86447380D01*
X85677523Y-94115000D02*
X85582285Y-94067380D01*
X85439428Y-94067380D01*
X85296571Y-94115000D01*
X85201333Y-94210238D01*
X85153714Y-94305476D01*
X85106095Y-94495952D01*
X85106095Y-94638809D01*
X85153714Y-94829285D01*
X85201333Y-94924523D01*
X85296571Y-95019761D01*
X85439428Y-95067380D01*
X85534666Y-95067380D01*
X85677523Y-95019761D01*
X85725142Y-94972142D01*
X85725142Y-94638809D01*
X85534666Y-94638809D01*
X86153714Y-95067380D02*
X86153714Y-94067380D01*
X86534666Y-94067380D01*
X86629904Y-94115000D01*
X86677523Y-94162619D01*
X86725142Y-94257857D01*
X86725142Y-94400714D01*
X86677523Y-94495952D01*
X86629904Y-94543571D01*
X86534666Y-94591190D01*
X86153714Y-94591190D01*
X87677523Y-95067380D02*
X87106095Y-95067380D01*
X87391809Y-95067380D02*
X87391809Y-94067380D01*
X87296571Y-94210238D01*
X87201333Y-94305476D01*
X87106095Y-94353095D01*
X88010857Y-94067380D02*
X88629904Y-94067380D01*
X88296571Y-94448333D01*
X88439428Y-94448333D01*
X88534666Y-94495952D01*
X88582285Y-94543571D01*
X88629904Y-94638809D01*
X88629904Y-94876904D01*
X88582285Y-94972142D01*
X88534666Y-95019761D01*
X88439428Y-95067380D01*
X88153714Y-95067380D01*
X88058476Y-95019761D01*
X88010857Y-94972142D01*
X85598095Y-96655000D02*
X85502857Y-96607380D01*
X85360000Y-96607380D01*
X85217142Y-96655000D01*
X85121904Y-96750238D01*
X85074285Y-96845476D01*
X85026666Y-97035952D01*
X85026666Y-97178809D01*
X85074285Y-97369285D01*
X85121904Y-97464523D01*
X85217142Y-97559761D01*
X85360000Y-97607380D01*
X85455238Y-97607380D01*
X85598095Y-97559761D01*
X85645714Y-97512142D01*
X85645714Y-97178809D01*
X85455238Y-97178809D01*
X86074285Y-97607380D02*
X86074285Y-96607380D01*
X86645714Y-97607380D01*
X86645714Y-96607380D01*
X87121904Y-97607380D02*
X87121904Y-96607380D01*
X87360000Y-96607380D01*
X87502857Y-96655000D01*
X87598095Y-96750238D01*
X87645714Y-96845476D01*
X87693333Y-97035952D01*
X87693333Y-97178809D01*
X87645714Y-97369285D01*
X87598095Y-97464523D01*
X87502857Y-97559761D01*
X87360000Y-97607380D01*
X87121904Y-97607380D01*
X85677523Y-91575000D02*
X85582285Y-91527380D01*
X85439428Y-91527380D01*
X85296571Y-91575000D01*
X85201333Y-91670238D01*
X85153714Y-91765476D01*
X85106095Y-91955952D01*
X85106095Y-92098809D01*
X85153714Y-92289285D01*
X85201333Y-92384523D01*
X85296571Y-92479761D01*
X85439428Y-92527380D01*
X85534666Y-92527380D01*
X85677523Y-92479761D01*
X85725142Y-92432142D01*
X85725142Y-92098809D01*
X85534666Y-92098809D01*
X86153714Y-92527380D02*
X86153714Y-91527380D01*
X86534666Y-91527380D01*
X86629904Y-91575000D01*
X86677523Y-91622619D01*
X86725142Y-91717857D01*
X86725142Y-91860714D01*
X86677523Y-91955952D01*
X86629904Y-92003571D01*
X86534666Y-92051190D01*
X86153714Y-92051190D01*
X87677523Y-92527380D02*
X87106095Y-92527380D01*
X87391809Y-92527380D02*
X87391809Y-91527380D01*
X87296571Y-91670238D01*
X87201333Y-91765476D01*
X87106095Y-91813095D01*
X88058476Y-91622619D02*
X88106095Y-91575000D01*
X88201333Y-91527380D01*
X88439428Y-91527380D01*
X88534666Y-91575000D01*
X88582285Y-91622619D01*
X88629904Y-91717857D01*
X88629904Y-91813095D01*
X88582285Y-91955952D01*
X88010857Y-92527380D01*
X88629904Y-92527380D01*
X85598095Y-83955000D02*
X85502857Y-83907380D01*
X85360000Y-83907380D01*
X85217142Y-83955000D01*
X85121904Y-84050238D01*
X85074285Y-84145476D01*
X85026666Y-84335952D01*
X85026666Y-84478809D01*
X85074285Y-84669285D01*
X85121904Y-84764523D01*
X85217142Y-84859761D01*
X85360000Y-84907380D01*
X85455238Y-84907380D01*
X85598095Y-84859761D01*
X85645714Y-84812142D01*
X85645714Y-84478809D01*
X85455238Y-84478809D01*
X86074285Y-84907380D02*
X86074285Y-83907380D01*
X86645714Y-84907380D01*
X86645714Y-83907380D01*
X87121904Y-84907380D02*
X87121904Y-83907380D01*
X87360000Y-83907380D01*
X87502857Y-83955000D01*
X87598095Y-84050238D01*
X87645714Y-84145476D01*
X87693333Y-84335952D01*
X87693333Y-84478809D01*
X87645714Y-84669285D01*
X87598095Y-84764523D01*
X87502857Y-84859761D01*
X87360000Y-84907380D01*
X87121904Y-84907380D01*
X85677523Y-89035000D02*
X85582285Y-88987380D01*
X85439428Y-88987380D01*
X85296571Y-89035000D01*
X85201333Y-89130238D01*
X85153714Y-89225476D01*
X85106095Y-89415952D01*
X85106095Y-89558809D01*
X85153714Y-89749285D01*
X85201333Y-89844523D01*
X85296571Y-89939761D01*
X85439428Y-89987380D01*
X85534666Y-89987380D01*
X85677523Y-89939761D01*
X85725142Y-89892142D01*
X85725142Y-89558809D01*
X85534666Y-89558809D01*
X86153714Y-89987380D02*
X86153714Y-88987380D01*
X86534666Y-88987380D01*
X86629904Y-89035000D01*
X86677523Y-89082619D01*
X86725142Y-89177857D01*
X86725142Y-89320714D01*
X86677523Y-89415952D01*
X86629904Y-89463571D01*
X86534666Y-89511190D01*
X86153714Y-89511190D01*
X87677523Y-89987380D02*
X87106095Y-89987380D01*
X87391809Y-89987380D02*
X87391809Y-88987380D01*
X87296571Y-89130238D01*
X87201333Y-89225476D01*
X87106095Y-89273095D01*
X88629904Y-89987380D02*
X88058476Y-89987380D01*
X88344190Y-89987380D02*
X88344190Y-88987380D01*
X88248952Y-89130238D01*
X88153714Y-89225476D01*
X88058476Y-89273095D01*
X85598095Y-71255000D02*
X85502857Y-71207380D01*
X85360000Y-71207380D01*
X85217142Y-71255000D01*
X85121904Y-71350238D01*
X85074285Y-71445476D01*
X85026666Y-71635952D01*
X85026666Y-71778809D01*
X85074285Y-71969285D01*
X85121904Y-72064523D01*
X85217142Y-72159761D01*
X85360000Y-72207380D01*
X85455238Y-72207380D01*
X85598095Y-72159761D01*
X85645714Y-72112142D01*
X85645714Y-71778809D01*
X85455238Y-71778809D01*
X86074285Y-72207380D02*
X86074285Y-71207380D01*
X86645714Y-72207380D01*
X86645714Y-71207380D01*
X87121904Y-72207380D02*
X87121904Y-71207380D01*
X87360000Y-71207380D01*
X87502857Y-71255000D01*
X87598095Y-71350238D01*
X87645714Y-71445476D01*
X87693333Y-71635952D01*
X87693333Y-71778809D01*
X87645714Y-71969285D01*
X87598095Y-72064523D01*
X87502857Y-72159761D01*
X87360000Y-72207380D01*
X87121904Y-72207380D01*
X85645714Y-78875000D02*
X85550476Y-78827380D01*
X85407619Y-78827380D01*
X85264761Y-78875000D01*
X85169523Y-78970238D01*
X85121904Y-79065476D01*
X85074285Y-79255952D01*
X85074285Y-79398809D01*
X85121904Y-79589285D01*
X85169523Y-79684523D01*
X85264761Y-79779761D01*
X85407619Y-79827380D01*
X85502857Y-79827380D01*
X85645714Y-79779761D01*
X85693333Y-79732142D01*
X85693333Y-79398809D01*
X85502857Y-79398809D01*
X86121904Y-79827380D02*
X86121904Y-78827380D01*
X86502857Y-78827380D01*
X86598095Y-78875000D01*
X86645714Y-78922619D01*
X86693333Y-79017857D01*
X86693333Y-79160714D01*
X86645714Y-79255952D01*
X86598095Y-79303571D01*
X86502857Y-79351190D01*
X86121904Y-79351190D01*
X87264761Y-79255952D02*
X87169523Y-79208333D01*
X87121904Y-79160714D01*
X87074285Y-79065476D01*
X87074285Y-79017857D01*
X87121904Y-78922619D01*
X87169523Y-78875000D01*
X87264761Y-78827380D01*
X87455238Y-78827380D01*
X87550476Y-78875000D01*
X87598095Y-78922619D01*
X87645714Y-79017857D01*
X87645714Y-79065476D01*
X87598095Y-79160714D01*
X87550476Y-79208333D01*
X87455238Y-79255952D01*
X87264761Y-79255952D01*
X87169523Y-79303571D01*
X87121904Y-79351190D01*
X87074285Y-79446428D01*
X87074285Y-79636904D01*
X87121904Y-79732142D01*
X87169523Y-79779761D01*
X87264761Y-79827380D01*
X87455238Y-79827380D01*
X87550476Y-79779761D01*
X87598095Y-79732142D01*
X87645714Y-79636904D01*
X87645714Y-79446428D01*
X87598095Y-79351190D01*
X87550476Y-79303571D01*
X87455238Y-79255952D01*
X85645714Y-81415000D02*
X85550476Y-81367380D01*
X85407619Y-81367380D01*
X85264761Y-81415000D01*
X85169523Y-81510238D01*
X85121904Y-81605476D01*
X85074285Y-81795952D01*
X85074285Y-81938809D01*
X85121904Y-82129285D01*
X85169523Y-82224523D01*
X85264761Y-82319761D01*
X85407619Y-82367380D01*
X85502857Y-82367380D01*
X85645714Y-82319761D01*
X85693333Y-82272142D01*
X85693333Y-81938809D01*
X85502857Y-81938809D01*
X86121904Y-82367380D02*
X86121904Y-81367380D01*
X86502857Y-81367380D01*
X86598095Y-81415000D01*
X86645714Y-81462619D01*
X86693333Y-81557857D01*
X86693333Y-81700714D01*
X86645714Y-81795952D01*
X86598095Y-81843571D01*
X86502857Y-81891190D01*
X86121904Y-81891190D01*
X87169523Y-82367380D02*
X87360000Y-82367380D01*
X87455238Y-82319761D01*
X87502857Y-82272142D01*
X87598095Y-82129285D01*
X87645714Y-81938809D01*
X87645714Y-81557857D01*
X87598095Y-81462619D01*
X87550476Y-81415000D01*
X87455238Y-81367380D01*
X87264761Y-81367380D01*
X87169523Y-81415000D01*
X87121904Y-81462619D01*
X87074285Y-81557857D01*
X87074285Y-81795952D01*
X87121904Y-81891190D01*
X87169523Y-81938809D01*
X87264761Y-81986428D01*
X87455238Y-81986428D01*
X87550476Y-81938809D01*
X87598095Y-81891190D01*
X87645714Y-81795952D01*
X85645714Y-76335000D02*
X85550476Y-76287380D01*
X85407619Y-76287380D01*
X85264761Y-76335000D01*
X85169523Y-76430238D01*
X85121904Y-76525476D01*
X85074285Y-76715952D01*
X85074285Y-76858809D01*
X85121904Y-77049285D01*
X85169523Y-77144523D01*
X85264761Y-77239761D01*
X85407619Y-77287380D01*
X85502857Y-77287380D01*
X85645714Y-77239761D01*
X85693333Y-77192142D01*
X85693333Y-76858809D01*
X85502857Y-76858809D01*
X86121904Y-77287380D02*
X86121904Y-76287380D01*
X86502857Y-76287380D01*
X86598095Y-76335000D01*
X86645714Y-76382619D01*
X86693333Y-76477857D01*
X86693333Y-76620714D01*
X86645714Y-76715952D01*
X86598095Y-76763571D01*
X86502857Y-76811190D01*
X86121904Y-76811190D01*
X87026666Y-76287380D02*
X87693333Y-76287380D01*
X87264761Y-77287380D01*
X85645714Y-68715000D02*
X85550476Y-68667380D01*
X85407619Y-68667380D01*
X85264761Y-68715000D01*
X85169523Y-68810238D01*
X85121904Y-68905476D01*
X85074285Y-69095952D01*
X85074285Y-69238809D01*
X85121904Y-69429285D01*
X85169523Y-69524523D01*
X85264761Y-69619761D01*
X85407619Y-69667380D01*
X85502857Y-69667380D01*
X85645714Y-69619761D01*
X85693333Y-69572142D01*
X85693333Y-69238809D01*
X85502857Y-69238809D01*
X86121904Y-69667380D02*
X86121904Y-68667380D01*
X86502857Y-68667380D01*
X86598095Y-68715000D01*
X86645714Y-68762619D01*
X86693333Y-68857857D01*
X86693333Y-69000714D01*
X86645714Y-69095952D01*
X86598095Y-69143571D01*
X86502857Y-69191190D01*
X86121904Y-69191190D01*
X87598095Y-68667380D02*
X87121904Y-68667380D01*
X87074285Y-69143571D01*
X87121904Y-69095952D01*
X87217142Y-69048333D01*
X87455238Y-69048333D01*
X87550476Y-69095952D01*
X87598095Y-69143571D01*
X87645714Y-69238809D01*
X87645714Y-69476904D01*
X87598095Y-69572142D01*
X87550476Y-69619761D01*
X87455238Y-69667380D01*
X87217142Y-69667380D01*
X87121904Y-69619761D01*
X87074285Y-69572142D01*
X85645714Y-73795000D02*
X85550476Y-73747380D01*
X85407619Y-73747380D01*
X85264761Y-73795000D01*
X85169523Y-73890238D01*
X85121904Y-73985476D01*
X85074285Y-74175952D01*
X85074285Y-74318809D01*
X85121904Y-74509285D01*
X85169523Y-74604523D01*
X85264761Y-74699761D01*
X85407619Y-74747380D01*
X85502857Y-74747380D01*
X85645714Y-74699761D01*
X85693333Y-74652142D01*
X85693333Y-74318809D01*
X85502857Y-74318809D01*
X86121904Y-74747380D02*
X86121904Y-73747380D01*
X86502857Y-73747380D01*
X86598095Y-73795000D01*
X86645714Y-73842619D01*
X86693333Y-73937857D01*
X86693333Y-74080714D01*
X86645714Y-74175952D01*
X86598095Y-74223571D01*
X86502857Y-74271190D01*
X86121904Y-74271190D01*
X87550476Y-73747380D02*
X87360000Y-73747380D01*
X87264761Y-73795000D01*
X87217142Y-73842619D01*
X87121904Y-73985476D01*
X87074285Y-74175952D01*
X87074285Y-74556904D01*
X87121904Y-74652142D01*
X87169523Y-74699761D01*
X87264761Y-74747380D01*
X87455238Y-74747380D01*
X87550476Y-74699761D01*
X87598095Y-74652142D01*
X87645714Y-74556904D01*
X87645714Y-74318809D01*
X87598095Y-74223571D01*
X87550476Y-74175952D01*
X87455238Y-74128333D01*
X87264761Y-74128333D01*
X87169523Y-74175952D01*
X87121904Y-74223571D01*
X87074285Y-74318809D01*
X85645714Y-66175000D02*
X85550476Y-66127380D01*
X85407619Y-66127380D01*
X85264761Y-66175000D01*
X85169523Y-66270238D01*
X85121904Y-66365476D01*
X85074285Y-66555952D01*
X85074285Y-66698809D01*
X85121904Y-66889285D01*
X85169523Y-66984523D01*
X85264761Y-67079761D01*
X85407619Y-67127380D01*
X85502857Y-67127380D01*
X85645714Y-67079761D01*
X85693333Y-67032142D01*
X85693333Y-66698809D01*
X85502857Y-66698809D01*
X86121904Y-67127380D02*
X86121904Y-66127380D01*
X86502857Y-66127380D01*
X86598095Y-66175000D01*
X86645714Y-66222619D01*
X86693333Y-66317857D01*
X86693333Y-66460714D01*
X86645714Y-66555952D01*
X86598095Y-66603571D01*
X86502857Y-66651190D01*
X86121904Y-66651190D01*
X87550476Y-66460714D02*
X87550476Y-67127380D01*
X87312380Y-66079761D02*
X87074285Y-66794047D01*
X87693333Y-66794047D01*
X85645714Y-63635000D02*
X85550476Y-63587380D01*
X85407619Y-63587380D01*
X85264761Y-63635000D01*
X85169523Y-63730238D01*
X85121904Y-63825476D01*
X85074285Y-64015952D01*
X85074285Y-64158809D01*
X85121904Y-64349285D01*
X85169523Y-64444523D01*
X85264761Y-64539761D01*
X85407619Y-64587380D01*
X85502857Y-64587380D01*
X85645714Y-64539761D01*
X85693333Y-64492142D01*
X85693333Y-64158809D01*
X85502857Y-64158809D01*
X86121904Y-64587380D02*
X86121904Y-63587380D01*
X86502857Y-63587380D01*
X86598095Y-63635000D01*
X86645714Y-63682619D01*
X86693333Y-63777857D01*
X86693333Y-63920714D01*
X86645714Y-64015952D01*
X86598095Y-64063571D01*
X86502857Y-64111190D01*
X86121904Y-64111190D01*
X87026666Y-63587380D02*
X87645714Y-63587380D01*
X87312380Y-63968333D01*
X87455238Y-63968333D01*
X87550476Y-64015952D01*
X87598095Y-64063571D01*
X87645714Y-64158809D01*
X87645714Y-64396904D01*
X87598095Y-64492142D01*
X87550476Y-64539761D01*
X87455238Y-64587380D01*
X87169523Y-64587380D01*
X87074285Y-64539761D01*
X87026666Y-64492142D01*
X85645714Y-61095000D02*
X85550476Y-61047380D01*
X85407619Y-61047380D01*
X85264761Y-61095000D01*
X85169523Y-61190238D01*
X85121904Y-61285476D01*
X85074285Y-61475952D01*
X85074285Y-61618809D01*
X85121904Y-61809285D01*
X85169523Y-61904523D01*
X85264761Y-61999761D01*
X85407619Y-62047380D01*
X85502857Y-62047380D01*
X85645714Y-61999761D01*
X85693333Y-61952142D01*
X85693333Y-61618809D01*
X85502857Y-61618809D01*
X86121904Y-62047380D02*
X86121904Y-61047380D01*
X86502857Y-61047380D01*
X86598095Y-61095000D01*
X86645714Y-61142619D01*
X86693333Y-61237857D01*
X86693333Y-61380714D01*
X86645714Y-61475952D01*
X86598095Y-61523571D01*
X86502857Y-61571190D01*
X86121904Y-61571190D01*
X87074285Y-61142619D02*
X87121904Y-61095000D01*
X87217142Y-61047380D01*
X87455238Y-61047380D01*
X87550476Y-61095000D01*
X87598095Y-61142619D01*
X87645714Y-61237857D01*
X87645714Y-61333095D01*
X87598095Y-61475952D01*
X87026666Y-62047380D01*
X87645714Y-62047380D01*
X85598095Y-58555000D02*
X85502857Y-58507380D01*
X85360000Y-58507380D01*
X85217142Y-58555000D01*
X85121904Y-58650238D01*
X85074285Y-58745476D01*
X85026666Y-58935952D01*
X85026666Y-59078809D01*
X85074285Y-59269285D01*
X85121904Y-59364523D01*
X85217142Y-59459761D01*
X85360000Y-59507380D01*
X85455238Y-59507380D01*
X85598095Y-59459761D01*
X85645714Y-59412142D01*
X85645714Y-59078809D01*
X85455238Y-59078809D01*
X86074285Y-59507380D02*
X86074285Y-58507380D01*
X86645714Y-59507380D01*
X86645714Y-58507380D01*
X87121904Y-59507380D02*
X87121904Y-58507380D01*
X87360000Y-58507380D01*
X87502857Y-58555000D01*
X87598095Y-58650238D01*
X87645714Y-58745476D01*
X87693333Y-58935952D01*
X87693333Y-59078809D01*
X87645714Y-59269285D01*
X87598095Y-59364523D01*
X87502857Y-59459761D01*
X87360000Y-59507380D01*
X87121904Y-59507380D01*
X85645714Y-56015000D02*
X85550476Y-55967380D01*
X85407619Y-55967380D01*
X85264761Y-56015000D01*
X85169523Y-56110238D01*
X85121904Y-56205476D01*
X85074285Y-56395952D01*
X85074285Y-56538809D01*
X85121904Y-56729285D01*
X85169523Y-56824523D01*
X85264761Y-56919761D01*
X85407619Y-56967380D01*
X85502857Y-56967380D01*
X85645714Y-56919761D01*
X85693333Y-56872142D01*
X85693333Y-56538809D01*
X85502857Y-56538809D01*
X86121904Y-56967380D02*
X86121904Y-55967380D01*
X86502857Y-55967380D01*
X86598095Y-56015000D01*
X86645714Y-56062619D01*
X86693333Y-56157857D01*
X86693333Y-56300714D01*
X86645714Y-56395952D01*
X86598095Y-56443571D01*
X86502857Y-56491190D01*
X86121904Y-56491190D01*
X87645714Y-56967380D02*
X87074285Y-56967380D01*
X87360000Y-56967380D02*
X87360000Y-55967380D01*
X87264761Y-56110238D01*
X87169523Y-56205476D01*
X87074285Y-56253095D01*
X85645714Y-53475000D02*
X85550476Y-53427380D01*
X85407619Y-53427380D01*
X85264761Y-53475000D01*
X85169523Y-53570238D01*
X85121904Y-53665476D01*
X85074285Y-53855952D01*
X85074285Y-53998809D01*
X85121904Y-54189285D01*
X85169523Y-54284523D01*
X85264761Y-54379761D01*
X85407619Y-54427380D01*
X85502857Y-54427380D01*
X85645714Y-54379761D01*
X85693333Y-54332142D01*
X85693333Y-53998809D01*
X85502857Y-53998809D01*
X86121904Y-54427380D02*
X86121904Y-53427380D01*
X86502857Y-53427380D01*
X86598095Y-53475000D01*
X86645714Y-53522619D01*
X86693333Y-53617857D01*
X86693333Y-53760714D01*
X86645714Y-53855952D01*
X86598095Y-53903571D01*
X86502857Y-53951190D01*
X86121904Y-53951190D01*
X87312380Y-53427380D02*
X87407619Y-53427380D01*
X87502857Y-53475000D01*
X87550476Y-53522619D01*
X87598095Y-53617857D01*
X87645714Y-53808333D01*
X87645714Y-54046428D01*
X87598095Y-54236904D01*
X87550476Y-54332142D01*
X87502857Y-54379761D01*
X87407619Y-54427380D01*
X87312380Y-54427380D01*
X87217142Y-54379761D01*
X87169523Y-54332142D01*
X87121904Y-54236904D01*
X87074285Y-54046428D01*
X87074285Y-53808333D01*
X87121904Y-53617857D01*
X87169523Y-53522619D01*
X87217142Y-53475000D01*
X87312380Y-53427380D01*
%TO.C,R6*%
X108418333Y-111577380D02*
X108085000Y-111101190D01*
X107846904Y-111577380D02*
X107846904Y-110577380D01*
X108227857Y-110577380D01*
X108323095Y-110625000D01*
X108370714Y-110672619D01*
X108418333Y-110767857D01*
X108418333Y-110910714D01*
X108370714Y-111005952D01*
X108323095Y-111053571D01*
X108227857Y-111101190D01*
X107846904Y-111101190D01*
X109275476Y-110577380D02*
X109085000Y-110577380D01*
X108989761Y-110625000D01*
X108942142Y-110672619D01*
X108846904Y-110815476D01*
X108799285Y-111005952D01*
X108799285Y-111386904D01*
X108846904Y-111482142D01*
X108894523Y-111529761D01*
X108989761Y-111577380D01*
X109180238Y-111577380D01*
X109275476Y-111529761D01*
X109323095Y-111482142D01*
X109370714Y-111386904D01*
X109370714Y-111148809D01*
X109323095Y-111053571D01*
X109275476Y-111005952D01*
X109180238Y-110958333D01*
X108989761Y-110958333D01*
X108894523Y-111005952D01*
X108846904Y-111053571D01*
X108799285Y-111148809D01*
%TO.C,U2*%
X120523095Y-77557380D02*
X120523095Y-78366904D01*
X120570714Y-78462142D01*
X120618333Y-78509761D01*
X120713571Y-78557380D01*
X120904047Y-78557380D01*
X120999285Y-78509761D01*
X121046904Y-78462142D01*
X121094523Y-78366904D01*
X121094523Y-77557380D01*
X121523095Y-77652619D02*
X121570714Y-77605000D01*
X121665952Y-77557380D01*
X121904047Y-77557380D01*
X121999285Y-77605000D01*
X122046904Y-77652619D01*
X122094523Y-77747857D01*
X122094523Y-77843095D01*
X122046904Y-77985952D01*
X121475476Y-78557380D01*
X122094523Y-78557380D01*
D13*
X108311190Y-77013571D02*
X108287380Y-77037380D01*
X108215952Y-77061190D01*
X108168333Y-77061190D01*
X108096904Y-77037380D01*
X108049285Y-76989761D01*
X108025476Y-76942142D01*
X108001666Y-76846904D01*
X108001666Y-76775476D01*
X108025476Y-76680238D01*
X108049285Y-76632619D01*
X108096904Y-76585000D01*
X108168333Y-76561190D01*
X108215952Y-76561190D01*
X108287380Y-76585000D01*
X108311190Y-76608809D01*
X108454047Y-76561190D02*
X108739761Y-76561190D01*
X108596904Y-77061190D02*
X108596904Y-76561190D01*
X108882619Y-77037380D02*
X108954047Y-77061190D01*
X109073095Y-77061190D01*
X109120714Y-77037380D01*
X109144523Y-77013571D01*
X109168333Y-76965952D01*
X109168333Y-76918333D01*
X109144523Y-76870714D01*
X109120714Y-76846904D01*
X109073095Y-76823095D01*
X108977857Y-76799285D01*
X108930238Y-76775476D01*
X108906428Y-76751666D01*
X108882619Y-76704047D01*
X108882619Y-76656428D01*
X108906428Y-76608809D01*
X108930238Y-76585000D01*
X108977857Y-76561190D01*
X109096904Y-76561190D01*
X109168333Y-76585000D01*
X110458333Y-76561190D02*
X110625000Y-77061190D01*
X110791666Y-76561190D01*
X111244047Y-77013571D02*
X111220238Y-77037380D01*
X111148809Y-77061190D01*
X111101190Y-77061190D01*
X111029761Y-77037380D01*
X110982142Y-76989761D01*
X110958333Y-76942142D01*
X110934523Y-76846904D01*
X110934523Y-76775476D01*
X110958333Y-76680238D01*
X110982142Y-76632619D01*
X111029761Y-76585000D01*
X111101190Y-76561190D01*
X111148809Y-76561190D01*
X111220238Y-76585000D01*
X111244047Y-76608809D01*
X111744047Y-77013571D02*
X111720238Y-77037380D01*
X111648809Y-77061190D01*
X111601190Y-77061190D01*
X111529761Y-77037380D01*
X111482142Y-76989761D01*
X111458333Y-76942142D01*
X111434523Y-76846904D01*
X111434523Y-76775476D01*
X111458333Y-76680238D01*
X111482142Y-76632619D01*
X111529761Y-76585000D01*
X111601190Y-76561190D01*
X111648809Y-76561190D01*
X111720238Y-76585000D01*
X111744047Y-76608809D01*
X113284047Y-76585000D02*
X113236428Y-76561190D01*
X113165000Y-76561190D01*
X113093571Y-76585000D01*
X113045952Y-76632619D01*
X113022142Y-76680238D01*
X112998333Y-76775476D01*
X112998333Y-76846904D01*
X113022142Y-76942142D01*
X113045952Y-76989761D01*
X113093571Y-77037380D01*
X113165000Y-77061190D01*
X113212619Y-77061190D01*
X113284047Y-77037380D01*
X113307857Y-77013571D01*
X113307857Y-76846904D01*
X113212619Y-76846904D01*
X113522142Y-77061190D02*
X113522142Y-76561190D01*
X113807857Y-77061190D01*
X113807857Y-76561190D01*
X114045952Y-77061190D02*
X114045952Y-76561190D01*
X114165000Y-76561190D01*
X114236428Y-76585000D01*
X114284047Y-76632619D01*
X114307857Y-76680238D01*
X114331666Y-76775476D01*
X114331666Y-76846904D01*
X114307857Y-76942142D01*
X114284047Y-76989761D01*
X114236428Y-77037380D01*
X114165000Y-77061190D01*
X114045952Y-77061190D01*
X115824047Y-76561190D02*
X116109761Y-76561190D01*
X115966904Y-77061190D02*
X115966904Y-76561190D01*
X116228809Y-76561190D02*
X116562142Y-77061190D01*
X116562142Y-76561190D02*
X116228809Y-77061190D01*
X118661666Y-77061190D02*
X118495000Y-76823095D01*
X118375952Y-77061190D02*
X118375952Y-76561190D01*
X118566428Y-76561190D01*
X118614047Y-76585000D01*
X118637857Y-76608809D01*
X118661666Y-76656428D01*
X118661666Y-76727857D01*
X118637857Y-76775476D01*
X118614047Y-76799285D01*
X118566428Y-76823095D01*
X118375952Y-76823095D01*
X118828333Y-76561190D02*
X119161666Y-77061190D01*
X119161666Y-76561190D02*
X118828333Y-77061190D01*
X121011190Y-77061190D02*
X120844523Y-76823095D01*
X120725476Y-77061190D02*
X120725476Y-76561190D01*
X120915952Y-76561190D01*
X120963571Y-76585000D01*
X120987380Y-76608809D01*
X121011190Y-76656428D01*
X121011190Y-76727857D01*
X120987380Y-76775476D01*
X120963571Y-76799285D01*
X120915952Y-76823095D01*
X120725476Y-76823095D01*
X121154047Y-76561190D02*
X121439761Y-76561190D01*
X121296904Y-77061190D02*
X121296904Y-76561190D01*
X121582619Y-77037380D02*
X121654047Y-77061190D01*
X121773095Y-77061190D01*
X121820714Y-77037380D01*
X121844523Y-77013571D01*
X121868333Y-76965952D01*
X121868333Y-76918333D01*
X121844523Y-76870714D01*
X121820714Y-76846904D01*
X121773095Y-76823095D01*
X121677857Y-76799285D01*
X121630238Y-76775476D01*
X121606428Y-76751666D01*
X121582619Y-76704047D01*
X121582619Y-76656428D01*
X121606428Y-76608809D01*
X121630238Y-76585000D01*
X121677857Y-76561190D01*
X121796904Y-76561190D01*
X121868333Y-76585000D01*
%TO.C,U3*%
D10*
X115443095Y-82637380D02*
X115443095Y-83446904D01*
X115490714Y-83542142D01*
X115538333Y-83589761D01*
X115633571Y-83637380D01*
X115824047Y-83637380D01*
X115919285Y-83589761D01*
X115966904Y-83542142D01*
X116014523Y-83446904D01*
X116014523Y-82637380D01*
X116395476Y-82637380D02*
X117014523Y-82637380D01*
X116681190Y-83018333D01*
X116824047Y-83018333D01*
X116919285Y-83065952D01*
X116966904Y-83113571D01*
X117014523Y-83208809D01*
X117014523Y-83446904D01*
X116966904Y-83542142D01*
X116919285Y-83589761D01*
X116824047Y-83637380D01*
X116538333Y-83637380D01*
X116443095Y-83589761D01*
X116395476Y-83542142D01*
%TO.C,SW1*%
X87566666Y-109624761D02*
X87709523Y-109672380D01*
X87947619Y-109672380D01*
X88042857Y-109624761D01*
X88090476Y-109577142D01*
X88138095Y-109481904D01*
X88138095Y-109386666D01*
X88090476Y-109291428D01*
X88042857Y-109243809D01*
X87947619Y-109196190D01*
X87757142Y-109148571D01*
X87661904Y-109100952D01*
X87614285Y-109053333D01*
X87566666Y-108958095D01*
X87566666Y-108862857D01*
X87614285Y-108767619D01*
X87661904Y-108720000D01*
X87757142Y-108672380D01*
X87995238Y-108672380D01*
X88138095Y-108720000D01*
X88471428Y-108672380D02*
X88709523Y-109672380D01*
X88900000Y-108958095D01*
X89090476Y-109672380D01*
X89328571Y-108672380D01*
X90233333Y-109672380D02*
X89661904Y-109672380D01*
X89947619Y-109672380D02*
X89947619Y-108672380D01*
X89852380Y-108815238D01*
X89757142Y-108910476D01*
X89661904Y-108958095D01*
%TO.C,R1*%
X121118333Y-111577380D02*
X120785000Y-111101190D01*
X120546904Y-111577380D02*
X120546904Y-110577380D01*
X120927857Y-110577380D01*
X121023095Y-110625000D01*
X121070714Y-110672619D01*
X121118333Y-110767857D01*
X121118333Y-110910714D01*
X121070714Y-111005952D01*
X121023095Y-111053571D01*
X120927857Y-111101190D01*
X120546904Y-111101190D01*
X122070714Y-111577380D02*
X121499285Y-111577380D01*
X121785000Y-111577380D02*
X121785000Y-110577380D01*
X121689761Y-110720238D01*
X121594523Y-110815476D01*
X121499285Y-110863095D01*
%TO.C,R2*%
X118578333Y-111577380D02*
X118245000Y-111101190D01*
X118006904Y-111577380D02*
X118006904Y-110577380D01*
X118387857Y-110577380D01*
X118483095Y-110625000D01*
X118530714Y-110672619D01*
X118578333Y-110767857D01*
X118578333Y-110910714D01*
X118530714Y-111005952D01*
X118483095Y-111053571D01*
X118387857Y-111101190D01*
X118006904Y-111101190D01*
X118959285Y-110672619D02*
X119006904Y-110625000D01*
X119102142Y-110577380D01*
X119340238Y-110577380D01*
X119435476Y-110625000D01*
X119483095Y-110672619D01*
X119530714Y-110767857D01*
X119530714Y-110863095D01*
X119483095Y-111005952D01*
X118911666Y-111577380D01*
X119530714Y-111577380D01*
%TO.C,R3*%
X116038333Y-111592381D02*
X115705000Y-111116191D01*
X115466904Y-111592381D02*
X115466904Y-110592381D01*
X115847857Y-110592381D01*
X115943095Y-110640001D01*
X115990714Y-110687620D01*
X116038333Y-110782858D01*
X116038333Y-110925715D01*
X115990714Y-111020953D01*
X115943095Y-111068572D01*
X115847857Y-111116191D01*
X115466904Y-111116191D01*
X116371666Y-110592381D02*
X116990714Y-110592381D01*
X116657380Y-110973334D01*
X116800238Y-110973334D01*
X116895476Y-111020953D01*
X116943095Y-111068572D01*
X116990714Y-111163810D01*
X116990714Y-111401905D01*
X116943095Y-111497143D01*
X116895476Y-111544762D01*
X116800238Y-111592381D01*
X116514523Y-111592381D01*
X116419285Y-111544762D01*
X116371666Y-111497143D01*
%TO.C,R4*%
X113498333Y-111577380D02*
X113165000Y-111101190D01*
X112926904Y-111577380D02*
X112926904Y-110577380D01*
X113307857Y-110577380D01*
X113403095Y-110625000D01*
X113450714Y-110672619D01*
X113498333Y-110767857D01*
X113498333Y-110910714D01*
X113450714Y-111005952D01*
X113403095Y-111053571D01*
X113307857Y-111101190D01*
X112926904Y-111101190D01*
X114355476Y-110910714D02*
X114355476Y-111577380D01*
X114117380Y-110529761D02*
X113879285Y-111244047D01*
X114498333Y-111244047D01*
%TO.C,R5*%
X110958333Y-111592381D02*
X110625000Y-111116191D01*
X110386904Y-111592381D02*
X110386904Y-110592381D01*
X110767857Y-110592381D01*
X110863095Y-110640001D01*
X110910714Y-110687620D01*
X110958333Y-110782858D01*
X110958333Y-110925715D01*
X110910714Y-111020953D01*
X110863095Y-111068572D01*
X110767857Y-111116191D01*
X110386904Y-111116191D01*
X111863095Y-110592381D02*
X111386904Y-110592381D01*
X111339285Y-111068572D01*
X111386904Y-111020953D01*
X111482142Y-110973334D01*
X111720238Y-110973334D01*
X111815476Y-111020953D01*
X111863095Y-111068572D01*
X111910714Y-111163810D01*
X111910714Y-111401905D01*
X111863095Y-111497143D01*
X111815476Y-111544762D01*
X111720238Y-111592381D01*
X111482142Y-111592381D01*
X111386904Y-111544762D01*
X111339285Y-111497143D01*
%TD*%
M02*
