%TF.GenerationSoftware,KiCad,Pcbnew,5.1.10-88a1d61d58~88~ubuntu18.04.1*%
%TF.CreationDate,2021-08-27T16:22:50+08:00*%
%TF.ProjectId,grip_strength,67726970-5f73-4747-9265-6e6774682e6b,rev?*%
%TF.SameCoordinates,Original*%
%TF.FileFunction,Copper,L1,Top*%
%TF.FilePolarity,Positive*%
%FSLAX46Y46*%
G04 Gerber Fmt 4.6, Leading zero omitted, Abs format (unit mm)*
G04 Created by KiCad (PCBNEW 5.1.10-88a1d61d58~88~ubuntu18.04.1) date 2021-08-27 16:22:50*
%MOMM*%
%LPD*%
G01*
G04 APERTURE LIST*
%TA.AperFunction,ComponentPad*%
%ADD10R,1.500000X1.500000*%
%TD*%
%TA.AperFunction,ComponentPad*%
%ADD11C,1.500000*%
%TD*%
%TA.AperFunction,SMDPad,CuDef*%
%ADD12R,1.524000X1.524000*%
%TD*%
%TA.AperFunction,ConnectorPad*%
%ADD13R,1.524000X1.524000*%
%TD*%
%TA.AperFunction,ComponentPad*%
%ADD14O,1.700000X1.700000*%
%TD*%
%TA.AperFunction,ComponentPad*%
%ADD15R,1.700000X1.700000*%
%TD*%
%TA.AperFunction,ComponentPad*%
%ADD16O,1.400000X1.400000*%
%TD*%
%TA.AperFunction,ComponentPad*%
%ADD17C,1.400000*%
%TD*%
%TA.AperFunction,ComponentPad*%
%ADD18C,1.524000*%
%TD*%
%TA.AperFunction,ComponentPad*%
%ADD19O,1.600000X1.600000*%
%TD*%
%TA.AperFunction,ComponentPad*%
%ADD20R,1.600000X1.600000*%
%TD*%
%TA.AperFunction,ComponentPad*%
%ADD21C,2.000000*%
%TD*%
%TA.AperFunction,ComponentPad*%
%ADD22C,5.000000*%
%TD*%
%TA.AperFunction,ViaPad*%
%ADD23C,0.800000*%
%TD*%
%TA.AperFunction,Conductor*%
%ADD24C,0.500000*%
%TD*%
%TA.AperFunction,Conductor*%
%ADD25C,0.250000*%
%TD*%
G04 APERTURE END LIST*
D10*
%TO.P,J1,1*%
%TO.N,VCC*%
X119380000Y-66675000D03*
D11*
%TO.P,J1,2*%
%TO.N,Net-(J1-Pad2)*%
X118110000Y-69215000D03*
%TO.P,J1,3*%
%TO.N,Net-(J1-Pad3)*%
X116840000Y-66675000D03*
%TO.P,J1,4*%
%TO.N,Net-(J1-Pad4)*%
X115570000Y-69215000D03*
%TO.P,J1,5*%
%TO.N,Net-(J1-Pad5)*%
X114300000Y-66675000D03*
%TO.P,J1,6*%
%TO.N,Net-(J1-Pad6)*%
X113030000Y-69215000D03*
%TO.P,J1,7*%
%TO.N,Net-(J1-Pad7)*%
X111760000Y-66675000D03*
%TO.P,J1,8*%
%TO.N,GNDREF*%
X110490000Y-69215000D03*
%TD*%
D12*
%TO.P,U1,40*%
%TO.N,Net-(U1-Pad40)*%
X104775000Y-53975000D03*
%TO.P,U1,39*%
%TO.N,Net-(U1-Pad39)*%
X104775000Y-56515000D03*
%TO.P,U1,38*%
%TO.N,GNDREF*%
X104775000Y-59055000D03*
%TO.P,U1,37*%
%TO.N,Net-(U1-Pad37)*%
X104775000Y-61595000D03*
%TO.P,U1,36*%
%TO.N,VCC*%
X104775000Y-64135000D03*
%TO.P,U1,35*%
%TO.N,Net-(U1-Pad35)*%
X104775000Y-66675000D03*
%TO.P,U1,34*%
%TO.N,Net-(U1-Pad34)*%
X104775000Y-69215000D03*
%TO.P,U1,33*%
%TO.N,GNDREF*%
X104775000Y-71755000D03*
%TO.P,U1,32*%
%TO.N,Net-(U1-Pad32)*%
X104775000Y-74295000D03*
%TO.P,U1,31*%
%TO.N,Net-(U1-Pad31)*%
X104775000Y-76835000D03*
D13*
%TO.P,U1,30*%
%TO.N,Net-(SW1-Pad1)*%
X104775000Y-79375000D03*
D12*
%TO.P,U1,29*%
%TO.N,Net-(U1-Pad29)*%
X104775000Y-81915000D03*
%TO.P,U1,28*%
%TO.N,GNDREF*%
X104775000Y-84455000D03*
%TO.P,U1,27*%
%TO.N,Net-(U1-Pad27)*%
X104775000Y-86995000D03*
%TO.P,U1,26*%
%TO.N,Net-(U1-Pad26)*%
X104775000Y-89535000D03*
%TO.P,U1,25*%
%TO.N,Net-(U1-Pad25)*%
X104775000Y-92075000D03*
%TO.P,U1,24*%
%TO.N,Net-(U1-Pad24)*%
X104775000Y-94615000D03*
%TO.P,U1,23*%
%TO.N,GNDREF*%
X104775000Y-97155000D03*
%TO.P,U1,22*%
%TO.N,Net-(U1-Pad22)*%
X104775000Y-99695000D03*
%TO.P,U1,21*%
%TO.N,Net-(U1-Pad21)*%
X104775000Y-102235000D03*
%TO.P,U1,20*%
%TO.N,Net-(U1-Pad20)*%
X83185000Y-102235000D03*
%TO.P,U1,19*%
%TO.N,Net-(U1-Pad19)*%
X83185000Y-99695000D03*
%TO.P,U1,18*%
%TO.N,GNDREF*%
X83185000Y-97155000D03*
%TO.P,U1,17*%
%TO.N,Net-(U1-Pad17)*%
X83185000Y-94615000D03*
%TO.P,U1,16*%
%TO.N,Net-(U1-Pad16)*%
X83185000Y-92075000D03*
%TO.P,U1,15*%
%TO.N,Net-(U1-Pad15)*%
X83185000Y-89535000D03*
%TO.P,U1,14*%
%TO.N,Net-(U1-Pad14)*%
X83185000Y-86995000D03*
%TO.P,U1,13*%
%TO.N,GNDREF*%
X83185000Y-84455000D03*
%TO.P,U1,12*%
%TO.N,Net-(U1-Pad12)*%
X83185000Y-81915000D03*
%TO.P,U1,11*%
%TO.N,Net-(U1-Pad11)*%
X83185000Y-79375000D03*
%TO.P,U1,10*%
%TO.N,Net-(U1-Pad10)*%
X83185000Y-76835000D03*
%TO.P,U1,9*%
%TO.N,Net-(U1-Pad9)*%
X83312000Y-74295000D03*
%TO.P,U1,8*%
%TO.N,Net-(U1-Pad8)*%
X83185000Y-71755000D03*
%TO.P,U1,7*%
%TO.N,Net-(U1-Pad7)*%
X83185000Y-69215000D03*
%TO.P,U1,6*%
%TO.N,Net-(U1-Pad6)*%
X83185000Y-66675000D03*
%TO.P,U1,5*%
%TO.N,Net-(U1-Pad5)*%
X83185000Y-64135000D03*
%TO.P,U1,4*%
%TO.N,Net-(U1-Pad4)*%
X83185000Y-61595000D03*
%TO.P,U1,3*%
%TO.N,GNDREF*%
X83185000Y-59055000D03*
%TO.P,U1,2*%
%TO.N,Net-(U1-Pad2)*%
X83185000Y-56515000D03*
%TO.P,U1,1*%
%TO.N,Net-(U1-Pad1)*%
X83185000Y-53975000D03*
%TD*%
D14*
%TO.P,U4,4*%
%TO.N,Net-(U1-Pad6)*%
X96520000Y-113030000D03*
%TO.P,U4,3*%
%TO.N,Net-(U1-Pad7)*%
X99060000Y-113030000D03*
%TO.P,U4,2*%
%TO.N,GNDREF*%
X101600000Y-113030000D03*
D15*
%TO.P,U4,1*%
%TO.N,VCC*%
X104140000Y-113030000D03*
%TD*%
D16*
%TO.P,R6,2*%
%TO.N,Net-(J1-Pad7)*%
X108585000Y-108585000D03*
D17*
%TO.P,R6,1*%
%TO.N,VCC*%
X108585000Y-113665000D03*
%TD*%
D18*
%TO.P,U2,6*%
%TO.N,Net-(U2-Pad6)*%
X108585000Y-75565000D03*
%TO.P,U2,5*%
%TO.N,VCC*%
X111125000Y-75565000D03*
%TO.P,U2,4*%
%TO.N,GNDREF*%
X113665000Y-75565000D03*
%TO.P,U2,3*%
%TO.N,Net-(U1-Pad2)*%
X116205000Y-75565000D03*
%TO.P,U2,2*%
%TO.N,Net-(U1-Pad1)*%
X118745000Y-75565000D03*
%TO.P,U2,1*%
%TO.N,Net-(U2-Pad1)*%
X121285000Y-75565000D03*
%TD*%
D19*
%TO.P,U3,16*%
%TO.N,VCC*%
X118745000Y-83185000D03*
%TO.P,U3,8*%
%TO.N,GNDREF*%
X111125000Y-100965000D03*
%TO.P,U3,15*%
%TO.N,Net-(J1-Pad4)*%
X118745000Y-85725000D03*
%TO.P,U3,7*%
%TO.N,GNDREF*%
X111125000Y-98425000D03*
%TO.P,U3,14*%
%TO.N,Net-(J1-Pad3)*%
X118745000Y-88265000D03*
%TO.P,U3,6*%
%TO.N,GNDREF*%
X111125000Y-95885000D03*
%TO.P,U3,13*%
%TO.N,Net-(U1-Pad32)*%
X118745000Y-90805000D03*
%TO.P,U3,5*%
%TO.N,Net-(J1-Pad6)*%
X111125000Y-93345000D03*
%TO.P,U3,12*%
%TO.N,Net-(J1-Pad2)*%
X118745000Y-93345000D03*
%TO.P,U3,4*%
%TO.N,Net-(U3-Pad4)*%
X111125000Y-90805000D03*
%TO.P,U3,11*%
%TO.N,Net-(U3-Pad11)*%
X118745000Y-95885000D03*
%TO.P,U3,3*%
%TO.N,Net-(U1-Pad31)*%
X111125000Y-88265000D03*
%TO.P,U3,10*%
%TO.N,Net-(U1-Pad4)*%
X118745000Y-98425000D03*
%TO.P,U3,2*%
%TO.N,Net-(J1-Pad7)*%
X111125000Y-85725000D03*
%TO.P,U3,9*%
%TO.N,Net-(U1-Pad5)*%
X118745000Y-100965000D03*
D20*
%TO.P,U3,1*%
%TO.N,Net-(J1-Pad5)*%
X111125000Y-83185000D03*
%TD*%
D21*
%TO.P,SW1,2*%
%TO.N,GNDREF*%
X91440000Y-108530000D03*
%TO.P,SW1,1*%
%TO.N,Net-(SW1-Pad1)*%
X91440000Y-113030000D03*
%TO.P,SW1,2*%
%TO.N,GNDREF*%
X84940000Y-108530000D03*
%TO.P,SW1,1*%
%TO.N,Net-(SW1-Pad1)*%
X84940000Y-113030000D03*
%TD*%
D22*
%TO.P,H1,1*%
%TO.N,N/C*%
X78740000Y-55880000D03*
%TD*%
%TO.P,H2,1*%
%TO.N,N/C*%
X127000000Y-55880000D03*
%TD*%
%TO.P,H3,1*%
%TO.N,N/C*%
X78740000Y-114300000D03*
%TD*%
%TO.P,H4,1*%
%TO.N,N/C*%
X127000000Y-114300000D03*
%TD*%
D17*
%TO.P,R1,1*%
%TO.N,VCC*%
X121285000Y-113665000D03*
D16*
%TO.P,R1,2*%
%TO.N,Net-(J1-Pad2)*%
X121285000Y-108585000D03*
%TD*%
%TO.P,R2,2*%
%TO.N,Net-(J1-Pad3)*%
X118745000Y-108585000D03*
D17*
%TO.P,R2,1*%
%TO.N,VCC*%
X118745000Y-113665000D03*
%TD*%
%TO.P,R3,1*%
%TO.N,VCC*%
X116205000Y-113665000D03*
D16*
%TO.P,R3,2*%
%TO.N,Net-(J1-Pad4)*%
X116205000Y-108585000D03*
%TD*%
D17*
%TO.P,R4,1*%
%TO.N,VCC*%
X113665000Y-113665000D03*
D16*
%TO.P,R4,2*%
%TO.N,Net-(J1-Pad5)*%
X113665000Y-108585000D03*
%TD*%
%TO.P,R5,2*%
%TO.N,Net-(J1-Pad6)*%
X111125000Y-108585000D03*
D17*
%TO.P,R5,1*%
%TO.N,VCC*%
X111125000Y-113665000D03*
%TD*%
D23*
%TO.N,Net-(U1-Pad1)*%
X85090000Y-53975000D03*
X126365000Y-67945000D03*
%TO.N,Net-(U1-Pad2)*%
X85090000Y-56515000D03*
X123825000Y-67945000D03*
%TO.N,Net-(U1-Pad4)*%
X100330000Y-61595000D03*
%TO.N,Net-(U1-Pad5)*%
X101600705Y-64135705D03*
%TO.N,Net-(U1-Pad6)*%
X96520000Y-66675000D03*
%TO.N,Net-(U1-Pad7)*%
X99060000Y-69215000D03*
%TD*%
D24*
%TO.N,VCC*%
X108585000Y-113665000D02*
X121285000Y-113665000D01*
X123190000Y-111760000D02*
X121285000Y-113665000D01*
X104775000Y-113665000D02*
X104140000Y-113030000D01*
X108585000Y-113665000D02*
X104775000Y-113665000D01*
X128270000Y-106680000D02*
X123507500Y-111442500D01*
X123190000Y-111760000D02*
X123507500Y-111442500D01*
X123507500Y-111442500D02*
X125095000Y-109855000D01*
X113665000Y-78105000D02*
X120538762Y-78105000D01*
X128270000Y-75565000D02*
X128270000Y-78105000D01*
X111125000Y-75565000D02*
X113665000Y-78105000D01*
X128270000Y-78105000D02*
X128270000Y-83185000D01*
X116205000Y-64135000D02*
X116840000Y-64135000D01*
X104775000Y-64135000D02*
X116205000Y-64135000D01*
X128270000Y-83185000D02*
X128270000Y-93980000D01*
X128270000Y-93980000D02*
X128270000Y-106680000D01*
X128270000Y-67310000D02*
X128270000Y-93980000D01*
X125095000Y-64135000D02*
X128270000Y-67310000D01*
X118745000Y-83185000D02*
X123825000Y-78105000D01*
X120538762Y-78105000D02*
X123825000Y-78105000D01*
X123825000Y-78105000D02*
X128270000Y-78105000D01*
X119380000Y-66675000D02*
X119380000Y-64135000D01*
X116205000Y-64135000D02*
X119380000Y-64135000D01*
X119380000Y-64135000D02*
X125095000Y-64135000D01*
D25*
%TO.N,Net-(SW1-Pad1)*%
X86265001Y-97884999D02*
X104775000Y-79375000D01*
X86265001Y-111704999D02*
X86265001Y-97884999D01*
X84940000Y-113030000D02*
X86265001Y-111704999D01*
X101024992Y-103445008D02*
X101024992Y-83125008D01*
X101024992Y-83125008D02*
X104775000Y-79375000D01*
X91440000Y-113030000D02*
X101024992Y-103445008D01*
%TO.N,Net-(U1-Pad1)*%
X83185000Y-53975000D02*
X85090000Y-53975000D01*
X85090000Y-53975000D02*
X85090000Y-53975000D01*
X85090000Y-53975000D02*
X85090000Y-53975000D01*
X118745000Y-75565000D02*
X126365000Y-67945000D01*
X126365000Y-67945000D02*
X126365000Y-67945000D01*
%TO.N,Net-(U1-Pad2)*%
X83185000Y-56515000D02*
X85090000Y-56515000D01*
X85090000Y-56515000D02*
X85090000Y-56515000D01*
X85090000Y-56515000D02*
X85090000Y-56515000D01*
X116205000Y-75565000D02*
X123825000Y-67945000D01*
X123825000Y-67945000D02*
X123825000Y-67945000D01*
%TO.N,Net-(U1-Pad4)*%
X100330000Y-61595000D02*
X90170000Y-61595000D01*
X83185000Y-61595000D02*
X90170000Y-61595000D01*
X90170000Y-61595000D02*
X98425000Y-61595000D01*
%TO.N,Net-(U1-Pad5)*%
X83185000Y-64135000D02*
X99695000Y-64135000D01*
X99695705Y-64135705D02*
X99695000Y-64135000D01*
X100965705Y-64135705D02*
X99695705Y-64135705D01*
X100965705Y-64135705D02*
X101600705Y-64135705D01*
%TO.N,Net-(U1-Pad6)*%
X96520000Y-66675000D02*
X95250000Y-66675000D01*
X83185000Y-66675000D02*
X95250000Y-66675000D01*
X95250000Y-66675000D02*
X95885000Y-66675000D01*
%TO.N,Net-(U1-Pad7)*%
X83185000Y-69215000D02*
X97155000Y-69215000D01*
X97155000Y-69215000D02*
X99060000Y-69215000D01*
%TO.N,Net-(U1-Pad32)*%
X104775000Y-74295000D02*
X105410000Y-73660000D01*
X107950000Y-73660000D02*
X107950000Y-73660000D01*
X108585000Y-73660000D02*
X109855000Y-74930000D01*
X107315000Y-73660000D02*
X107950000Y-73660000D01*
X107315000Y-73660000D02*
X108585000Y-73660000D01*
X105410000Y-73660000D02*
X107315000Y-73660000D01*
X109855000Y-78738590D02*
X113030000Y-81913590D01*
X109855000Y-74930000D02*
X109855000Y-78738590D01*
X113030000Y-85090000D02*
X118745000Y-90805000D01*
X113030000Y-81913590D02*
X113030000Y-85090000D01*
D24*
%TO.N,GNDREF*%
X111125000Y-95885000D02*
X111125000Y-100965000D01*
X106045000Y-95885000D02*
X104775000Y-97155000D01*
X111125000Y-95885000D02*
X106045000Y-95885000D01*
X84940000Y-98910000D02*
X84940000Y-108530000D01*
X83185000Y-97155000D02*
X84940000Y-98910000D01*
X110490000Y-72390000D02*
X113665000Y-75565000D01*
X109855000Y-71755000D02*
X113665000Y-75565000D01*
X107950000Y-71755000D02*
X109855000Y-71755000D01*
X104775000Y-71755000D02*
X107950000Y-71755000D01*
X107950000Y-71755000D02*
X110490000Y-69215000D01*
X101600000Y-100330000D02*
X101600000Y-113030000D01*
X104775000Y-97155000D02*
X101600000Y-100330000D01*
D25*
%TO.N,Net-(U1-Pad31)*%
X111760000Y-87630000D02*
X111125000Y-88265000D01*
X112395000Y-81915000D02*
X112395000Y-86995000D01*
X107315000Y-76835000D02*
X112395000Y-81915000D01*
X112395000Y-86995000D02*
X111760000Y-87630000D01*
X104775000Y-76835000D02*
X107315000Y-76835000D01*
%TD*%
M02*
